SplineFontDB: 3.0
FontName: Bristol-MediumItalic
FullName: Bristol Medium Italic
FamilyName: Bristol
Weight: Medium
Copyright: Copyright (c) 2011 by Pablo Impallari. www.impallari.com Igino Marini. www.ikern.com. All rights reserved.
Version: 1.00
DefaultBaseFilename: Bristol-500-Italic
ItalicAngle: 0
UnderlinePosition: -100
UnderlineWidth: 50
Ascent: 800
Descent: 200
InvalidEm: 0
sfntRevision: 0x00010148
LayerCount: 2
Layer: 0 1 "Back" 1
Layer: 1 1 "Fore" 0
FSType: 0
OS2Version: 3
OS2_WeightWidthSlopeOnly: 0
OS2_UseTypoMetrics: 1
CreationTime: 1321581664
ModificationTime: 1431295528
PfmFamily: 33
TTFWeight: 500
TTFWidth: 5
LineGap: 0
VLineGap: 0
Panose: 2 11 8 3 5 2 2 2 0 4
OS2TypoAscent: 965
OS2TypoAOffset: 0
OS2TypoDescent: -250
OS2TypoDOffset: 0
OS2TypoLinegap: 0
OS2WinAscent: 965
OS2WinAOffset: 0
OS2WinDescent: 250
OS2WinDOffset: 0
HheadAscent: 965
HheadAOffset: 0
HheadDescent: -250
HheadDOffset: 0
OS2SubXSize: 700
OS2SubYSize: 650
OS2SubXOff: 0
OS2SubYOff: 140
OS2SupXSize: 700
OS2SupYSize: 650
OS2SupXOff: 0
OS2SupYOff: 477
OS2StrikeYSize: 50
OS2StrikeYPos: 250
OS2CapHeight: 700
OS2XHeight: 500
OS2FamilyClass: 2050
OS2Vendor: '    '
OS2CodePages: 00000001.00000000
OS2UnicodeRanges: 8000002f.1000000b.00000000.00000000
Lookup: 1 0 0 "'aalt' Access All Alternates in Latin lookup 0" { "'aalt' Access All Alternates in Latin lookup 0 subtable"  } ['aalt' ('latn' <'dflt' > ) ]
Lookup: 1 0 0 "'smcp' Lowercase to Small Capitals in Latin lookup 1" { "'smcp' Lowercase to Small Capitals in Latin lookup 1 subtable"  } ['smcp' ('latn' <'dflt' > ) ]
Lookup: 258 0 0 "'kern' Horizontal Kerning in Latin lookup 0" { "'kern' Horizontal Kerning in Latin lookup 0 per glyph data 0"  "'kern' Horizontal Kerning in Latin lookup 0 kerning class 1"  "'kern' Horizontal Kerning in Latin lookup 0 kerning class 2"  "'kern' Horizontal Kerning in Latin lookup 0 kerning class 3"  "'kern' Horizontal Kerning in Latin lookup 0 kerning class 4"  } ['kern' ('latn' <'dflt' > ) ]
MarkAttachClasses: 1

StartChar: .notdef
Encoding: 65536 -1 0
Width: 225
Flags: W
LayerCount: 2
Back
Fore
SplineSet
97 247 m 1,0,-1
 118 363 l 1,1,-1
 221 363 l 1,2,-1
 200 247 l 1,3,-1
 97 247 l 1,0,-1
EndSplineSet
EndChar

StartChar: exclam
Encoding: 33 33 2
Width: 242
Flags: W
LayerCount: 2
Back
Fore
SplineSet
140 200 m 1,0,-1
 70 200 l 1,1,-1
 146 750 l 1,2,-1
 258 750 l 1,3,-1
 140 200 l 1,0,-1
19 0 m 1,4,-1
 37 99 l 1,5,-1
 137 99 l 1,6,-1
 120 0 l 1,7,-1
 19 0 l 1,4,-1
EndSplineSet
EndChar

StartChar: quotedbl
Encoding: 34 34 3
Width: 380
Flags: W
LayerCount: 2
Back
Fore
SplineSet
341 450 m 1,0,-1
 274 450 l 1,1,-1
 309 750 l 1,2,-1
 412 750 l 1,3,-1
 341 450 l 1,0,-1
153 450 m 1,4,-1
 86 450 l 1,5,-1
 121 750 l 1,6,-1
 224 750 l 1,7,-1
 153 450 l 1,4,-1
EndSplineSet
EndChar

StartChar: numbersign
Encoding: 35 35 4
Width: 659
Flags: W
LayerCount: 2
Back
Fore
SplineSet
607 420 m 1,0,-1
 504 420 l 1,1,-1
 445 303 l 1,2,-1
 558 303 l 1,3,-1
 505 214 l 1,4,-1
 397 214 l 1,5,-1
 281 -11 l 1,6,-1
 200 -11 l 1,7,-1
 314 214 l 1,8,-1
 209 214 l 1,9,-1
 92 -11 l 1,10,-1
 11 -11 l 1,11,-1
 127 214 l 1,12,-1
 20 214 l 1,13,-1
 73 303 l 1,14,-1
 174 303 l 1,15,-1
 233 420 l 1,16,-1
 123 420 l 1,17,-1
 166 509 l 1,18,-1
 281 509 l 1,19,-1
 381 700 l 1,20,-1
 462 700 l 1,21,-1
 363 509 l 1,22,-1
 470 509 l 1,23,-1
 568 700 l 1,24,-1
 651 700 l 1,25,-1
 552 509 l 1,26,-1
 652 509 l 1,27,-1
 607 420 l 1,0,-1
315 420 m 1,28,-1
 256 303 l 1,29,-1
 362 303 l 1,30,-1
 422 420 l 1,31,-1
 315 420 l 1,28,-1
EndSplineSet
EndChar

StartChar: dollar
Encoding: 36 36 5
Width: 489
Flags: W
LayerCount: 2
Back
Fore
SplineSet
228 -32 m 1,0,-1
 136 -32 l 1,1,-1
 171 80 l 1,2,3
 117 83 117 83 78.5 94 c 128,-1,4
 40 105 40 105 20 119 c 1,5,-1
 54 234 l 1,6,7
 74 211 74 211 113.5 192.5 c 128,-1,8
 153 174 153 174 213 174 c 0,9,10
 263 174 263 174 290.5 189 c 128,-1,11
 318 204 318 204 318 243 c 0,12,13
 318 267 318 267 300 282.5 c 128,-1,14
 282 298 282 298 254.5 310 c 128,-1,15
 227 322 227 322 195.5 333 c 128,-1,16
 164 344 164 344 136.5 359.5 c 128,-1,17
 109 375 109 375 91 398 c 128,-1,18
 73 421 73 421 73 456 c 0,19,20
 73 481 73 481 83 509.5 c 128,-1,21
 93 538 93 538 116 563.5 c 128,-1,22
 139 589 139 589 176 607.5 c 128,-1,23
 213 626 213 626 268 632 c 1,24,-1
 274 748 l 1,25,-1
 366 748 l 1,26,-1
 331 632 l 1,27,28
 376 629 376 629 413.5 617.5 c 128,-1,29
 451 606 451 606 468 594 c 1,30,-1
 441 492 l 1,31,32
 406 512 406 512 367.5 527 c 128,-1,33
 329 542 329 542 296 542 c 0,34,35
 276 542 276 542 256 539 c 128,-1,36
 236 536 236 536 219.5 529 c 128,-1,37
 203 522 203 522 192.5 510 c 128,-1,38
 182 498 182 498 182 480 c 0,39,40
 182 457 182 457 201 443.5 c 128,-1,41
 220 430 220 430 248 419.5 c 128,-1,42
 276 409 276 409 309 398 c 128,-1,43
 342 387 342 387 370 370 c 128,-1,44
 398 353 398 353 417 327 c 128,-1,45
 436 301 436 301 436 260 c 0,46,47
 436 242 436 242 430.5 214.5 c 128,-1,48
 425 187 425 187 404 159.5 c 128,-1,49
 383 132 383 132 343 109.5 c 128,-1,50
 303 87 303 87 234 81 c 1,51,-1
 228 -32 l 1,0,-1
EndSplineSet
EndChar

StartChar: percent
Encoding: 37 37 6
Width: 786
Flags: W
LayerCount: 2
Back
Fore
SplineSet
174 -12 m 1,0,-1
 88 -12 l 1,1,-1
 593 700 l 1,2,-1
 678 700 l 1,3,-1
 174 -12 l 1,0,-1
178 334 m 0,4,5
 127 334 127 334 99 370 c 128,-1,6
 71 406 71 406 71 471 c 0,7,8
 71 525 71 525 86 568 c 128,-1,9
 101 611 101 611 125.5 641.5 c 128,-1,10
 150 672 150 672 182 688.5 c 128,-1,11
 214 705 214 705 248 705 c 0,12,13
 296 705 296 705 325 668.5 c 128,-1,14
 354 632 354 632 354 566 c 0,15,16
 354 514 354 514 340.5 471.5 c 128,-1,17
 327 429 327 429 303 398.5 c 128,-1,18
 279 368 279 368 247 351 c 128,-1,19
 215 334 215 334 178 334 c 0,4,5
236 646 m 0,20,21
 219 646 219 646 201.5 634.5 c 128,-1,22
 184 623 184 623 170 601 c 128,-1,23
 156 579 156 579 146.5 548.5 c 128,-1,24
 137 518 137 518 137 480 c 0,25,26
 137 438 137 438 151.5 415.5 c 128,-1,27
 166 393 166 393 189 393 c 0,28,29
 209 393 209 393 227 405 c 128,-1,30
 245 417 245 417 258.5 439 c 128,-1,31
 272 461 272 461 280 491 c 128,-1,32
 288 521 288 521 288 557 c 0,33,34
 288 599 288 599 273.5 622.5 c 128,-1,35
 259 646 259 646 236 646 c 0,20,21
540 -12 m 0,36,37
 490 -12 490 -12 462 24 c 128,-1,38
 434 60 434 60 434 125 c 0,39,40
 434 179 434 179 449 222 c 128,-1,41
 464 265 464 265 488.5 295.5 c 128,-1,42
 513 326 513 326 544.5 342.5 c 128,-1,43
 576 359 576 359 610 359 c 0,44,45
 659 359 659 359 688 322.5 c 128,-1,46
 717 286 717 286 717 220 c 0,47,48
 717 168 717 168 703.5 125.5 c 128,-1,49
 690 83 690 83 666 52.5 c 128,-1,50
 642 22 642 22 609.5 5 c 128,-1,51
 577 -12 577 -12 540 -12 c 0,36,37
599 300 m 0,52,53
 582 300 582 300 564.5 288.5 c 128,-1,54
 547 277 547 277 532.5 255 c 128,-1,55
 518 233 518 233 509 202.5 c 128,-1,56
 500 172 500 172 500 134 c 0,57,58
 500 92 500 92 514.5 69.5 c 128,-1,59
 529 47 529 47 552 47 c 0,60,61
 572 47 572 47 590 59 c 128,-1,62
 608 71 608 71 621.5 93 c 128,-1,63
 635 115 635 115 643 145 c 128,-1,64
 651 175 651 175 651 211 c 0,65,66
 651 253 651 253 636 276.5 c 128,-1,67
 621 300 621 300 599 300 c 0,52,53
EndSplineSet
EndChar

StartChar: ampersand
Encoding: 38 38 7
Width: 575
Flags: W
LayerCount: 2
Back
Fore
SplineSet
394 0 m 1,0,-1
 370 42 l 1,1,2
 330 7 330 7 288 -8 c 128,-1,3
 246 -23 246 -23 192 -23 c 0,4,5
 144 -23 144 -23 109.5 -11 c 128,-1,6
 75 1 75 1 53.5 22 c 128,-1,7
 32 43 32 43 21.5 71.5 c 128,-1,8
 11 100 11 100 11 132 c 0,9,10
 11 205 11 205 53 260 c 128,-1,11
 95 315 95 315 162 366 c 1,12,13
 144 405 144 405 133 442.5 c 128,-1,14
 122 480 122 480 122 513 c 0,15,16
 122 557 122 557 140 592 c 128,-1,17
 158 627 158 627 188 652 c 128,-1,18
 218 677 218 677 256 690 c 128,-1,19
 294 703 294 703 334 703 c 0,20,21
 394 703 394 703 423 672.5 c 128,-1,22
 452 642 452 642 452 595 c 0,23,24
 452 556 452 556 437 522.5 c 128,-1,25
 422 489 422 489 397 460 c 128,-1,26
 372 431 372 431 341 406.5 c 128,-1,27
 310 382 310 382 278 361 c 1,28,-1
 386 178 l 1,29,30
 393 193 393 193 400.5 216 c 128,-1,31
 408 239 408 239 414 263.5 c 128,-1,32
 420 288 420 288 425 311.5 c 128,-1,33
 430 335 430 335 433 351 c 1,34,-1
 530 351 l 1,35,36
 526 329 526 329 519 300 c 128,-1,37
 512 271 512 271 501 238.5 c 128,-1,38
 490 206 490 206 475 172 c 128,-1,39
 460 138 460 138 439 107 c 1,40,-1
 509 0 l 1,41,-1
 394 0 l 1,0,-1
313 624 m 0,42,43
 276 624 276 624 248.5 596 c 128,-1,44
 221 568 221 568 221 515 c 0,45,46
 221 495 221 495 226.5 469.5 c 128,-1,47
 232 444 232 444 245 415 c 1,48,49
 271 436 271 436 292 454 c 128,-1,50
 313 472 313 472 328 490 c 128,-1,51
 343 508 343 508 351 527.5 c 128,-1,52
 359 547 359 547 359 572 c 0,53,54
 359 624 359 624 313 624 c 0,42,43
200 309 m 1,55,56
 165 277 165 277 141.5 236 c 128,-1,57
 118 195 118 195 118 146 c 0,58,59
 118 127 118 127 123 110.5 c 128,-1,60
 128 94 128 94 139.5 81.5 c 128,-1,61
 151 69 151 69 170 61.5 c 128,-1,62
 189 54 189 54 217 54 c 0,63,64
 252 54 252 54 279.5 68 c 128,-1,65
 307 82 307 82 329 105 c 1,66,-1
 200 309 l 1,55,56
EndSplineSet
EndChar

StartChar: quotesingle
Encoding: 39 39 8
Width: 189
Flags: W
LayerCount: 2
Back
Fore
SplineSet
155 450 m 1,0,-1
 86 450 l 1,1,-1
 121 750 l 1,2,-1
 226 750 l 1,3,-1
 155 450 l 1,0,-1
EndSplineSet
EndChar

StartChar: parenleft
Encoding: 40 40 9
Width: 264
Flags: W
LayerCount: 2
Back
Fore
SplineSet
68 -136 m 1,0,1
 51 -87 51 -87 40.5 -19 c 128,-1,2
 30 49 30 49 30 129 c 0,3,4
 30 211 30 211 40 290 c 128,-1,5
 50 369 50 369 73 446 c 128,-1,6
 96 523 96 523 133 598.5 c 128,-1,7
 170 674 170 674 224 750 c 1,8,-1
 317 750 l 1,9,10
 277 692 277 692 241 628.5 c 128,-1,11
 205 565 205 565 177.5 492.5 c 128,-1,12
 150 420 150 420 134 337 c 128,-1,13
 118 254 118 254 118 158 c 0,14,15
 118 72 118 72 130 -5 c 128,-1,16
 142 -82 142 -82 161 -136 c 1,17,-1
 68 -136 l 1,0,1
EndSplineSet
EndChar

StartChar: parenright
Encoding: 41 41 10
Width: 265
Flags: W
LayerCount: 2
Back
Fore
SplineSet
-50 -136 m 1,0,1
 -10 -78 -10 -78 26.5 -14.5 c 128,-1,2
 63 49 63 49 90.5 121.5 c 128,-1,3
 118 194 118 194 134 277 c 128,-1,4
 150 360 150 360 150 456 c 0,5,6
 150 542 150 542 138 619 c 128,-1,7
 126 696 126 696 106 750 c 1,8,-1
 199 750 l 1,9,10
 217 701 217 701 227.5 633 c 128,-1,11
 238 565 238 565 238 485 c 0,12,13
 238 321 238 321 194 168 c 128,-1,14
 150 15 150 15 43 -136 c 1,15,-1
 -50 -136 l 1,0,1
EndSplineSet
EndChar

StartChar: asterisk
Encoding: 42 42 11
Width: 415
Flags: W
LayerCount: 2
Back
Fore
SplineSet
250 556 m 1,0,-1
 144 419 l 1,1,-1
 101 462 l 1,2,-1
 226 570 l 1,3,-1
 92 631 l 1,4,-1
 138 686 l 1,5,-1
 247 593 l 1,6,-1
 247 749 l 1,7,-1
 319 749 l 1,8,-1
 265 593 l 1,9,-1
 406 686 l 1,10,-1
 432 630 l 1,11,-1
 278 572 l 1,12,-1
 366 465 l 1,13,-1
 307 422 l 1,14,-1
 250 556 l 1,0,-1
EndSplineSet
EndChar

StartChar: plus
Encoding: 43 43 12
Width: 432
Flags: W
LayerCount: 2
Back
Fore
SplineSet
242 235 m 1,0,-1
 218 102 l 1,1,-1
 137 102 l 1,2,-1
 160 235 l 1,3,-1
 34 235 l 1,4,-1
 50 324 l 1,5,-1
 176 324 l 1,6,-1
 199 452 l 1,7,-1
 279 452 l 1,8,-1
 257 324 l 1,9,-1
 383 324 l 1,10,-1
 367 235 l 1,11,-1
 242 235 l 1,0,-1
EndSplineSet
EndChar

StartChar: comma
Encoding: 44 44 13
Width: 221
Flags: W
LayerCount: 2
Back
Fore
SplineSet
9 -109 m 1,0,-1
 -11 -96 l 1,1,-1
 34 -9 l 1,2,-1
 7 0 l 1,3,-1
 24 101 l 1,4,-1
 129 101 l 1,5,-1
 111 0 l 1,6,-1
 9 -109 l 1,0,-1
EndSplineSet
EndChar

StartChar: hyphen
Encoding: 45 45 14
Width: 400
Flags: W
LayerCount: 2
Back
Fore
SplineSet
47 235 m 1,0,-1
 62 324 l 1,1,-1
 341 324 l 1,2,-1
 326 235 l 1,3,-1
 47 235 l 1,0,-1
EndSplineSet
EndChar

StartChar: period
Encoding: 46 46 15
Width: 217
Flags: W
LayerCount: 2
Back
Fore
SplineSet
6 0 m 1,0,-1
 24 101 l 1,1,-1
 127 101 l 1,2,-1
 109 0 l 1,3,-1
 6 0 l 1,0,-1
EndSplineSet
EndChar

StartChar: slash
Encoding: 47 47 16
Width: 508
Flags: W
LayerCount: 2
Back
Fore
SplineSet
66 -85 m 1,0,-1
 -45 -85 l 1,1,-1
 425 700 l 1,2,-1
 537 700 l 1,3,-1
 66 -85 l 1,0,-1
EndSplineSet
EndChar

StartChar: zero
Encoding: 48 48 17
Width: 676
Flags: W
LayerCount: 2
Back
Fore
SplineSet
271 -14 m 0,0,1
 223 -14 223 -14 184.5 5 c 128,-1,2
 146 24 146 24 119.5 59.5 c 128,-1,3
 93 95 93 95 79 144.5 c 128,-1,4
 65 194 65 194 65 256 c 0,5,6
 65 355 65 355 94 439 c 128,-1,7
 123 523 123 523 171 584 c 128,-1,8
 219 645 219 645 281.5 679.5 c 128,-1,9
 344 714 344 714 411 714 c 0,10,11
 457 714 457 714 495 694 c 128,-1,12
 533 674 533 674 560 637.5 c 128,-1,13
 587 601 587 601 601.5 549.5 c 128,-1,14
 616 498 616 498 616 436 c 0,15,16
 616 340 616 340 589.5 257.5 c 128,-1,17
 563 175 563 175 516.5 115 c 128,-1,18
 470 55 470 55 407 20.5 c 128,-1,19
 344 -14 344 -14 271 -14 c 0,0,1
392 619 m 0,20,21
 354 619 354 619 315.5 595.5 c 128,-1,22
 277 572 277 572 245 526.5 c 128,-1,23
 213 481 213 481 193 414 c 128,-1,24
 173 347 173 347 173 261 c 0,25,26
 173 170 173 170 205 126 c 128,-1,27
 237 82 237 82 290 82 c 0,28,29
 335 82 335 82 375 105.5 c 128,-1,30
 415 129 415 129 445 173.5 c 128,-1,31
 475 218 475 218 492 282.5 c 128,-1,32
 509 347 509 347 509 429 c 0,33,34
 509 523 509 523 475.5 571 c 128,-1,35
 442 619 442 619 392 619 c 0,20,21
EndSplineSet
EndChar

StartChar: one
Encoding: 49 49 18
Width: 351
Flags: W
LayerCount: 2
Back
Fore
SplineSet
91 0 m 1,0,-1
 188 548 l 1,1,2
 162 524 162 524 140 512.5 c 128,-1,3
 118 501 118 501 95 495 c 1,4,-1
 101 591 l 1,5,6
 117 597 117 597 137 608 c 128,-1,7
 157 619 157 619 176.5 633.5 c 128,-1,8
 196 648 196 648 213 665 c 128,-1,9
 230 682 230 682 241 700 c 1,10,-1
 322 700 l 1,11,-1
 199 0 l 1,12,-1
 91 0 l 1,0,-1
EndSplineSet
EndChar

StartChar: two
Encoding: 50 50 19
Width: 500
Flags: W
LayerCount: 2
Back
Fore
SplineSet
1 0 m 1,0,1
 76 94 76 94 131 165 c 128,-1,2
 186 236 186 236 225 288.5 c 128,-1,3
 264 341 264 341 288.5 379 c 128,-1,4
 313 417 313 417 326.5 445 c 128,-1,5
 340 473 340 473 345 494 c 128,-1,6
 350 515 350 515 350 535 c 0,7,8
 350 575 350 575 330 597 c 128,-1,9
 310 619 310 619 273 619 c 0,10,11
 244 619 244 619 218.5 608.5 c 128,-1,12
 193 598 193 598 172.5 583 c 128,-1,13
 152 568 152 568 136 551 c 128,-1,14
 120 534 120 534 110 521 c 1,15,-1
 110 616 l 1,16,17
 117 626 117 626 134.5 642.5 c 128,-1,18
 152 659 152 659 178.5 675 c 128,-1,19
 205 691 205 691 239 702.5 c 128,-1,20
 273 714 273 714 312 714 c 0,21,22
 353 714 353 714 380.5 700.5 c 128,-1,23
 408 687 408 687 425 665 c 128,-1,24
 442 643 442 643 449 616 c 128,-1,25
 456 589 456 589 456 561 c 0,26,27
 456 522 456 522 443 480 c 128,-1,28
 430 438 430 438 400.5 384.5 c 128,-1,29
 371 331 371 331 322.5 261.5 c 128,-1,30
 274 192 274 192 204 99 c 1,31,-1
 400 99 l 1,32,-1
 383 0 l 1,33,-1
 1 0 l 1,0,1
EndSplineSet
EndChar

StartChar: three
Encoding: 51 51 20
Width: 516
Flags: W
LayerCount: 2
Back
Fore
SplineSet
157 -14 m 0,0,1
 127 -14 127 -14 99.5 -8 c 128,-1,2
 72 -2 72 -2 50.5 6.5 c 128,-1,3
 29 15 29 15 15 24 c 128,-1,4
 1 33 1 33 -3 39 c 1,5,-1
 40 138 l 1,6,7
 62 115 62 115 96.5 100 c 128,-1,8
 131 85 131 85 172 85 c 0,9,10
 199 85 199 85 226 92 c 128,-1,11
 253 99 253 99 274.5 117 c 128,-1,12
 296 135 296 135 309.5 165.5 c 128,-1,13
 323 196 323 196 323 243 c 0,14,15
 323 262 323 262 318 279.5 c 128,-1,16
 313 297 313 297 301 310 c 128,-1,17
 289 323 289 323 268.5 331 c 128,-1,18
 248 339 248 339 217 339 c 2,19,-1
 140 339 l 1,20,-1
 165 423 l 1,21,-1
 204 423 l 2,22,23
 250 423 250 423 279.5 433.5 c 128,-1,24
 309 444 309 444 325 462 c 128,-1,25
 341 480 341 480 347 503 c 128,-1,26
 353 526 353 526 353 550 c 0,27,28
 353 620 353 620 271 620 c 0,29,30
 235 620 235 620 202 609 c 128,-1,31
 169 598 169 598 149 582 c 1,32,-1
 146 668 l 1,33,34
 153 675 153 675 168 683 c 128,-1,35
 183 691 183 691 203 698 c 128,-1,36
 223 705 223 705 247.5 709.5 c 128,-1,37
 272 714 272 714 299 714 c 0,38,39
 349 714 349 714 381 700.5 c 128,-1,40
 413 687 413 687 432 665.5 c 128,-1,41
 451 644 451 644 458 617.5 c 128,-1,42
 465 591 465 591 465 566 c 0,43,44
 465 514 465 514 443.5 472.5 c 128,-1,45
 422 431 422 431 369 388 c 1,46,47
 402 368 402 368 417 331 c 128,-1,48
 432 294 432 294 432 253 c 0,49,50
 432 187 432 187 407.5 137 c 128,-1,51
 383 87 383 87 344 53.5 c 128,-1,52
 305 20 305 20 255.5 3 c 128,-1,53
 206 -14 206 -14 157 -14 c 0,0,1
EndSplineSet
EndChar

StartChar: four
Encoding: 52 52 21
Width: 540
Flags: W
LayerCount: 2
Back
Fore
SplineSet
377 190 m 1,0,-1
 343 0 l 1,1,-1
 235 0 l 1,2,-1
 269 190 l 1,3,-1
 -2 190 l 1,4,-1
 378 700 l 1,5,-1
 467 700 l 1,6,-1
 393 282 l 1,7,-1
 470 282 l 1,8,-1
 453 190 l 1,9,-1
 377 190 l 1,0,-1
327 521 m 1,10,-1
 164 282 l 1,11,-1
 285 282 l 1,12,-1
 327 521 l 1,10,-1
EndSplineSet
EndChar

StartChar: five
Encoding: 53 53 22
Width: 516
Flags: W
LayerCount: 2
Back
Fore
SplineSet
162 -14 m 0,0,1
 134 -14 134 -14 107.5 -9 c 128,-1,2
 81 -4 81 -4 59.5 2.5 c 128,-1,3
 38 9 38 9 24 17 c 128,-1,4
 10 25 10 25 9 31 c 2,5,-1
 51 129 l 1,6,7
 72 109 72 109 105.5 96.5 c 128,-1,8
 139 84 139 84 177 84 c 0,9,10
 206 84 206 84 234 96 c 128,-1,11
 262 108 262 108 284.5 130.5 c 128,-1,12
 307 153 307 153 321 184.5 c 128,-1,13
 335 216 335 216 335 256 c 0,14,15
 335 278 335 278 327.5 295 c 128,-1,16
 320 312 320 312 303 323.5 c 128,-1,17
 286 335 286 335 258 341 c 128,-1,18
 230 347 230 347 188 347 c 2,19,-1
 98 347 l 1,20,-1
 199 700 l 1,21,-1
 487 700 l 1,22,-1
 459 601 l 1,23,-1
 262 601 l 1,24,-1
 218 440 l 1,25,26
 336 438 336 438 390 398.5 c 128,-1,27
 444 359 444 359 444 277 c 0,28,29
 444 209 444 209 419 155 c 128,-1,30
 394 101 394 101 353.5 63.5 c 128,-1,31
 313 26 313 26 262.5 6 c 128,-1,32
 212 -14 212 -14 162 -14 c 0,0,1
EndSplineSet
EndChar

StartChar: six
Encoding: 54 54 23
Width: 538
Flags: W
LayerCount: 2
Back
Fore
SplineSet
207 -14 m 0,0,1
 135 -14 135 -14 92 34.5 c 128,-1,2
 49 83 49 83 49 179 c 0,3,4
 49 243 49 243 68 306.5 c 128,-1,5
 87 370 87 370 117.5 428 c 128,-1,6
 148 486 148 486 186.5 535.5 c 128,-1,7
 225 585 225 585 265 621 c 128,-1,8
 305 657 305 657 342 678 c 128,-1,9
 379 699 379 699 407 700 c 1,10,-1
 470 658 l 1,11,12
 438 641 438 641 396.5 612.5 c 128,-1,13
 355 584 355 584 315 546.5 c 128,-1,14
 275 509 275 509 241.5 463.5 c 128,-1,15
 208 418 208 418 192 366 c 1,16,17
 217 396 217 396 250.5 408 c 128,-1,18
 284 420 284 420 313 420 c 0,19,20
 385 420 385 420 428.5 377 c 128,-1,21
 472 334 472 334 472 257 c 0,22,23
 472 201 472 201 452 152 c 128,-1,24
 432 103 432 103 396.5 66 c 128,-1,25
 361 29 361 29 312.5 7.5 c 128,-1,26
 264 -14 264 -14 207 -14 c 0,0,1
290 331 m 0,27,28
 262 331 262 331 237 320 c 128,-1,29
 212 309 212 309 193 289 c 128,-1,30
 174 269 174 269 163 241 c 128,-1,31
 152 213 152 213 152 179 c 0,32,33
 152 132 152 132 176.5 106 c 128,-1,34
 201 80 201 80 235 80 c 0,35,36
 263 80 263 80 288 93 c 128,-1,37
 313 106 313 106 331 128 c 128,-1,38
 349 150 349 150 359.5 179 c 128,-1,39
 370 208 370 208 370 241 c 0,40,41
 370 280 370 280 350.5 305.5 c 128,-1,42
 331 331 331 331 290 331 c 0,27,28
EndSplineSet
EndChar

StartChar: seven
Encoding: 55 55 24
Width: 481
Flags: W
LayerCount: 2
Back
Fore
SplineSet
139 0 m 1,0,-1
 27 0 l 1,1,-1
 356 601 l 1,2,-1
 99 601 l 1,3,-1
 116 700 l 1,4,-1
 528 700 l 1,5,-1
 139 0 l 1,0,-1
EndSplineSet
EndChar

StartChar: eight
Encoding: 56 56 25
Width: 573
Flags: W
LayerCount: 2
Back
Fore
SplineSet
218 -14 m 0,0,1
 170 -14 170 -14 136 0.5 c 128,-1,2
 102 15 102 15 80.5 39 c 128,-1,3
 59 63 59 63 49 93.5 c 128,-1,4
 39 124 39 124 39 156 c 0,5,6
 39 180 39 180 45 207.5 c 128,-1,7
 51 235 51 235 66.5 263.5 c 128,-1,8
 82 292 82 292 109.5 320.5 c 128,-1,9
 137 349 137 349 180 376 c 1,10,11
 156 405 156 405 146 438.5 c 128,-1,12
 136 472 136 472 136 504 c 0,13,14
 136 539 136 539 147 576 c 128,-1,15
 158 613 158 613 183.5 643.5 c 128,-1,16
 209 674 209 674 252 693.5 c 128,-1,17
 295 713 295 713 359 713 c 0,18,19
 403 713 403 713 433 702 c 128,-1,20
 463 691 463 691 481.5 672.5 c 128,-1,21
 500 654 500 654 508 630 c 128,-1,22
 516 606 516 606 516 581 c 0,23,24
 516 550 516 550 510 526 c 128,-1,25
 504 502 504 502 490.5 480.5 c 128,-1,26
 477 459 477 459 454.5 436.5 c 128,-1,27
 432 414 432 414 398 387 c 1,28,29
 441 364 441 364 465 326 c 128,-1,30
 489 288 489 288 489 234 c 0,31,32
 489 193 489 193 472 149.5 c 128,-1,33
 455 106 455 106 421 69.5 c 128,-1,34
 387 33 387 33 336 9.5 c 128,-1,35
 285 -14 285 -14 218 -14 c 0,0,1
338 623 m 0,36,37
 285 623 285 623 258 593 c 128,-1,38
 231 563 231 563 231 512 c 0,39,40
 231 486 231 486 246.5 461.5 c 128,-1,41
 262 437 262 437 298 422 c 1,42,43
 358 442 358 442 385.5 478 c 128,-1,44
 413 514 413 514 413 558 c 0,45,46
 413 587 413 587 395 605 c 128,-1,47
 377 623 377 623 338 623 c 0,36,37
291 336 m 1,48,49
 264 330 264 330 237.5 316.5 c 128,-1,50
 211 303 211 303 190.5 282 c 128,-1,51
 170 261 170 261 157.5 232.5 c 128,-1,52
 145 204 145 204 145 167 c 0,53,54
 145 123 145 123 169.5 100.5 c 128,-1,55
 194 78 194 78 239 78 c 0,56,57
 270 78 270 78 296.5 89 c 128,-1,58
 323 100 323 100 341.5 119 c 128,-1,59
 360 138 360 138 370.5 164 c 128,-1,60
 381 190 381 190 381 220 c 0,61,62
 381 266 381 266 355 295.5 c 128,-1,63
 329 325 329 325 291 336 c 1,48,49
EndSplineSet
EndChar

StartChar: nine
Encoding: 57 57 26
Width: 544
Flags: W
LayerCount: 2
Back
Fore
SplineSet
341 714 m 0,0,1
 375 714 375 714 404 704 c 128,-1,2
 433 694 433 694 454.5 672 c 128,-1,3
 476 650 476 650 488.5 614 c 128,-1,4
 501 578 501 578 501 526 c 0,5,6
 501 449 501 449 483 380 c 128,-1,7
 465 311 465 311 436 252.5 c 128,-1,8
 407 194 407 194 369.5 147 c 128,-1,9
 332 100 332 100 292 67.5 c 128,-1,10
 252 35 252 35 214 17.5 c 128,-1,11
 176 0 176 0 145 0 c 1,12,-1
 81 42 l 1,13,14
 108 53 108 53 148.5 76 c 128,-1,15
 189 99 189 99 230.5 134.5 c 128,-1,16
 272 170 272 170 307.5 218.5 c 128,-1,17
 343 267 343 267 358 329 c 1,18,19
 347 316 347 316 330 306.5 c 128,-1,20
 313 297 313 297 295 291 c 128,-1,21
 277 285 277 285 261 282 c 128,-1,22
 245 279 245 279 236 279 c 0,23,24
 163 279 163 279 119.5 318.5 c 128,-1,25
 76 358 76 358 76 437 c 0,26,27
 76 493 76 493 96 543.5 c 128,-1,28
 116 594 116 594 151 632 c 128,-1,29
 186 670 186 670 235 692 c 128,-1,30
 284 714 284 714 341 714 c 0,0,1
261 369 m 0,31,32
 288 369 288 369 313 380 c 128,-1,33
 338 391 338 391 357.5 411 c 128,-1,34
 377 431 377 431 388.5 459.5 c 128,-1,35
 400 488 400 488 400 524 c 0,36,37
 400 574 400 574 374 597 c 128,-1,38
 348 620 348 620 317 620 c 0,39,40
 287 620 287 620 262 605.5 c 128,-1,41
 237 591 237 591 220 568 c 128,-1,42
 203 545 203 545 193.5 517 c 128,-1,43
 184 489 184 489 184 461 c 0,44,45
 184 444 184 444 188 428 c 128,-1,46
 192 412 192 412 201 398.5 c 128,-1,47
 210 385 210 385 224.5 377 c 128,-1,48
 239 369 239 369 261 369 c 0,31,32
EndSplineSet
EndChar

StartChar: colon
Encoding: 58 58 27
Width: 217
Flags: W
LayerCount: 2
Back
Fore
SplineSet
66 339 m 1,0,-1
 84 440 l 1,1,-1
 186 440 l 1,2,-1
 168 339 l 1,3,-1
 66 339 l 1,0,-1
6 0 m 1,4,-1
 24 101 l 1,5,-1
 127 101 l 1,6,-1
 109 0 l 1,7,-1
 6 0 l 1,4,-1
EndSplineSet
EndChar

StartChar: semicolon
Encoding: 59 59 28
Width: 229
Flags: W
LayerCount: 2
Back
Fore
SplineSet
66 339 m 1,0,-1
 84 440 l 1,1,-1
 197 440 l 1,2,-1
 180 339 l 1,3,-1
 66 339 l 1,0,-1
9 -109 m 1,4,-1
 -11 -96 l 1,5,-1
 34 -9 l 1,6,-1
 7 0 l 1,7,-1
 24 101 l 1,8,-1
 129 101 l 1,9,-1
 111 -1 l 1,10,-1
 9 -109 l 1,4,-1
EndSplineSet
EndChar

StartChar: less
Encoding: 60 60 29
Width: 405
Flags: W
LayerCount: 2
Back
Fore
SplineSet
187 78 m 1,0,-1
 31 284 l 1,1,-1
 260 490 l 1,2,-1
 378 490 l 1,3,-1
 149 284 l 1,4,-1
 305 78 l 1,5,-1
 187 78 l 1,0,-1
EndSplineSet
EndChar

StartChar: equal
Encoding: 61 61 30
Width: 473
Flags: W
LayerCount: 2
Back
Fore
SplineSet
70 315 m 1,0,-1
 85 397 l 1,1,-1
 418 397 l 1,2,-1
 403 315 l 1,3,-1
 70 315 l 1,0,-1
42 157 m 1,4,-1
 57 239 l 1,5,-1
 390 239 l 1,6,-1
 375 157 l 1,7,-1
 42 157 l 1,4,-1
EndSplineSet
EndChar

StartChar: greater
Encoding: 62 62 31
Width: 406
Flags: W
LayerCount: 2
Back
Fore
SplineSet
140 78 m 1,0,-1
 22 78 l 1,1,-1
 251 284 l 1,2,-1
 95 490 l 1,3,-1
 213 490 l 1,4,-1
 369 284 l 1,5,-1
 140 78 l 1,0,-1
EndSplineSet
EndChar

StartChar: question
Encoding: 63 63 32
Width: 421
Flags: W
LayerCount: 2
Back
Fore
SplineSet
139 200 m 1,0,1
 141 225 141 225 142 235 c 128,-1,2
 143 245 143 245 144 248 c 0,3,4
 150 282 150 282 165.5 310.5 c 128,-1,5
 181 339 181 339 200.5 365 c 128,-1,6
 220 391 220 391 241.5 415.5 c 128,-1,7
 263 440 263 440 280.5 466.5 c 128,-1,8
 298 493 298 493 309.5 521.5 c 128,-1,9
 321 550 321 550 321 584 c 0,10,11
 321 630 321 630 298 651.5 c 128,-1,12
 275 673 275 673 241 673 c 0,13,14
 221 673 221 673 202 666.5 c 128,-1,15
 183 660 183 660 166.5 650 c 128,-1,16
 150 640 150 640 137 628 c 128,-1,17
 124 616 124 616 115 606 c 1,18,-1
 104 682 l 1,19,20
 130 713 130 713 172 731.5 c 128,-1,21
 214 750 214 750 259 750 c 0,22,23
 301 750 301 750 331 735 c 128,-1,24
 361 720 361 720 380.5 696.5 c 128,-1,25
 400 673 400 673 409 644 c 128,-1,26
 418 615 418 615 418 587 c 0,27,28
 418 552 418 552 404 520 c 128,-1,29
 390 488 390 488 368.5 458 c 128,-1,30
 347 428 347 428 321 399.5 c 128,-1,31
 295 371 295 371 272 342 c 128,-1,32
 249 313 249 313 232 283.5 c 128,-1,33
 215 254 215 254 211 222 c 2,34,-1
 208 200 l 1,35,-1
 139 200 l 1,0,1
87 0 m 1,36,-1
 104 99 l 1,37,-1
 207 99 l 1,38,-1
 189 0 l 1,39,-1
 87 0 l 1,36,-1
EndSplineSet
EndChar

StartChar: at
Encoding: 64 64 33
Width: 667
Flags: W
LayerCount: 2
Back
Fore
SplineSet
515 379 m 1,0,1
 501 399 501 399 477 415.5 c 128,-1,2
 453 432 453 432 415 432 c 0,3,4
 369 432 369 432 319 404 c 128,-1,5
 269 376 269 376 228 331.5 c 128,-1,6
 187 287 187 287 160 232.5 c 128,-1,7
 133 178 133 178 133 124 c 0,8,9
 133 91 133 91 147.5 65.5 c 128,-1,10
 162 40 162 40 198 40 c 0,11,12
 218 40 218 40 241.5 47.5 c 128,-1,13
 265 55 265 55 289.5 70 c 128,-1,14
 314 85 314 85 337.5 106.5 c 128,-1,15
 361 128 361 128 381 156 c 1,16,17
 379 148 379 148 374.5 135 c 128,-1,18
 370 122 370 122 370 102 c 0,19,20
 370 81 370 81 378.5 61.5 c 128,-1,21
 387 42 387 42 410 42 c 0,22,23
 422 42 422 42 439 47.5 c 128,-1,24
 456 53 456 53 473.5 62 c 128,-1,25
 491 71 491 71 508 82.5 c 128,-1,26
 525 94 525 94 538 106 c 1,27,28
 509 63 509 63 472 27.5 c 128,-1,29
 435 -8 435 -8 392 -33.5 c 128,-1,30
 349 -59 349 -59 302.5 -73 c 128,-1,31
 256 -87 256 -87 209 -87 c 0,32,33
 121 -87 121 -87 73 -34 c 128,-1,34
 25 19 25 19 25 114 c 0,35,36
 25 174 25 174 41.5 230.5 c 128,-1,37
 58 287 58 287 87 335.5 c 128,-1,38
 116 384 116 384 155 424 c 128,-1,39
 194 464 194 464 240 493 c 128,-1,40
 286 522 286 522 336.5 537.5 c 128,-1,41
 387 553 387 553 438 553 c 0,42,43
 529 553 529 553 576.5 499 c 128,-1,44
 624 445 624 445 624 353 c 0,45,46
 624 312 624 312 613.5 266.5 c 128,-1,47
 603 221 603 221 582 182.5 c 128,-1,48
 561 144 561 144 529 119 c 128,-1,49
 497 94 497 94 454 94 c 0,50,51
 440 94 440 94 431 99.5 c 128,-1,52
 422 105 422 105 422 128 c 0,53,54
 422 150 422 150 429.5 174.5 c 128,-1,55
 437 199 437 199 450 229 c 128,-1,56
 463 259 463 259 480 295.5 c 128,-1,57
 497 332 497 332 515 379 c 1,0,1
412 371 m 0,58,59
 420 371 420 371 433 368 c 128,-1,60
 446 365 446 365 449 349 c 1,61,62
 435 309 435 309 409.5 266 c 128,-1,63
 384 223 384 223 353.5 187.5 c 128,-1,64
 323 152 323 152 292.5 129 c 128,-1,65
 262 106 262 106 240 106 c 0,66,67
 223 106 223 106 216 119 c 128,-1,68
 209 132 209 132 209 152 c 0,69,70
 209 196 209 196 230.5 235.5 c 128,-1,71
 252 275 252 275 283.5 305 c 128,-1,72
 315 335 315 335 350 353 c 128,-1,73
 385 371 385 371 412 371 c 0,58,59
EndSplineSet
EndChar

StartChar: A
Encoding: 65 65 34
Width: 581
Flags: W
LayerCount: 2
Back
Fore
SplineSet
402 0 m 1,0,-1
 379 182 l 1,1,-1
 160 182 l 1,2,-1
 72 0 l 1,3,-1
 -39 0 l 1,4,-1
 309 700 l 1,5,-1
 412 700 l 1,6,-1
 514 0 l 1,7,-1
 402 0 l 1,0,-1
333 543 m 1,8,-1
 213 281 l 1,9,-1
 360 281 l 1,10,-1
 333 543 l 1,8,-1
EndSplineSet
EndChar

StartChar: B
Encoding: 66 66 35
Width: 582
Flags: W
LayerCount: 2
Back
Fore
SplineSet
137 0 m 1,0,-1
 27 0 l 1,1,-1
 150 700 l 1,2,-1
 313 700 l 2,3,4
 361 700 361 700 400.5 695 c 128,-1,5
 440 690 440 690 467.5 675 c 128,-1,6
 495 660 495 660 510.5 633.5 c 128,-1,7
 526 607 526 607 526 564 c 0,8,9
 526 529 526 529 520.5 502 c 128,-1,10
 515 475 515 475 504 453 c 128,-1,11
 493 431 493 431 477.5 411.5 c 128,-1,12
 462 392 462 392 442 373 c 1,13,14
 485 353 485 353 505 320 c 128,-1,15
 525 287 525 287 525 241 c 0,16,17
 525 167 525 167 501 120 c 128,-1,18
 477 73 477 73 438.5 46.5 c 128,-1,19
 400 20 400 20 353.5 10 c 128,-1,20
 307 0 307 0 262 0 c 2,21,-1
 137 0 l 1,0,-1
240 607 m 1,22,-1
 206 412 l 1,23,-1
 316 412 l 2,24,25
 334 412 334 412 352.5 416 c 128,-1,26
 371 420 371 420 386.5 433 c 128,-1,27
 402 446 402 446 411.5 471.5 c 128,-1,28
 421 497 421 497 421 540 c 0,29,30
 421 562 421 562 414.5 575 c 128,-1,31
 408 588 408 588 397 595 c 128,-1,32
 386 602 386 602 370 604.5 c 128,-1,33
 354 607 354 607 336 607 c 2,34,-1
 240 607 l 1,22,-1
190 321 m 1,35,-1
 150 94 l 1,36,-1
 255 94 l 2,37,38
 292 94 292 94 322 99 c 128,-1,39
 352 104 352 104 372 119 c 128,-1,40
 392 134 392 134 403 161 c 128,-1,41
 414 188 414 188 414 232 c 0,42,43
 414 259 414 259 406 276 c 128,-1,44
 398 293 398 293 384.5 303 c 128,-1,45
 371 313 371 313 353 317 c 128,-1,46
 335 321 335 321 314 321 c 2,47,-1
 190 321 l 1,35,-1
EndSplineSet
EndChar

StartChar: C
Encoding: 67 67 36
Width: 576
Flags: W
LayerCount: 2
Back
Fore
SplineSet
301 -14 m 0,0,1
 242 -14 242 -14 195 6.5 c 128,-1,2
 148 27 148 27 114.5 65 c 128,-1,3
 81 103 81 103 63 157 c 128,-1,4
 45 211 45 211 45 278 c 0,5,6
 45 374 45 374 75.5 454.5 c 128,-1,7
 106 535 106 535 158.5 592.5 c 128,-1,8
 211 650 211 650 281 682 c 128,-1,9
 351 714 351 714 429 714 c 0,10,11
 478 714 478 714 523.5 702.5 c 128,-1,12
 569 691 569 691 600 673 c 1,13,-1
 571 573 l 1,14,15
 535 589 535 589 498 602 c 128,-1,16
 461 615 461 615 412 615 c 0,17,18
 353 615 353 615 306.5 588 c 128,-1,19
 260 561 260 561 228 515 c 128,-1,20
 196 469 196 469 179 409.5 c 128,-1,21
 162 350 162 350 162 286 c 0,22,23
 162 243 162 243 171.5 206 c 128,-1,24
 181 169 181 169 200.5 142 c 128,-1,25
 220 115 220 115 249.5 100 c 128,-1,26
 279 85 279 85 319 85 c 0,27,28
 368 85 368 85 410 98 c 128,-1,29
 452 111 452 111 492 126 c 1,30,-1
 485 26 l 1,31,32
 448 9 448 9 399 -2.5 c 128,-1,33
 350 -14 350 -14 301 -14 c 0,0,1
EndSplineSet
EndChar

StartChar: D
Encoding: 68 68 37
Width: 681
Flags: W
LayerCount: 2
Back
Fore
SplineSet
132 0 m 1,0,-1
 27 0 l 1,1,-1
 150 700 l 1,2,-1
 385 700 l 2,3,4
 443 700 443 700 491 681 c 128,-1,5
 539 662 539 662 572.5 626 c 128,-1,6
 606 590 606 590 624.5 538 c 128,-1,7
 643 486 643 486 643 420 c 0,8,9
 643 324 643 324 613 246 c 128,-1,10
 583 168 583 168 531 113.5 c 128,-1,11
 479 59 479 59 410 29.5 c 128,-1,12
 341 0 341 0 262 0 c 2,13,-1
 132 0 l 1,0,-1
239 601 m 1,14,-1
 151 99 l 1,15,-1
 279 99 l 2,16,17
 339 99 339 99 385 123.5 c 128,-1,18
 431 148 431 148 462.5 190.5 c 128,-1,19
 494 233 494 233 510 290 c 128,-1,20
 526 347 526 347 526 412 c 0,21,22
 526 498 526 498 487 549.5 c 128,-1,23
 448 601 448 601 368 601 c 2,24,-1
 239 601 l 1,14,-1
EndSplineSet
EndChar

StartChar: E
Encoding: 69 69 38
Width: 528
Flags: W
LayerCount: 2
Back
Fore
SplineSet
137 0 m 1,0,-1
 27 0 l 1,1,-1
 150 700 l 1,2,-1
 548 700 l 1,3,-1
 531 601 l 1,4,-1
 241 601 l 1,5,-1
 208 415 l 1,6,-1
 435 415 l 1,7,-1
 417 316 l 1,8,-1
 191 316 l 1,9,-1
 153 99 l 1,10,-1
 451 99 l 1,11,-1
 434 0 l 1,12,-1
 137 0 l 1,0,-1
EndSplineSet
EndChar

StartChar: F
Encoding: 70 70 39
Width: 495
Flags: W
LayerCount: 2
Back
Fore
SplineSet
239 601 m 1,0,-1
 206 415 l 1,1,-1
 423 415 l 1,2,-1
 405 316 l 1,3,-1
 189 316 l 1,4,-1
 133 0 l 1,5,-1
 27 0 l 1,6,-1
 150 700 l 1,7,-1
 537 700 l 1,8,-1
 520 601 l 1,9,-1
 239 601 l 1,0,-1
EndSplineSet
EndChar

StartChar: G
Encoding: 71 71 40
Width: 630
Flags: W
LayerCount: 2
Back
Fore
SplineSet
297 -14 m 0,0,1
 240 -14 240 -14 193.5 6.5 c 128,-1,2
 147 27 147 27 114 65.5 c 128,-1,3
 81 104 81 104 63 158 c 128,-1,4
 45 212 45 212 45 279 c 0,5,6
 45 375 45 375 75.5 455 c 128,-1,7
 106 535 106 535 158.5 592.5 c 128,-1,8
 211 650 211 650 281 682 c 128,-1,9
 351 714 351 714 431 714 c 0,10,11
 454 714 454 714 479.5 711 c 128,-1,12
 505 708 505 708 529.5 702.5 c 128,-1,13
 554 697 554 697 575.5 690 c 128,-1,14
 597 683 597 683 613 674 c 1,15,-1
 585 577 l 1,16,17
 550 593 550 593 504.5 604 c 128,-1,18
 459 615 459 615 417 615 c 0,19,20
 353 615 353 615 305.5 587.5 c 128,-1,21
 258 560 258 560 226 514 c 128,-1,22
 194 468 194 468 178 409.5 c 128,-1,23
 162 351 162 351 162 288 c 0,24,25
 162 244 162 244 172 206.5 c 128,-1,26
 182 169 182 169 203 142 c 128,-1,27
 224 115 224 115 256 100 c 128,-1,28
 288 85 288 85 331 85 c 0,29,30
 351 85 351 85 376 88.5 c 128,-1,31
 401 92 401 92 426 101 c 1,32,-1
 454 258 l 1,33,-1
 376 258 l 1,34,-1
 392 351 l 1,35,-1
 577 351 l 1,36,-1
 560 255 l 1,37,-1
 522 39 l 1,38,39
 502 28 502 28 474.5 18.5 c 128,-1,40
 447 9 447 9 416.5 1.5 c 128,-1,41
 386 -6 386 -6 355 -10 c 128,-1,42
 324 -14 324 -14 297 -14 c 0,0,1
EndSplineSet
EndChar

StartChar: H
Encoding: 72 72 41
Width: 697
Flags: W
LayerCount: 2
Back
Fore
SplineSet
448 0 m 1,0,-1
 504 315 l 1,1,-1
 189 315 l 1,2,-1
 133 0 l 1,3,-1
 27 0 l 1,4,-1
 150 700 l 1,5,-1
 256 700 l 1,6,-1
 206 417 l 1,7,-1
 522 417 l 1,8,-1
 572 700 l 1,9,-1
 678 700 l 1,10,-1
 554 0 l 1,11,-1
 448 0 l 1,0,-1
EndSplineSet
EndChar

StartChar: I
Encoding: 73 73 42
Width: 265
Flags: W
LayerCount: 2
Back
Fore
SplineSet
27 0 m 1,0,-1
 150 700 l 1,1,-1
 257 700 l 1,2,-1
 134 0 l 1,3,-1
 27 0 l 1,0,-1
EndSplineSet
EndChar

StartChar: J
Encoding: 74 74 43
Width: 264
Flags: W
LayerCount: 2
Back
Fore
SplineSet
-74 -172 m 1,0,-1
 -71 -102 l 1,1,-1
 -53 -102 l 2,2,3
 -18 -102 -18 -102 -2.5 -78 c 128,-1,4
 13 -54 13 -54 23 -1 c 2,5,-1
 147 700 l 1,6,-1
 253 700 l 1,7,-1
 125 -29 l 2,8,9
 112 -100 112 -100 67.5 -136 c 128,-1,10
 23 -172 23 -172 -47 -172 c 2,11,-1
 -74 -172 l 1,0,-1
EndSplineSet
EndChar

StartChar: K
Encoding: 75 75 44
Width: 569
Flags: W
LayerCount: 2
Back
Fore
SplineSet
384 0 m 1,0,-1
 225 371 l 1,1,-1
 507 700 l 1,2,-1
 625 700 l 1,3,-1
 343 371 l 1,4,-1
 502 0 l 1,5,-1
 384 0 l 1,0,-1
27 0 m 1,6,-1
 150 700 l 1,7,-1
 257 700 l 1,8,-1
 134 0 l 1,9,-1
 27 0 l 1,6,-1
EndSplineSet
EndChar

StartChar: L
Encoding: 76 76 45
Width: 475
Flags: W
LayerCount: 2
Back
Fore
SplineSet
27 0 m 1,0,-1
 150 700 l 1,1,-1
 256 700 l 1,2,-1
 151 99 l 1,3,-1
 419 99 l 1,4,-1
 401 0 l 1,5,-1
 27 0 l 1,0,-1
EndSplineSet
EndChar

StartChar: M
Encoding: 77 77 46
Width: 772
Flags: W
LayerCount: 2
Back
Fore
SplineSet
547 0 m 1,0,-1
 582 497 l 1,1,-1
 354 148 l 1,2,-1
 247 497 l 1,3,-1
 107 0 l 1,4,-1
 -4 0 l 1,5,-1
 203 700 l 1,6,-1
 291 700 l 1,7,-1
 389 351 l 1,8,-1
 610 700 l 1,9,-1
 698 700 l 1,10,-1
 659 0 l 1,11,-1
 547 0 l 1,0,-1
EndSplineSet
EndChar

StartChar: N
Encoding: 78 78 47
Width: 663
Flags: W
LayerCount: 2
Back
Fore
SplineSet
434 0 m 1,0,-1
 227 528 l 1,1,-1
 133 0 l 1,2,-1
 27 0 l 1,3,-1
 150 700 l 1,4,-1
 258 700 l 1,5,-1
 451 201 l 1,6,-1
 539 700 l 1,7,-1
 646 700 l 1,8,-1
 522 0 l 1,9,-1
 434 0 l 1,0,-1
EndSplineSet
EndChar

StartChar: O
Encoding: 79 79 48
Width: 721
Flags: W
LayerCount: 2
Back
Fore
SplineSet
299 -14 m 0,0,1
 241 -14 241 -14 194 6.5 c 128,-1,2
 147 27 147 27 114 65.5 c 128,-1,3
 81 104 81 104 63 157.5 c 128,-1,4
 45 211 45 211 45 277 c 0,5,6
 45 373 45 373 75.5 453.5 c 128,-1,7
 106 534 106 534 158 592 c 128,-1,8
 210 650 210 650 280 682 c 128,-1,9
 350 714 350 714 428 714 c 0,10,11
 486 714 486 714 533 693.5 c 128,-1,12
 580 673 580 673 613 634.5 c 128,-1,13
 646 596 646 596 664 542.5 c 128,-1,14
 682 489 682 489 682 423 c 0,15,16
 682 327 682 327 651.5 246.5 c 128,-1,17
 621 166 621 166 568.5 108 c 128,-1,18
 516 50 516 50 446.5 18 c 128,-1,19
 377 -14 377 -14 299 -14 c 0,0,1
411 615 m 0,20,21
 352 615 352 615 306 588 c 128,-1,22
 260 561 260 561 228 515 c 128,-1,23
 196 469 196 469 179 409.5 c 128,-1,24
 162 350 162 350 162 286 c 0,25,26
 162 243 162 243 171.5 206.5 c 128,-1,27
 181 170 181 170 200 143 c 128,-1,28
 219 116 219 116 248 100.5 c 128,-1,29
 277 85 277 85 317 85 c 0,30,31
 375 85 375 85 421.5 112 c 128,-1,32
 468 139 468 139 499.5 185 c 128,-1,33
 531 231 531 231 548 290 c 128,-1,34
 565 349 565 349 565 414 c 0,35,36
 565 457 565 457 555.5 493.5 c 128,-1,37
 546 530 546 530 527 557 c 128,-1,38
 508 584 508 584 479 599.5 c 128,-1,39
 450 615 450 615 411 615 c 0,20,21
EndSplineSet
EndChar

StartChar: P
Encoding: 80 80 49
Width: 555
Flags: W
LayerCount: 2
Back
Fore
SplineSet
177 240 m 1,0,-1
 135 0 l 1,1,-1
 27 0 l 1,2,-1
 150 700 l 1,3,-1
 337 700 l 2,4,5
 388 700 388 700 429 694 c 128,-1,6
 470 688 470 688 499 670.5 c 128,-1,7
 528 653 528 653 543.5 621.5 c 128,-1,8
 559 590 559 590 559 538 c 0,9,10
 559 451 559 451 532.5 393.5 c 128,-1,11
 506 336 506 336 466 302 c 128,-1,12
 426 268 426 268 380.5 254 c 128,-1,13
 335 240 335 240 297 240 c 2,14,-1
 177 240 l 1,0,-1
243 607 m 1,15,-1
 195 337 l 1,16,-1
 299 337 l 2,17,18
 342 337 342 337 370.5 350.5 c 128,-1,19
 399 364 399 364 416.5 388 c 128,-1,20
 434 412 434 412 441 445 c 128,-1,21
 448 478 448 478 448 517 c 0,22,23
 448 565 448 565 423 586 c 128,-1,24
 398 607 398 607 337 607 c 2,25,-1
 243 607 l 1,15,-1
EndSplineSet
EndChar

StartChar: Q
Encoding: 81 81 50
Width: 721
Flags: W
LayerCount: 2
Back
Fore
SplineSet
548 -1 m 1,0,-1
 496 54 l 1,1,2
 451 19 451 19 401.5 2.5 c 128,-1,3
 352 -14 352 -14 299 -14 c 0,4,5
 241 -14 241 -14 194 6.5 c 128,-1,6
 147 27 147 27 114 65.5 c 128,-1,7
 81 104 81 104 63 157.5 c 128,-1,8
 45 211 45 211 45 277 c 0,9,10
 45 373 45 373 75.5 453.5 c 128,-1,11
 106 534 106 534 158 592 c 128,-1,12
 210 650 210 650 280 682 c 128,-1,13
 350 714 350 714 428 714 c 0,14,15
 486 714 486 714 533 693.5 c 128,-1,16
 580 673 580 673 613 634.5 c 128,-1,17
 646 596 646 596 664 542.5 c 128,-1,18
 682 489 682 489 682 423 c 0,19,20
 682 338 682 338 655 265 c 128,-1,21
 628 192 628 192 574 118 c 1,22,-1
 621 68 l 1,23,-1
 548 -1 l 1,0,-1
411 615 m 0,24,25
 352 615 352 615 305.5 588 c 128,-1,26
 259 561 259 561 227 515 c 128,-1,27
 195 469 195 469 178.5 409.5 c 128,-1,28
 162 350 162 350 162 286 c 0,29,30
 162 242 162 242 171.5 205.5 c 128,-1,31
 181 169 181 169 200 142 c 128,-1,32
 219 115 219 115 248 100 c 128,-1,33
 277 85 277 85 317 85 c 0,34,35
 344 85 344 85 372 92 c 128,-1,36
 400 99 400 99 426 119 c 1,37,-1
 360 198 l 1,38,-1
 432 269 l 1,39,-1
 501 183 l 1,40,41
 514 206 514 206 526 230 c 128,-1,42
 538 254 538 254 547.5 281 c 128,-1,43
 557 308 557 308 562.5 340 c 128,-1,44
 568 372 568 372 568 413 c 0,45,46
 568 456 568 456 558.5 493 c 128,-1,47
 549 530 549 530 529.5 557 c 128,-1,48
 510 584 510 584 480.5 599.5 c 128,-1,49
 451 615 451 615 411 615 c 0,24,25
EndSplineSet
EndChar

StartChar: R
Encoding: 82 82 51
Width: 582
Flags: W
LayerCount: 2
Back
Fore
SplineSet
389 0 m 1,0,-1
 303 269 l 1,1,-1
 181 269 l 1,2,-1
 134 0 l 1,3,-1
 27 0 l 1,4,-1
 150 700 l 1,5,-1
 373 700 l 2,6,7
 413 700 413 700 447.5 692 c 128,-1,8
 482 684 482 684 506.5 665 c 128,-1,9
 531 646 531 646 545 616 c 128,-1,10
 559 586 559 586 559 541 c 256,11,12
 559 496 559 496 547 459 c 128,-1,13
 535 422 535 422 515 391.5 c 128,-1,14
 495 361 495 361 467.5 337.5 c 128,-1,15
 440 314 440 314 409 297 c 1,16,-1
 501 0 l 1,17,-1
 389 0 l 1,0,-1
242 613 m 1,18,-1
 199 370 l 1,19,-1
 300 370 l 2,20,21
 372 370 372 370 409 406 c 128,-1,22
 446 442 446 442 446 523 c 0,23,24
 446 565 446 565 422 589 c 128,-1,25
 398 613 398 613 339 613 c 2,26,-1
 242 613 l 1,18,-1
EndSplineSet
EndChar

StartChar: S
Encoding: 83 83 52
Width: 549
Flags: W
LayerCount: 2
Back
Fore
SplineSet
206 -14 m 0,0,1
 137 -14 137 -14 84.5 -0.5 c 128,-1,2
 32 13 32 13 6 33 c 1,3,-1
 41 155 l 1,4,5
 65 125 65 125 112.5 105 c 128,-1,6
 160 85 160 85 226 85 c 0,7,8
 289 85 289 85 328.5 113.5 c 128,-1,9
 368 142 368 142 368 196 c 0,10,11
 368 218 368 218 358 234.5 c 128,-1,12
 348 251 348 251 330 264.5 c 128,-1,13
 312 278 312 278 288.5 290 c 128,-1,14
 265 302 265 302 238 315 c 0,15,16
 207 330 207 330 178 345 c 128,-1,17
 149 360 149 360 127 379 c 128,-1,18
 105 398 105 398 91.5 422.5 c 128,-1,19
 78 447 78 447 78 482 c 0,20,21
 78 524 78 524 93.5 565.5 c 128,-1,22
 109 607 109 607 141 640 c 128,-1,23
 173 673 173 673 223.5 693.5 c 128,-1,24
 274 714 274 714 344 714 c 0,25,26
 374 714 374 714 403.5 710 c 128,-1,27
 433 706 433 706 458 699 c 128,-1,28
 483 692 483 692 503 683 c 128,-1,29
 523 674 523 674 535 664 c 1,30,-1
 504 555 l 1,31,32
 457 587 457 587 416 601.5 c 128,-1,33
 375 616 375 616 332 616 c 0,34,35
 308 616 308 616 283 609 c 128,-1,36
 258 602 258 602 238 588.5 c 128,-1,37
 218 575 218 575 205 555 c 128,-1,38
 192 535 192 535 192 509 c 0,39,40
 192 489 192 489 201 475 c 128,-1,41
 210 461 210 461 225 450 c 128,-1,42
 240 439 240 439 260 429.5 c 128,-1,43
 280 420 280 420 303 411 c 0,44,45
 337 396 337 396 370 380.5 c 128,-1,46
 403 365 403 365 429.5 343.5 c 128,-1,47
 456 322 456 322 472.5 292 c 128,-1,48
 489 262 489 262 489 219 c 0,49,50
 489 171 489 171 475.5 128.5 c 128,-1,51
 462 86 462 86 429.5 54.5 c 128,-1,52
 397 23 397 23 342.5 4.5 c 128,-1,53
 288 -14 288 -14 206 -14 c 0,0,1
EndSplineSet
EndChar

StartChar: T
Encoding: 84 84 53
Width: 544
Flags: W
LayerCount: 2
Back
Fore
SplineSet
372 601 m 1,0,-1
 267 0 l 1,1,-1
 160 0 l 1,2,-1
 266 601 l 1,3,-1
 86 601 l 1,4,-1
 104 700 l 1,5,-1
 570 700 l 1,6,-1
 552 601 l 1,7,-1
 372 601 l 1,0,-1
EndSplineSet
EndChar

StartChar: U
Encoding: 85 85 54
Width: 677
Flags: W
LayerCount: 2
Back
Fore
SplineSet
279 -14 m 0,0,1
 169 -14 169 -14 116.5 44.5 c 128,-1,2
 64 103 64 103 64 205 c 0,3,4
 64 248 64 248 73 298 c 2,5,-1
 144 700 l 1,6,-1
 250 700 l 1,7,-1
 187 343 l 2,8,9
 182 314 182 314 178.5 285.5 c 128,-1,10
 175 257 175 257 175 231 c 0,11,12
 175 199 175 199 181 172.5 c 128,-1,13
 187 146 187 146 201 126.5 c 128,-1,14
 215 107 215 107 238 96 c 128,-1,15
 261 85 261 85 296 85 c 0,16,17
 345 85 345 85 379 106.5 c 128,-1,18
 413 128 413 128 436 163.5 c 128,-1,19
 459 199 459 199 473 245.5 c 128,-1,20
 487 292 487 292 496 343 c 2,21,-1
 559 700 l 1,22,-1
 666 700 l 1,23,-1
 595 298 l 2,24,25
 582 226 582 226 556 168.5 c 128,-1,26
 530 111 530 111 490.5 70.5 c 128,-1,27
 451 30 451 30 398 8 c 128,-1,28
 345 -14 345 -14 279 -14 c 0,0,1
EndSplineSet
EndChar

StartChar: V
Encoding: 86 86 55
Width: 609
Flags: W
LayerCount: 2
Back
Fore
SplineSet
305 0 m 1,0,-1
 180 0 l 1,1,-1
 73 700 l 1,2,-1
 184 700 l 1,3,-1
 265 130 l 1,4,-1
 546 700 l 1,5,-1
 657 700 l 1,6,-1
 305 0 l 1,0,-1
EndSplineSet
EndChar

StartChar: W
Encoding: 87 87 56
Width: 904
Flags: W
LayerCount: 2
Back
Fore
SplineSet
650 0 m 1,0,-1
 549 0 l 1,1,-1
 497 537 l 1,2,-1
 253 0 l 1,3,-1
 148 0 l 1,4,-1
 90 700 l 1,5,-1
 202 700 l 1,6,-1
 236 147 l 1,7,-1
 484 691 l 1,8,-1
 565 691 l 1,9,-1
 623 152 l 1,10,-1
 851 700 l 1,11,-1
 962 700 l 1,12,-1
 650 0 l 1,0,-1
EndSplineSet
EndChar

StartChar: X
Encoding: 88 88 57
Width: 580
Flags: W
LayerCount: 2
Back
Fore
SplineSet
392 0 m 1,0,-1
 279 276 l 1,1,-1
 78 0 l 1,2,-1
 -43 0 l 1,3,-1
 237 349 l 1,4,-1
 88 700 l 1,5,-1
 211 700 l 1,6,-1
 315 436 l 1,7,-1
 507 700 l 1,8,-1
 626 700 l 1,9,-1
 355 362 l 1,10,-1
 512 0 l 1,11,-1
 392 0 l 1,0,-1
EndSplineSet
EndChar

StartChar: Y
Encoding: 89 89 58
Width: 564
Flags: W
LayerCount: 2
Back
Fore
SplineSet
332 319 m 1,0,-1
 276 0 l 1,1,-1
 168 0 l 1,2,-1
 224 319 l 1,3,-1
 75 700 l 1,4,-1
 188 700 l 1,5,-1
 295 414 l 1,6,-1
 502 700 l 1,7,-1
 615 700 l 1,8,-1
 332 319 l 1,0,-1
EndSplineSet
EndChar

StartChar: Z
Encoding: 90 90 59
Width: 514
Flags: W
LayerCount: 2
Back
Fore
SplineSet
152 99 m 1,0,-1
 416 99 l 1,1,-1
 399 0 l 1,2,-1
 -40 0 l 1,3,-1
 370 601 l 1,4,-1
 107 601 l 1,5,-1
 124 700 l 1,6,-1
 563 700 l 1,7,-1
 152 99 l 1,0,-1
EndSplineSet
EndChar

StartChar: bracketleft
Encoding: 91 91 60
Width: 313
Flags: W
LayerCount: 2
Back
Fore
SplineSet
88 -135 m 1,0,-1
 -6 -135 l 1,1,-1
 150 750 l 1,2,-1
 381 750 l 1,3,-1
 367 668 l 1,4,-1
 229 668 l 1,5,-1
 102 -53 l 1,6,-1
 240 -53 l 1,7,-1
 225 -135 l 1,8,-1
 88 -135 l 1,0,-1
EndSplineSet
EndChar

StartChar: backslash
Encoding: 92 92 61
Width: 501
Flags: W
LayerCount: 2
Back
Fore
SplineSet
298 -85 m 1,0,-1
 104 700 l 1,1,-1
 214 700 l 1,2,-1
 408 -85 l 1,3,-1
 298 -85 l 1,0,-1
EndSplineSet
EndChar

StartChar: bracketright
Encoding: 93 93 62
Width: 316
Flags: W
LayerCount: 2
Back
Fore
SplineSet
323 750 m 1,0,-1
 167 -135 l 1,1,-1
 73 -135 l 1,2,-1
 -64 -135 l 1,3,-1
 -50 -53 l 1,4,-1
 88 -53 l 1,5,-1
 215 668 l 1,6,-1
 77 668 l 1,7,-1
 92 750 l 1,8,-1
 323 750 l 1,0,-1
EndSplineSet
EndChar

StartChar: asciicircum
Encoding: 94 94 63
Width: 470
Flags: W
LayerCount: 2
Back
Fore
SplineSet
343 639 m 1,0,-1
 120 424 l 1,1,-1
 141 544 l 1,2,-1
 364 759 l 1,3,-1
 512 544 l 1,4,-1
 491 424 l 1,5,-1
 343 639 l 1,0,-1
EndSplineSet
EndChar

StartChar: underscore
Encoding: 95 95 64
Width: 520
Flags: W
LayerCount: 2
Back
Fore
SplineSet
-72 -125 m 1,0,-1
 -56 -36 l 1,1,-1
 448 -36 l 1,2,-1
 432 -125 l 1,3,-1
 -72 -125 l 1,0,-1
EndSplineSet
EndChar

StartChar: grave
Encoding: 96 96 65
Width: 279
Flags: W
LayerCount: 2
Back
Fore
SplineSet
169 655 m 1,0,-1
 184 738 l 1,1,-1
 335 645 l 1,2,-1
 326 592 l 1,3,-1
 169 655 l 1,0,-1
EndSplineSet
EndChar

StartChar: a
Encoding: 97 97 66
Width: 554
Flags: W
LayerCount: 2
Back
Fore
SplineSet
448 148 m 2,0,1
 446 136 446 136 445 126 c 128,-1,2
 444 116 444 116 444 110 c 0,3,4
 444 87 444 87 454.5 79.5 c 128,-1,5
 465 72 465 72 492 72 c 1,6,-1
 466 -10 l 1,7,8
 439 -10 439 -10 418.5 -8.5 c 128,-1,9
 398 -7 398 -7 383 0 c 128,-1,10
 368 7 368 7 358 20.5 c 128,-1,11
 348 34 348 34 341 57 c 1,12,13
 314 27 314 27 275 8.5 c 128,-1,14
 236 -10 236 -10 192 -10 c 0,15,16
 152 -10 152 -10 120.5 6 c 128,-1,17
 89 22 89 22 66.5 50 c 128,-1,18
 44 78 44 78 32 116 c 128,-1,19
 20 154 20 154 20 199 c 0,20,21
 20 256 20 256 39.5 311 c 128,-1,22
 59 366 59 366 94 408.5 c 128,-1,23
 129 451 129 451 178.5 477 c 128,-1,24
 228 503 228 503 288 503 c 0,25,26
 322 503 322 503 350 492 c 128,-1,27
 378 481 378 481 398 451 c 1,28,-1
 415 493 l 1,29,-1
 507 493 l 1,30,-1
 448 148 l 2,0,1
278 415 m 0,31,32
 245 415 245 415 217 398.5 c 128,-1,33
 189 382 189 382 169 353.5 c 128,-1,34
 149 325 149 325 137.5 287.5 c 128,-1,35
 126 250 126 250 126 208 c 0,36,37
 126 180 126 180 131.5 156.5 c 128,-1,38
 137 133 137 133 149 115.5 c 128,-1,39
 161 98 161 98 179.5 88 c 128,-1,40
 198 78 198 78 224 78 c 0,41,42
 257 78 257 78 284.5 93.5 c 128,-1,43
 312 109 312 109 332 136.5 c 128,-1,44
 352 164 352 164 363 201.5 c 128,-1,45
 374 239 374 239 374 282 c 0,46,47
 374 350 374 350 348.5 382.5 c 128,-1,48
 323 415 323 415 278 415 c 0,31,32
EndSplineSet
Substitution2: "'smcp' Lowercase to Small Capitals in Latin lookup 1 subtable" A.sc
Substitution2: "'aalt' Access All Alternates in Latin lookup 0 subtable" A.sc
EndChar

StartChar: b
Encoding: 98 98 67
Width: 534
Flags: W
LayerCount: 2
Back
Fore
SplineSet
223 -10 m 0,0,1
 153 -10 153 -10 116 50 c 1,2,-1
 102 0 l 1,3,-1
 8 0 l 1,4,-1
 140 750 l 1,5,-1
 243 750 l 1,6,-1
 190 450 l 1,7,8
 219 481 219 481 249.5 492 c 128,-1,9
 280 503 280 503 314 503 c 0,10,11
 358 503 358 503 390.5 486.5 c 128,-1,12
 423 470 423 470 445 441.5 c 128,-1,13
 467 413 467 413 477.5 375.5 c 128,-1,14
 488 338 488 338 488 296 c 0,15,16
 488 236 488 236 468.5 180.5 c 128,-1,17
 449 125 449 125 414 82.5 c 128,-1,18
 379 40 379 40 330 15 c 128,-1,19
 281 -10 281 -10 223 -10 c 0,0,1
291 415 m 0,20,21
 261 415 261 415 234 401.5 c 128,-1,22
 207 388 207 388 187 360.5 c 128,-1,23
 167 333 167 333 155 292 c 128,-1,24
 143 251 143 251 143 196 c 0,25,26
 143 137 143 137 166 107.5 c 128,-1,27
 189 78 189 78 231 78 c 0,28,29
 264 78 264 78 292 95 c 128,-1,30
 320 112 320 112 340 141 c 128,-1,31
 360 170 360 170 371 207.5 c 128,-1,32
 382 245 382 245 382 287 c 0,33,34
 382 344 382 344 359 379.5 c 128,-1,35
 336 415 336 415 291 415 c 0,20,21
EndSplineSet
Substitution2: "'smcp' Lowercase to Small Capitals in Latin lookup 1 subtable" B.sc
Substitution2: "'aalt' Access All Alternates in Latin lookup 0 subtable" B.sc
EndChar

StartChar: c
Encoding: 99 99 68
Width: 423
Flags: W
LayerCount: 2
Back
Fore
SplineSet
200 -10 m 0,0,1
 154 -10 154 -10 120.5 6.5 c 128,-1,2
 87 23 87 23 65 51 c 128,-1,3
 43 79 43 79 32 116.5 c 128,-1,4
 21 154 21 154 21 196 c 0,5,6
 21 256 21 256 39 311 c 128,-1,7
 57 366 57 366 91.5 409 c 128,-1,8
 126 452 126 452 176 477.5 c 128,-1,9
 226 503 226 503 290 503 c 0,10,11
 343 503 343 503 372 493.5 c 128,-1,12
 401 484 401 484 420 471 c 1,13,-1
 394 381 l 1,14,15
 369 398 369 398 342.5 406.5 c 128,-1,16
 316 415 316 415 284 415 c 0,17,18
 246 415 246 415 217 399 c 128,-1,19
 188 383 188 383 167.5 354.5 c 128,-1,20
 147 326 147 326 136.5 287 c 128,-1,21
 126 248 126 248 126 203 c 0,22,23
 126 146 126 146 151 111.5 c 128,-1,24
 176 77 176 77 224 77 c 0,25,26
 256 77 256 77 286 85.5 c 128,-1,27
 316 94 316 94 346 111 c 1,28,-1
 342 27 l 1,29,30
 318 13 318 13 286 1.5 c 128,-1,31
 254 -10 254 -10 200 -10 c 0,0,1
EndSplineSet
Substitution2: "'smcp' Lowercase to Small Capitals in Latin lookup 1 subtable" C.sc
Substitution2: "'aalt' Access All Alternates in Latin lookup 0 subtable" C.sc
EndChar

StartChar: d
Encoding: 100 100 69
Width: 534
Flags: W
LayerCount: 2
Back
Fore
SplineSet
318 0 m 1,0,-1
 322 50 l 1,1,2
 262 -10 262 -10 194 -10 c 0,3,4
 151 -10 151 -10 118.5 6 c 128,-1,5
 86 22 86 22 64 49.5 c 128,-1,6
 42 77 42 77 31 114.5 c 128,-1,7
 20 152 20 152 20 196 c 0,8,9
 20 254 20 254 39 309.5 c 128,-1,10
 58 365 58 365 93 408 c 128,-1,11
 128 451 128 451 176.5 477 c 128,-1,12
 225 503 225 503 285 503 c 0,13,14
 318 503 318 503 345 492 c 128,-1,15
 372 481 372 481 390 451 c 1,16,-1
 443 750 l 1,17,-1
 545 750 l 1,18,-1
 413 0 l 1,19,-1
 318 0 l 1,0,-1
276 415 m 0,20,21
 243 415 243 415 215 398 c 128,-1,22
 187 381 187 381 167.5 352.5 c 128,-1,23
 148 324 148 324 137 286 c 128,-1,24
 126 248 126 248 126 206 c 0,25,26
 126 151 126 151 149 114.5 c 128,-1,27
 172 78 172 78 217 78 c 0,28,29
 247 78 247 78 274 90.5 c 128,-1,30
 301 103 301 103 321.5 129 c 128,-1,31
 342 155 342 155 354 196 c 128,-1,32
 366 237 366 237 366 293 c 0,33,34
 366 352 366 352 342 383.5 c 128,-1,35
 318 415 318 415 276 415 c 0,20,21
EndSplineSet
Substitution2: "'smcp' Lowercase to Small Capitals in Latin lookup 1 subtable" D.sc
Substitution2: "'aalt' Access All Alternates in Latin lookup 0 subtable" D.sc
EndChar

StartChar: e
Encoding: 101 101 70
Width: 469
Flags: W
LayerCount: 2
Back
Fore
SplineSet
444 371 m 0,0,1
 444 337 444 337 430 307 c 128,-1,2
 416 277 416 277 387.5 254.5 c 128,-1,3
 359 232 359 232 315.5 219 c 128,-1,4
 272 206 272 206 213 206 c 0,5,6
 184 206 184 206 161.5 209 c 128,-1,7
 139 212 139 212 129 214 c 1,8,9
 129 174 129 174 139 148 c 128,-1,10
 149 122 149 122 166 106.5 c 128,-1,11
 183 91 183 91 205 84.5 c 128,-1,12
 227 78 227 78 252 78 c 0,13,14
 283 78 283 78 322.5 86.5 c 128,-1,15
 362 95 362 95 394 111 c 1,16,-1
 387 28 l 1,17,18
 358 14 358 14 317 2 c 128,-1,19
 276 -10 276 -10 228 -10 c 0,20,21
 175 -10 175 -10 135.5 6.5 c 128,-1,22
 96 23 96 23 70.5 52 c 128,-1,23
 45 81 45 81 32.5 119.5 c 128,-1,24
 20 158 20 158 20 203 c 0,25,26
 20 261 20 261 39.5 315 c 128,-1,27
 59 369 59 369 95 411 c 128,-1,28
 131 453 131 453 181 478 c 128,-1,29
 231 503 231 503 292 503 c 0,30,31
 367 503 367 503 405.5 466.5 c 128,-1,32
 444 430 444 430 444 371 c 0,0,1
285 415 m 0,33,34
 234 415 234 415 196.5 378.5 c 128,-1,35
 159 342 159 342 139 282 c 1,36,37
 152 280 152 280 163 277 c 128,-1,38
 174 274 174 274 200 274 c 0,39,40
 245 274 245 274 275 282 c 128,-1,41
 305 290 305 290 322.5 303 c 128,-1,42
 340 316 340 316 347 331.5 c 128,-1,43
 354 347 354 347 354 362 c 256,44,45
 354 377 354 377 347.5 387.5 c 128,-1,46
 341 398 341 398 331.5 404 c 128,-1,47
 322 410 322 410 309.5 412.5 c 128,-1,48
 297 415 297 415 285 415 c 0,33,34
EndSplineSet
Substitution2: "'smcp' Lowercase to Small Capitals in Latin lookup 1 subtable" E.sc
Substitution2: "'aalt' Access All Alternates in Latin lookup 0 subtable" E.sc
EndChar

StartChar: f
Encoding: 102 102 71
Width: 314
Flags: W
LayerCount: 2
Back
Fore
SplineSet
209 412 m 1,0,-1
 137 0 l 1,1,-1
 34 0 l 1,2,-1
 106 412 l 1,3,-1
 39 412 l 1,4,-1
 63 493 l 1,5,-1
 121 493 l 1,6,-1
 142 616 l 2,7,8
 147 644 147 644 158 668.5 c 128,-1,9
 169 693 169 693 185.5 711 c 128,-1,10
 202 729 202 729 224 739.5 c 128,-1,11
 246 750 246 750 273 750 c 0,12,13
 294 750 294 750 308 749.5 c 128,-1,14
 322 749 322 749 332.5 747.5 c 128,-1,15
 343 746 343 746 351 744 c 128,-1,16
 359 742 359 742 369 739 c 1,17,-1
 344 654 l 1,18,19
 330 659 330 659 316.5 660.5 c 128,-1,20
 303 662 303 662 295 662 c 0,21,22
 281 662 281 662 272.5 658 c 128,-1,23
 264 654 264 654 258 642 c 128,-1,24
 252 630 252 630 246.5 609.5 c 128,-1,25
 241 589 241 589 235 556 c 2,26,-1
 223 493 l 1,27,-1
 328 493 l 1,28,-1
 314 412 l 1,29,-1
 209 412 l 1,0,-1
EndSplineSet
Substitution2: "'smcp' Lowercase to Small Capitals in Latin lookup 1 subtable" F.sc
Substitution2: "'aalt' Access All Alternates in Latin lookup 0 subtable" F.sc
EndChar

StartChar: g
Encoding: 103 103 72
Width: 468
Flags: W
LayerCount: 2
Back
Fore
SplineSet
144 -250 m 0,0,1
 92 -250 92 -250 56.5 -238.5 c 128,-1,2
 21 -227 21 -227 -1.5 -208.5 c 128,-1,3
 -24 -190 -24 -190 -34 -167 c 128,-1,4
 -44 -144 -44 -144 -44 -122 c 0,5,6
 -44 -87 -44 -87 -20.5 -51 c 128,-1,7
 3 -15 3 -15 52 9 c 1,8,9
 36 21 36 21 28.5 36 c 128,-1,10
 21 51 21 51 21 65 c 0,11,12
 21 84 21 84 36 106 c 128,-1,13
 51 128 51 128 82 145 c 1,14,15
 57 172 57 172 46 206.5 c 128,-1,16
 35 241 35 241 35 276 c 0,17,18
 35 319 35 319 50 360 c 128,-1,19
 65 401 65 401 93.5 432.5 c 128,-1,20
 122 464 122 464 162.5 483.5 c 128,-1,21
 203 503 203 503 254 503 c 0,22,23
 317 503 317 503 355 469 c 1,24,25
 372 480 372 480 399.5 487.5 c 128,-1,26
 427 495 427 495 459 495 c 2,27,-1
 481 495 l 1,28,-1
 462 429 l 1,29,-1
 427 429 l 2,30,31
 422 429 422 429 412.5 427.5 c 128,-1,32
 403 426 403 426 393 424 c 1,33,34
 401 404 401 404 404 382.5 c 128,-1,35
 407 361 407 361 407 342 c 0,36,37
 407 299 407 299 391.5 258 c 128,-1,38
 376 217 376 217 347.5 184.5 c 128,-1,39
 319 152 319 152 279 132.5 c 128,-1,40
 239 113 239 113 190 113 c 0,41,42
 174 113 174 113 161.5 115 c 128,-1,43
 149 117 149 117 137 121 c 1,44,45
 129 115 129 115 124.5 107.5 c 128,-1,46
 120 100 120 100 120 92 c 0,47,48
 120 75 120 75 145.5 67 c 128,-1,49
 171 59 171 59 231 48 c 0,50,51
 253 44 253 44 280.5 37 c 128,-1,52
 308 30 308 30 332 16 c 128,-1,53
 356 2 356 2 372.5 -20.5 c 128,-1,54
 389 -43 389 -43 389 -77 c 0,55,56
 389 -110 389 -110 372 -141.5 c 128,-1,57
 355 -173 355 -173 323.5 -197 c 128,-1,58
 292 -221 292 -221 246.5 -235.5 c 128,-1,59
 201 -250 201 -250 144 -250 c 0,0,1
241 424 m 0,60,61
 214 424 214 424 193.5 412 c 128,-1,62
 173 400 173 400 158.5 380.5 c 128,-1,63
 144 361 144 361 136.5 335 c 128,-1,64
 129 309 129 309 129 281 c 0,65,66
 129 237 129 237 147.5 213.5 c 128,-1,67
 166 190 166 190 202 190 c 0,68,69
 228 190 228 190 249 202.5 c 128,-1,70
 270 215 270 215 284.5 235.5 c 128,-1,71
 299 256 299 256 306.5 282 c 128,-1,72
 314 308 314 308 314 336 c 0,73,74
 314 424 314 424 241 424 c 0,60,61
185 -30 m 0,75,76
 182 -29 182 -29 173.5 -27 c 128,-1,77
 165 -25 165 -25 155.5 -22.5 c 128,-1,78
 146 -20 146 -20 137.5 -18 c 128,-1,79
 129 -16 129 -16 125 -16 c 0,80,81
 95 -27 95 -27 70.5 -51.5 c 128,-1,82
 46 -76 46 -76 46 -106 c 0,83,84
 46 -135 46 -135 73 -154.5 c 128,-1,85
 100 -174 100 -174 153 -174 c 0,86,87
 184 -174 184 -174 209.5 -167 c 128,-1,88
 235 -160 235 -160 253.5 -149 c 128,-1,89
 272 -138 272 -138 282.5 -123 c 128,-1,90
 293 -108 293 -108 293 -91 c 0,91,92
 293 -85 293 -85 290 -78 c 128,-1,93
 287 -71 287 -71 276 -63.5 c 128,-1,94
 265 -56 265 -56 243.5 -47.5 c 128,-1,95
 222 -39 222 -39 185 -30 c 0,75,76
EndSplineSet
Substitution2: "'smcp' Lowercase to Small Capitals in Latin lookup 1 subtable" G.sc
Substitution2: "'aalt' Access All Alternates in Latin lookup 0 subtable" G.sc
EndChar

StartChar: h
Encoding: 104 104 73
Width: 516
Flags: W
LayerCount: 2
Back
Fore
SplineSet
298 0 m 1,0,-1
 345 264 l 2,1,2
 349 284 349 284 350.5 300.5 c 128,-1,3
 352 317 352 317 352 331 c 0,4,5
 352 376 352 376 333.5 395.5 c 128,-1,6
 315 415 315 415 277 415 c 0,7,8
 216 415 216 415 174 358 c 1,9,-1
 110 0 l 1,10,-1
 8 0 l 1,11,-1
 140 750 l 1,12,-1
 243 750 l 1,13,-1
 190 450 l 1,14,15
 241 503 241 503 303 503 c 0,16,17
 385 503 385 503 420 460 c 128,-1,18
 455 417 455 417 455 344 c 0,19,20
 455 310 455 310 447 264 c 2,21,-1
 401 0 l 1,22,-1
 298 0 l 1,0,-1
EndSplineSet
Substitution2: "'smcp' Lowercase to Small Capitals in Latin lookup 1 subtable" H.sc
Substitution2: "'aalt' Access All Alternates in Latin lookup 0 subtable" H.sc
EndChar

StartChar: i
Encoding: 105 105 74
Width: 223
Flags: W
LayerCount: 2
Back
Fore
SplineSet
114 592 m 1,0,-1
 132 700 l 1,1,-1
 235 700 l 1,2,-1
 216 592 l 1,3,-1
 114 592 l 1,0,-1
9 0 m 1,4,-1
 96 493 l 1,5,-1
 199 493 l 1,6,-1
 112 0 l 1,7,-1
 9 0 l 1,4,-1
EndSplineSet
Substitution2: "'smcp' Lowercase to Small Capitals in Latin lookup 1 subtable" I.sc
Substitution2: "'aalt' Access All Alternates in Latin lookup 0 subtable" I.sc
EndChar

StartChar: j
Encoding: 106 106 75
Width: 222
Flags: W
LayerCount: 2
Back
Fore
SplineSet
-84 -242 m 1,0,-1
 -79 -162 l 1,1,2
 -61 -161 -61 -161 -49 -157 c 128,-1,3
 -37 -153 -37 -153 -29.5 -143.5 c 128,-1,4
 -22 -134 -22 -134 -16.5 -116.5 c 128,-1,5
 -11 -99 -11 -99 -6 -69 c 2,6,-1
 93 493 l 1,7,-1
 196 493 l 1,8,-1
 90 -108 l 2,9,10
 78 -174 78 -174 42.5 -204 c 128,-1,11
 7 -234 7 -234 -47 -239 c 2,12,-1
 -84 -242 l 1,0,-1
111 592 m 1,13,-1
 130 700 l 1,14,-1
 233 700 l 1,15,-1
 213 592 l 1,16,-1
 111 592 l 1,13,-1
EndSplineSet
Substitution2: "'smcp' Lowercase to Small Capitals in Latin lookup 1 subtable" J.sc
Substitution2: "'aalt' Access All Alternates in Latin lookup 0 subtable" J.sc
EndChar

StartChar: k
Encoding: 107 107 76
Width: 444
Flags: W
LayerCount: 2
Back
Fore
SplineSet
8 0 m 1,0,-1
 140 750 l 1,1,-1
 243 750 l 1,2,-1
 160 278 l 1,3,-1
 346 493 l 1,4,-1
 465 493 l 1,5,-1
 254 263 l 1,6,-1
 378 0 l 1,7,-1
 261 0 l 1,8,-1
 153 240 l 1,9,-1
 111 0 l 1,10,-1
 8 0 l 1,0,-1
EndSplineSet
Substitution2: "'smcp' Lowercase to Small Capitals in Latin lookup 1 subtable" K.sc
Substitution2: "'aalt' Access All Alternates in Latin lookup 0 subtable" K.sc
EndChar

StartChar: l
Encoding: 108 108 77
Width: 245
Flags: W
LayerCount: 2
Back
Fore
SplineSet
157 -10 m 1,0,-1
 121 -10 l 2,1,2
 69 -10 69 -10 47 17.5 c 128,-1,3
 25 45 25 45 25 83 c 0,4,5
 25 97 25 97 28 112 c 2,6,-1
 140 750 l 1,7,-1
 242 750 l 1,8,-1
 139 164 l 2,9,10
 136 145 136 145 134 132.5 c 128,-1,11
 132 120 132 120 132 110 c 0,12,13
 132 85 132 85 144 78.5 c 128,-1,14
 156 72 156 72 182 72 c 1,15,-1
 157 -10 l 1,0,-1
EndSplineSet
Substitution2: "'smcp' Lowercase to Small Capitals in Latin lookup 1 subtable" L.sc
Substitution2: "'aalt' Access All Alternates in Latin lookup 0 subtable" L.sc
EndChar

StartChar: m
Encoding: 109 109 78
Width: 812
Flags: W
LayerCount: 2
Back
Fore
SplineSet
587 0 m 1,0,-1
 636 281 l 2,1,2
 639 297 639 297 640 311 c 128,-1,3
 641 325 641 325 641 337 c 0,4,5
 641 378 641 378 624.5 396.5 c 128,-1,6
 608 415 608 415 570 415 c 0,7,8
 539 415 539 415 517.5 403.5 c 128,-1,9
 496 392 496 392 482.5 374 c 128,-1,10
 469 356 469 356 461.5 334.5 c 128,-1,11
 454 313 454 313 451 293 c 2,12,-1
 400 0 l 1,13,-1
 297 0 l 1,14,-1
 345 270 l 2,15,16
 349 290 349 290 350.5 306 c 128,-1,17
 352 322 352 322 352 336 c 0,18,19
 352 383 352 383 332.5 399 c 128,-1,20
 313 415 313 415 277 415 c 0,21,22
 214 415 214 415 174 359 c 1,23,-1
 111 0 l 1,24,-1
 8 0 l 1,25,-1
 95 493 l 1,26,-1
 177 493 l 1,27,-1
 177 446 l 1,28,29
 207 477 207 477 239.5 490 c 128,-1,30
 272 503 272 503 307 503 c 0,31,32
 326 503 326 503 345.5 499 c 128,-1,33
 365 495 365 495 381.5 484.5 c 128,-1,34
 398 474 398 474 411.5 456.5 c 128,-1,35
 425 439 425 439 433 412 c 1,36,37
 454 450 454 450 497 476.5 c 128,-1,38
 540 503 540 503 601 503 c 0,39,40
 674 503 674 503 710 465 c 128,-1,41
 746 427 746 427 746 354 c 0,42,43
 746 337 746 337 744.5 319.5 c 128,-1,44
 743 302 743 302 739 282 c 2,45,-1
 689 0 l 1,46,-1
 587 0 l 1,0,-1
EndSplineSet
Substitution2: "'smcp' Lowercase to Small Capitals in Latin lookup 1 subtable" M.sc
Substitution2: "'aalt' Access All Alternates in Latin lookup 0 subtable" M.sc
EndChar

StartChar: n
Encoding: 110 110 79
Width: 522
Flags: W
LayerCount: 2
Back
Fore
SplineSet
302 0 m 1,0,-1
 350 270 l 2,1,2
 356 304 356 304 356 330 c 0,3,4
 356 415 356 415 279 415 c 0,5,6
 248 415 248 415 221 401 c 128,-1,7
 194 387 194 387 174 358 c 1,8,-1
 111 0 l 1,9,-1
 8 0 l 1,10,-1
 95 493 l 1,11,-1
 187 493 l 1,12,-1
 183 449 l 1,13,14
 214 479 214 479 245.5 491 c 128,-1,15
 277 503 277 503 306 503 c 0,16,17
 389 503 389 503 424.5 461 c 128,-1,18
 460 419 460 419 460 346 c 0,19,20
 460 308 460 308 453 270 c 2,21,-1
 405 0 l 1,22,-1
 302 0 l 1,0,-1
EndSplineSet
Substitution2: "'smcp' Lowercase to Small Capitals in Latin lookup 1 subtable" N.sc
Substitution2: "'aalt' Access All Alternates in Latin lookup 0 subtable" N.sc
EndChar

StartChar: o
Encoding: 111 111 80
Width: 527
Flags: W
LayerCount: 2
Back
Fore
SplineSet
205 -10 m 0,0,1
 159 -10 159 -10 124.5 6 c 128,-1,2
 90 22 90 22 66.5 50.5 c 128,-1,3
 43 79 43 79 31.5 116.5 c 128,-1,4
 20 154 20 154 20 198 c 0,5,6
 20 258 20 258 40 313.5 c 128,-1,7
 60 369 60 369 96 411 c 128,-1,8
 132 453 132 453 183 478 c 128,-1,9
 234 503 234 503 296 503 c 0,10,11
 342 503 342 503 376.5 487 c 128,-1,12
 411 471 411 471 434 442.5 c 128,-1,13
 457 414 457 414 469 376 c 128,-1,14
 481 338 481 338 481 295 c 0,15,16
 481 235 481 235 461 179.5 c 128,-1,17
 441 124 441 124 405 82 c 128,-1,18
 369 40 369 40 318 15 c 128,-1,19
 267 -10 267 -10 205 -10 c 0,0,1
280 415 m 0,20,21
 245 415 245 415 216 399 c 128,-1,22
 187 383 187 383 167 354.5 c 128,-1,23
 147 326 147 326 136 287 c 128,-1,24
 125 248 125 248 125 203 c 0,25,26
 125 145 125 145 149 111.5 c 128,-1,27
 173 78 173 78 221 78 c 0,28,29
 257 78 257 78 285.5 94 c 128,-1,30
 314 110 314 110 334 138.5 c 128,-1,31
 354 167 354 167 365 206 c 128,-1,32
 376 245 376 245 376 290 c 0,33,34
 376 348 376 348 352 381.5 c 128,-1,35
 328 415 328 415 280 415 c 0,20,21
EndSplineSet
Substitution2: "'smcp' Lowercase to Small Capitals in Latin lookup 1 subtable" O.sc
Substitution2: "'aalt' Access All Alternates in Latin lookup 0 subtable" O.sc
EndChar

StartChar: p
Encoding: 112 112 81
Width: 534
Flags: W
LayerCount: 2
Back
Fore
SplineSet
223 -10 m 0,0,1
 190 -10 190 -10 163 5 c 128,-1,2
 136 20 136 20 118 49 c 1,3,-1
 67 -242 l 1,4,-1
 -35 -242 l 1,5,-1
 94 493 l 1,6,-1
 181 493 l 1,7,-1
 181 438 l 1,8,9
 210 469 210 469 240.5 486 c 128,-1,10
 271 503 271 503 314 503 c 0,11,12
 358 503 358 503 390.5 486.5 c 128,-1,13
 423 470 423 470 444.5 441.5 c 128,-1,14
 466 413 466 413 476.5 375.5 c 128,-1,15
 487 338 487 338 487 296 c 0,16,17
 487 237 487 237 469 181.5 c 128,-1,18
 451 126 451 126 417 83.5 c 128,-1,19
 383 41 383 41 334 15.5 c 128,-1,20
 285 -10 285 -10 223 -10 c 0,0,1
290 415 m 0,21,22
 260 415 260 415 233.5 401.5 c 128,-1,23
 207 388 207 388 186.5 360.5 c 128,-1,24
 166 333 166 333 154 292 c 128,-1,25
 142 251 142 251 142 196 c 0,26,27
 142 137 142 137 165.5 107.5 c 128,-1,28
 189 78 189 78 231 78 c 0,29,30
 264 78 264 78 291.5 95 c 128,-1,31
 319 112 319 112 339.5 141 c 128,-1,32
 360 170 360 170 371 208 c 128,-1,33
 382 246 382 246 382 288 c 0,34,35
 382 344 382 344 358.5 379.5 c 128,-1,36
 335 415 335 415 290 415 c 0,21,22
EndSplineSet
Substitution2: "'smcp' Lowercase to Small Capitals in Latin lookup 1 subtable" P.sc
Substitution2: "'aalt' Access All Alternates in Latin lookup 0 subtable" P.sc
EndChar

StartChar: q
Encoding: 113 113 82
Width: 535
Flags: W
LayerCount: 2
Back
Fore
SplineSet
194 -10 m 0,0,1
 150 -10 150 -10 117 5.5 c 128,-1,2
 84 21 84 21 62.5 48.5 c 128,-1,3
 41 76 41 76 30.5 113 c 128,-1,4
 20 150 20 150 20 193 c 0,5,6
 20 252 20 252 39 308 c 128,-1,7
 58 364 58 364 92.5 407.5 c 128,-1,8
 127 451 127 451 176 477 c 128,-1,9
 225 503 225 503 285 503 c 0,10,11
 327 503 327 503 351 486 c 128,-1,12
 375 469 375 469 395 438 c 1,13,-1
 414 493 l 1,14,-1
 501 493 l 1,15,-1
 371 -242 l 1,16,-1
 269 -242 l 1,17,-1
 320 49 l 1,18,19
 263 -10 263 -10 194 -10 c 0,0,1
277 415 m 0,20,21
 244 415 244 415 216 398 c 128,-1,22
 188 381 188 381 168.5 352.5 c 128,-1,23
 149 324 149 324 138 286 c 128,-1,24
 127 248 127 248 127 206 c 0,25,26
 127 151 127 151 149.5 114.5 c 128,-1,27
 172 78 172 78 218 78 c 0,28,29
 248 78 248 78 274.5 91 c 128,-1,30
 301 104 301 104 321.5 131 c 128,-1,31
 342 158 342 158 354 199 c 128,-1,32
 366 240 366 240 366 296 c 0,33,34
 366 354 366 354 342.5 384.5 c 128,-1,35
 319 415 319 415 277 415 c 0,20,21
EndSplineSet
Substitution2: "'smcp' Lowercase to Small Capitals in Latin lookup 1 subtable" Q.sc
Substitution2: "'aalt' Access All Alternates in Latin lookup 0 subtable" Q.sc
EndChar

StartChar: r
Encoding: 114 114 83
Width: 318
Flags: W
LayerCount: 2
Back
Fore
SplineSet
309 403 m 1,0,-1
 272 403 l 2,1,2
 244 403 244 403 216 385 c 128,-1,3
 188 367 188 367 174 344 c 1,4,-1
 113 0 l 1,5,-1
 9 0 l 1,6,-1
 96 493 l 1,7,-1
 189 493 l 1,8,-1
 181 422 l 1,9,10
 213 462 213 462 250 485 c 128,-1,11
 287 508 287 508 326 508 c 2,12,-1
 348 508 l 1,13,-1
 309 403 l 1,0,-1
EndSplineSet
Substitution2: "'smcp' Lowercase to Small Capitals in Latin lookup 1 subtable" R.sc
Substitution2: "'aalt' Access All Alternates in Latin lookup 0 subtable" R.sc
EndChar

StartChar: s
Encoding: 115 115 84
Width: 399
Flags: W
LayerCount: 2
Back
Fore
SplineSet
134 -10 m 0,0,1
 79 -10 79 -10 42.5 4 c 128,-1,2
 6 18 6 18 -11 31 c 1,3,-1
 16 124 l 1,4,5
 24 116 24 116 37.5 107.5 c 128,-1,6
 51 99 51 99 68 91.5 c 128,-1,7
 85 84 85 84 104.5 79 c 128,-1,8
 124 74 124 74 145 74 c 0,9,10
 191 74 191 74 211 93.5 c 128,-1,11
 231 113 231 113 231 144 c 0,12,13
 231 174 231 174 208.5 188.5 c 128,-1,14
 186 203 186 203 159 211 c 0,15,16
 139 217 139 217 119.5 225.5 c 128,-1,17
 100 234 100 234 84.5 246.5 c 128,-1,18
 69 259 69 259 59 278.5 c 128,-1,19
 49 298 49 298 49 327 c 0,20,21
 49 355 49 355 59 386.5 c 128,-1,22
 69 418 69 418 91.5 443.5 c 128,-1,23
 114 469 114 469 151 486 c 128,-1,24
 188 503 188 503 243 503 c 0,25,26
 288 503 288 503 321.5 492 c 128,-1,27
 355 481 355 481 372 469 c 1,28,-1
 346 379 l 1,29,30
 332 397 332 397 302.5 411.5 c 128,-1,31
 273 426 273 426 236 426 c 0,32,33
 201 426 201 426 173.5 409 c 128,-1,34
 146 392 146 392 146 354 c 0,35,36
 146 339 146 339 152.5 329 c 128,-1,37
 159 319 159 319 171 311.5 c 128,-1,38
 183 304 183 304 199.5 298 c 128,-1,39
 216 292 216 292 236 286 c 0,40,41
 253 280 253 280 271 271.5 c 128,-1,42
 289 263 289 263 303.5 249 c 128,-1,43
 318 235 318 235 327.5 214.5 c 128,-1,44
 337 194 337 194 337 164 c 0,45,46
 337 137 337 137 329 106.5 c 128,-1,47
 321 76 321 76 299 50 c 128,-1,48
 277 24 277 24 237 7 c 128,-1,49
 197 -10 197 -10 134 -10 c 0,0,1
EndSplineSet
Substitution2: "'smcp' Lowercase to Small Capitals in Latin lookup 1 subtable" S.sc
Substitution2: "'aalt' Access All Alternates in Latin lookup 0 subtable" S.sc
EndChar

StartChar: t
Encoding: 116 116 85
Width: 317
Flags: W
LayerCount: 2
Back
Fore
SplineSet
227 -10 m 1,0,-1
 149 -10 l 2,1,2
 122 -10 122 -10 103 -2.5 c 128,-1,3
 84 5 84 5 72 18 c 128,-1,4
 60 31 60 31 54.5 48.5 c 128,-1,5
 49 66 49 66 49 85 c 0,6,7
 49 98 49 98 52 112 c 2,8,-1
 104 412 l 1,9,-1
 37 412 l 1,10,-1
 60 493 l 1,11,-1
 119 493 l 1,12,-1
 140 611 l 1,13,-1
 244 621 l 1,14,-1
 221 493 l 1,15,-1
 326 493 l 1,16,-1
 311 412 l 1,17,-1
 207 412 l 1,18,-1
 163 165 l 2,19,20
 159 145 159 145 157.5 132 c 128,-1,21
 156 119 156 119 156 108 c 0,22,23
 156 83 156 83 170.5 77.5 c 128,-1,24
 185 72 185 72 222 72 c 2,25,-1
 250 72 l 1,26,-1
 227 -10 l 1,0,-1
EndSplineSet
Substitution2: "'smcp' Lowercase to Small Capitals in Latin lookup 1 subtable" T.sc
Substitution2: "'aalt' Access All Alternates in Latin lookup 0 subtable" T.sc
EndChar

StartChar: u
Encoding: 117 117 86
Width: 509
Flags: W
LayerCount: 2
Back
Fore
SplineSet
296 0 m 1,0,-1
 300 46 l 1,1,2
 275 19 275 19 245 4.5 c 128,-1,3
 215 -10 215 -10 184 -10 c 0,4,5
 105 -10 105 -10 69.5 28 c 128,-1,6
 34 66 34 66 34 139 c 0,7,8
 34 176 34 176 41 214 c 2,9,-1
 90 493 l 1,10,-1
 192 493 l 1,11,-1
 146 230 l 2,12,13
 143 212 143 212 141 196 c 128,-1,14
 139 180 139 180 139 166 c 0,15,16
 139 78 139 78 212 78 c 0,17,18
 270 78 270 78 311 129 c 1,19,-1
 375 493 l 1,20,-1
 477 493 l 1,21,-1
 391 0 l 1,22,-1
 296 0 l 1,0,-1
EndSplineSet
Substitution2: "'smcp' Lowercase to Small Capitals in Latin lookup 1 subtable" U.sc
Substitution2: "'aalt' Access All Alternates in Latin lookup 0 subtable" U.sc
EndChar

StartChar: v
Encoding: 118 118 87
Width: 452
Flags: W
LayerCount: 2
Back
Fore
SplineSet
219 0 m 1,0,-1
 123 0 l 1,1,-1
 35 493 l 1,2,-1
 140 493 l 1,3,-1
 192 118 l 1,4,-1
 376 493 l 1,5,-1
 480 493 l 1,6,-1
 219 0 l 1,0,-1
EndSplineSet
Substitution2: "'smcp' Lowercase to Small Capitals in Latin lookup 1 subtable" V.sc
Substitution2: "'aalt' Access All Alternates in Latin lookup 0 subtable" V.sc
EndChar

StartChar: w
Encoding: 119 119 88
Width: 675
Flags: W
LayerCount: 2
Back
Fore
SplineSet
464 0 m 1,0,-1
 371 0 l 1,1,-1
 340 350 l 1,2,-1
 186 0 l 1,3,-1
 93 0 l 1,4,-1
 48 493 l 1,5,-1
 153 493 l 1,6,-1
 166 117 l 1,7,-1
 318 480 l 1,8,-1
 408 480 l 1,9,-1
 431 117 l 1,10,-1
 578 493 l 1,11,-1
 683 493 l 1,12,-1
 464 0 l 1,0,-1
EndSplineSet
Substitution2: "'smcp' Lowercase to Small Capitals in Latin lookup 1 subtable" W.sc
Substitution2: "'aalt' Access All Alternates in Latin lookup 0 subtable" W.sc
EndChar

StartChar: x
Encoding: 120 120 89
Width: 453
Flags: W
LayerCount: 2
Back
Fore
SplineSet
269 0 m 1,0,-1
 201 176 l 1,1,-1
 81 0 l 1,2,-1
 -38 0 l 1,3,-1
 157 247 l 1,4,-1
 51 493 l 1,5,-1
 170 493 l 1,6,-1
 231 313 l 1,7,-1
 352 493 l 1,8,-1
 474 493 l 1,9,-1
 272 242 l 1,10,-1
 389 0 l 1,11,-1
 269 0 l 1,0,-1
EndSplineSet
Substitution2: "'smcp' Lowercase to Small Capitals in Latin lookup 1 subtable" X.sc
Substitution2: "'aalt' Access All Alternates in Latin lookup 0 subtable" X.sc
EndChar

StartChar: y
Encoding: 121 121 90
Width: 480
Flags: W
LayerCount: 2
Back
Fore
SplineSet
95 -242 m 1,0,-1
 -10 -242 l 1,1,-1
 138 26 l 1,2,-1
 34 493 l 1,3,-1
 148 493 l 1,4,-1
 209 144 l 1,5,-1
 389 493 l 1,6,-1
 503 493 l 1,7,-1
 95 -242 l 1,0,-1
EndSplineSet
Substitution2: "'smcp' Lowercase to Small Capitals in Latin lookup 1 subtable" Y.sc
Substitution2: "'aalt' Access All Alternates in Latin lookup 0 subtable" Y.sc
EndChar

StartChar: z
Encoding: 122 122 91
Width: 441
Flags: W
LayerCount: 2
Back
Fore
SplineSet
163 84 m 1,0,-1
 364 84 l 1,1,-1
 348 0 l 1,2,-1
 -29 0 l 1,3,-1
 253 410 l 1,4,-1
 52 410 l 1,5,-1
 67 493 l 1,6,-1
 444 493 l 1,7,-1
 163 84 l 1,0,-1
EndSplineSet
Substitution2: "'smcp' Lowercase to Small Capitals in Latin lookup 1 subtable" Z.sc
Substitution2: "'aalt' Access All Alternates in Latin lookup 0 subtable" Z.sc
EndChar

StartChar: braceleft
Encoding: 123 123 92
Width: 292
Flags: W
LayerCount: 2
Back
Fore
SplineSet
30 -13 m 0,0,1
 30 9 30 9 36.5 35.5 c 128,-1,2
 43 62 43 62 50.5 90 c 128,-1,3
 58 118 58 118 64.5 146.5 c 128,-1,4
 71 175 71 175 71 201 c 0,5,6
 71 236 71 236 59 261.5 c 128,-1,7
 47 287 47 287 20 307 c 1,8,9
 63 332 63 332 85 365 c 128,-1,10
 107 398 107 398 117 454 c 0,11,12
 123 489 123 489 126.5 527.5 c 128,-1,13
 130 566 130 566 135 595 c 0,14,15
 141 631 141 631 156 659 c 128,-1,16
 171 687 171 687 197 707 c 128,-1,17
 223 727 223 727 262.5 738 c 128,-1,18
 302 749 302 749 358 750 c 1,19,-1
 343 668 l 1,20,21
 301 667 301 667 277 659.5 c 128,-1,22
 253 652 253 652 239 634 c 128,-1,23
 225 616 225 616 217.5 585.5 c 128,-1,24
 210 555 210 555 201 507 c 0,25,26
 197 487 197 487 195 465 c 128,-1,27
 193 443 193 443 189 422 c 0,28,29
 183 390 183 390 168.5 362.5 c 128,-1,30
 154 335 154 335 114 307 c 1,31,32
 137 287 137 287 145 267.5 c 128,-1,33
 153 248 153 248 153 228 c 0,34,35
 153 205 153 205 147.5 184.5 c 128,-1,36
 142 164 142 164 136 141.5 c 128,-1,37
 130 119 130 119 124.5 92.5 c 128,-1,38
 119 66 119 66 119 30 c 0,39,40
 119 7 119 7 123.5 -8.5 c 128,-1,41
 128 -24 128 -24 139.5 -34 c 128,-1,42
 151 -44 151 -44 169.5 -48 c 128,-1,43
 188 -52 188 -52 216 -53 c 1,44,-1
 202 -135 l 1,45,46
 109 -133 109 -133 69.5 -102 c 128,-1,47
 30 -71 30 -71 30 -13 c 0,0,1
EndSplineSet
EndChar

StartChar: bar
Encoding: 124 124 93
Width: 227
Flags: W
LayerCount: 2
Back
Fore
SplineSet
-19 -209 m 1,0,-1
 150 750 l 1,1,-1
 237 750 l 1,2,-1
 68 -209 l 1,3,-1
 -19 -209 l 1,0,-1
EndSplineSet
EndChar

StartChar: braceright
Encoding: 125 125 94
Width: 291
Flags: W
LayerCount: 2
Back
Fore
SplineSet
154 19 m 0,0,1
 141 -55 141 -55 90 -94 c 128,-1,2
 39 -133 39 -133 -68 -135 c 1,3,-1
 -54 -53 l 1,4,5
 -12 -52 -12 -52 12.5 -44.5 c 128,-1,6
 37 -37 37 -37 51 -19 c 128,-1,7
 65 -1 65 -1 72.5 29.5 c 128,-1,8
 80 60 80 60 88 108 c 0,9,10
 93 134 93 134 95.5 156.5 c 128,-1,11
 98 179 98 179 102 201 c 0,12,13
 105 216 105 216 109 229.5 c 128,-1,14
 113 243 113 243 121.5 255.5 c 128,-1,15
 130 268 130 268 143 280.5 c 128,-1,16
 156 293 156 293 176 307 c 1,17,18
 153 327 153 327 145 348.5 c 128,-1,19
 137 370 137 370 137 392 c 0,20,21
 137 409 137 409 142.5 427.5 c 128,-1,22
 148 446 148 446 154 468.5 c 128,-1,23
 160 491 160 491 165.5 519.5 c 128,-1,24
 171 548 171 548 171 585 c 0,25,26
 171 608 171 608 166 623.5 c 128,-1,27
 161 639 161 639 150 648.5 c 128,-1,28
 139 658 139 658 120 663 c 128,-1,29
 101 668 101 668 73 669 c 1,30,-1
 88 750 l 1,31,32
 182 748 182 748 221 715.5 c 128,-1,33
 260 683 260 683 260 627 c 0,34,35
 260 605 260 605 253.5 578.5 c 128,-1,36
 247 552 247 552 239.5 524.5 c 128,-1,37
 232 497 232 497 225.5 468.5 c 128,-1,38
 219 440 219 440 219 413 c 0,39,40
 219 377 219 377 231 351.5 c 128,-1,41
 243 326 243 326 269 307 c 1,42,43
 223 281 223 281 202.5 247 c 128,-1,44
 182 213 182 213 173 161 c 0,45,46
 167 126 167 126 163 87 c 128,-1,47
 159 48 159 48 154 19 c 0,0,1
EndSplineSet
EndChar

StartChar: asciitilde
Encoding: 126 126 95
Width: 445
Flags: W
LayerCount: 2
Back
Fore
SplineSet
263 178 m 0,0,1
 246 178 246 178 231.5 185.5 c 128,-1,2
 217 193 217 193 204.5 202 c 128,-1,3
 192 211 192 211 179.5 218.5 c 128,-1,4
 167 226 167 226 155 226 c 0,5,6
 133 226 133 226 119 212 c 128,-1,7
 105 198 105 198 97 178 c 1,8,-1
 37 190 l 1,9,10
 45 215 45 215 59 233 c 128,-1,11
 73 251 73 251 90.5 262 c 128,-1,12
 108 273 108 273 126 278.5 c 128,-1,13
 144 284 144 284 161 284 c 0,14,15
 179 284 179 284 192.5 277 c 128,-1,16
 206 270 206 270 218 261 c 128,-1,17
 230 252 230 252 241 245 c 128,-1,18
 252 238 252 238 265 238 c 0,19,20
 286 238 286 238 302.5 252.5 c 128,-1,21
 319 267 319 267 328 288 c 1,22,-1
 383 275 l 1,23,24
 369 233 369 233 337 205.5 c 128,-1,25
 305 178 305 178 263 178 c 0,0,1
EndSplineSet
EndChar

StartChar: exclamdown
Encoding: 161 161 97
Width: 238
Flags: W
LayerCount: 2
Back
Fore
SplineSet
84 300 m 1,0,-1
 153 300 l 1,1,-1
 78 -250 l 1,2,-1
 -34 -250 l 1,3,-1
 84 300 l 1,0,-1
205 500 m 1,4,-1
 187 401 l 1,5,-1
 86 401 l 1,6,-1
 103 500 l 1,7,-1
 205 500 l 1,4,-1
EndSplineSet
EndChar

StartChar: cent
Encoding: 162 162 98
Width: 448
Flags: W
LayerCount: 2
Back
Fore
SplineSet
239 -31 m 1,0,-1
 149 -31 l 1,1,-1
 184 90 l 1,2,3
 114 101 114 101 77.5 156 c 128,-1,4
 41 211 41 211 41 292 c 0,5,6
 41 349 41 349 57.5 402.5 c 128,-1,7
 74 456 74 456 104.5 498.5 c 128,-1,8
 135 541 135 541 178.5 569.5 c 128,-1,9
 222 598 222 598 275 606 c 1,10,-1
 286 748 l 1,11,-1
 377 748 l 1,12,-1
 338 607 l 1,13,14
 377 605 377 605 400 596.5 c 128,-1,15
 423 588 423 588 441 574 c 1,16,-1
 416 486 l 1,17,18
 391 503 391 503 365 512.5 c 128,-1,19
 339 522 339 522 311 522 c 0,20,21
 272 522 272 522 242 504 c 128,-1,22
 212 486 212 486 191 455.5 c 128,-1,23
 170 425 170 425 159 385.5 c 128,-1,24
 148 346 148 346 148 304 c 0,25,26
 148 246 148 246 173.5 210 c 128,-1,27
 199 174 199 174 250 174 c 0,28,29
 305 174 305 174 367 209 c 1,30,-1
 360 121 l 1,31,32
 340 109 340 109 315.5 100 c 128,-1,33
 291 91 291 91 250 88 c 1,34,-1
 239 -31 l 1,0,-1
EndSplineSet
EndChar

StartChar: sterling
Encoding: 163 163 99
Width: 483
Flags: W
LayerCount: 2
Back
Fore
SplineSet
432 563 m 1,0,1
 421 619 421 619 371 619 c 0,2,3
 346 619 346 619 330.5 611 c 128,-1,4
 315 603 315 603 305.5 586.5 c 128,-1,5
 296 570 296 570 290 544.5 c 128,-1,6
 284 519 284 519 278 485 c 2,7,-1
 263 399 l 1,8,-1
 431 399 l 1,9,-1
 396 307 l 1,10,-1
 242 307 l 1,11,12
 234 273 234 273 227.5 247.5 c 128,-1,13
 221 222 221 222 213 199.5 c 128,-1,14
 205 177 205 177 194.5 153.5 c 128,-1,15
 184 130 184 130 168 99 c 1,16,-1
 385 99 l 1,17,-1
 368 0 l 1,18,-1
 -18 0 l 1,19,20
 14 35 14 35 38 69.5 c 128,-1,21
 62 104 62 104 80 141 c 128,-1,22
 98 178 98 178 112.5 218.5 c 128,-1,23
 127 259 127 259 139 307 c 1,24,-1
 57 307 l 1,25,-1
 92 399 l 1,26,-1
 161 399 l 1,27,-1
 180 507 l 2,28,29
 187 546 187 546 199 582.5 c 128,-1,30
 211 619 211 619 233.5 647.5 c 128,-1,31
 256 676 256 676 291 693.5 c 128,-1,32
 326 711 326 711 377 711 c 0,33,34
 432 711 432 711 468 687.5 c 128,-1,35
 504 664 504 664 508 622 c 1,36,-1
 432 563 l 1,0,1
EndSplineSet
EndChar

StartChar: currency
Encoding: 164 164 100
Width: 594
Flags: W
LayerCount: 2
Back
Fore
SplineSet
431 26 m 1,0,-1
 380 127 l 1,1,2
 349 108 349 108 319 100 c 128,-1,3
 289 92 289 92 257 92 c 0,4,5
 224 92 224 92 196.5 100 c 128,-1,6
 169 108 169 108 146 127 c 1,7,-1
 60 26 l 1,8,-1
 20 59 l 1,9,-1
 104 159 l 1,10,11
 87 188 87 188 78 225.5 c 128,-1,12
 69 263 69 263 69 301 c 0,13,14
 69 429 69 429 171 537 c 1,15,-1
 122 637 l 1,16,-1
 174 670 l 1,17,-1
 223 569 l 1,18,19
 283 604 283 604 346 604 c 0,20,21
 412 604 412 604 458 568 c 1,22,-1
 545 670 l 1,23,-1
 584 637 l 1,24,-1
 499 536 l 1,25,26
 517 507 517 507 525.5 469.5 c 128,-1,27
 534 432 534 432 534 394 c 0,28,29
 534 328 534 328 508.5 270.5 c 128,-1,30
 483 213 483 213 432 158 c 1,31,-1
 482 59 l 1,32,-1
 431 26 l 1,0,-1
333 528 m 0,33,34
 297 528 297 528 267.5 509.5 c 128,-1,35
 238 491 238 491 217.5 460 c 128,-1,36
 197 429 197 429 185.5 388.5 c 128,-1,37
 174 348 174 348 174 303 c 0,38,39
 174 245 174 245 198 206.5 c 128,-1,40
 222 168 222 168 270 168 c 0,41,42
 306 168 306 168 335.5 186.5 c 128,-1,43
 365 205 365 205 386 236 c 128,-1,44
 407 267 407 267 418.5 307.5 c 128,-1,45
 430 348 430 348 430 393 c 0,46,47
 430 451 430 451 405.5 489.5 c 128,-1,48
 381 528 381 528 333 528 c 0,33,34
EndSplineSet
EndChar

StartChar: yen
Encoding: 165 165 101
Width: 647
Flags: W
LayerCount: 2
Back
Fore
SplineSet
386 323 m 1,0,-1
 527 323 l 1,1,-1
 494 264 l 1,2,-1
 364 264 l 1,3,-1
 353 202 l 1,4,-1
 506 202 l 1,5,-1
 472 143 l 1,6,-1
 342 143 l 1,7,-1
 317 0 l 1,8,-1
 210 0 l 1,9,-1
 235 143 l 1,10,-1
 84 143 l 1,11,-1
 116 202 l 1,12,-1
 246 202 l 1,13,-1
 257 264 l 1,14,-1
 105 264 l 1,15,-1
 136 323 l 1,16,-1
 256 323 l 1,17,-1
 99 700 l 1,18,-1
 208 700 l 1,19,-1
 335 404 l 1,20,-1
 567 700 l 1,21,-1
 676 700 l 1,22,-1
 386 323 l 1,0,-1
EndSplineSet
EndChar

StartChar: brokenbar
Encoding: 166 166 102
Width: 224
Flags: W
LayerCount: 2
Back
Fore
SplineSet
72 300 m 1,0,-1
 151 750 l 1,1,-1
 230 750 l 1,2,-1
 151 300 l 1,3,-1
 72 300 l 1,0,-1
-18 -210 m 1,4,-1
 50 172 l 1,5,-1
 129 172 l 1,6,-1
 61 -210 l 1,7,-1
 -18 -210 l 1,4,-1
EndSplineSet
EndChar

StartChar: section
Encoding: 167 167 103
Width: 437
Flags: W
LayerCount: 2
Back
Fore
SplineSet
286 187 m 1,0,1
 300 167 300 167 306 147 c 128,-1,2
 312 127 312 127 312 104 c 0,3,4
 312 76 312 76 303 43 c 128,-1,5
 294 10 294 10 273 -18 c 128,-1,6
 252 -46 252 -46 216.5 -65 c 128,-1,7
 181 -84 181 -84 128 -84 c 0,8,9
 109 -84 109 -84 90 -81 c 128,-1,10
 71 -78 71 -78 54.5 -72.5 c 128,-1,11
 38 -67 38 -67 25 -60 c 128,-1,12
 12 -53 12 -53 6 -45 c 1,13,-1
 29 33 l 1,14,15
 51 14 51 14 80.5 1.5 c 128,-1,16
 110 -11 110 -11 138 -11 c 0,17,18
 157 -11 157 -11 174.5 -6 c 128,-1,19
 192 -1 192 -1 206 9.5 c 128,-1,20
 220 20 220 20 228.5 36.5 c 128,-1,21
 237 53 237 53 237 77 c 0,22,23
 237 103 237 103 223 118.5 c 128,-1,24
 209 134 209 134 187.5 145.5 c 128,-1,25
 166 157 166 157 141 167 c 128,-1,26
 116 177 116 177 94.5 193 c 128,-1,27
 73 209 73 209 59 233.5 c 128,-1,28
 45 258 45 258 45 298 c 0,29,30
 45 361 45 361 73 409 c 128,-1,31
 101 457 101 457 158 479 c 1,32,33
 143 499 143 499 137 520 c 128,-1,34
 131 541 131 541 131 562 c 0,35,36
 131 589 131 589 139.5 622 c 128,-1,37
 148 655 148 655 169 683.5 c 128,-1,38
 190 712 190 712 225.5 731 c 128,-1,39
 261 750 261 750 315 750 c 0,40,41
 334 750 334 750 353 746.5 c 128,-1,42
 372 743 372 743 388.5 737 c 128,-1,43
 405 731 405 731 417.5 724 c 128,-1,44
 430 717 430 717 437 710 c 1,45,-1
 415 632 l 1,46,47
 392 651 392 651 363.5 664.5 c 128,-1,48
 335 678 335 678 307 678 c 0,49,50
 289 678 289 678 271 671.5 c 128,-1,51
 253 665 253 665 239.5 653.5 c 128,-1,52
 226 642 226 642 217.5 626 c 128,-1,53
 209 610 209 610 209 590 c 0,54,55
 209 566 209 566 223 550.5 c 128,-1,56
 237 535 237 535 258 523 c 128,-1,57
 279 511 279 511 303 499.5 c 128,-1,58
 327 488 327 488 348 471.5 c 128,-1,59
 369 455 369 455 383 429.5 c 128,-1,60
 397 404 397 404 397 364 c 0,61,62
 397 341 397 341 392 316 c 128,-1,63
 387 291 387 291 374.5 267 c 128,-1,64
 362 243 362 243 340.5 222.5 c 128,-1,65
 319 202 319 202 286 187 c 1,0,1
211 428 m 0,66,67
 202 428 202 428 188.5 422.5 c 128,-1,68
 175 417 175 417 161.5 406 c 128,-1,69
 148 395 148 395 138.5 377 c 128,-1,70
 129 359 129 359 129 333 c 0,71,72
 129 312 129 312 139 295.5 c 128,-1,73
 149 279 149 279 164.5 266.5 c 128,-1,74
 180 254 180 254 199 245 c 128,-1,75
 218 236 218 236 236 229 c 1,76,77
 248 232 248 232 262 242 c 128,-1,78
 276 252 276 252 287.5 266.5 c 128,-1,79
 299 281 299 281 306.5 298 c 128,-1,80
 314 315 314 315 314 333 c 0,81,82
 314 357 314 357 303.5 373 c 128,-1,83
 293 389 293 389 277 400 c 128,-1,84
 261 411 261 411 243.5 417.5 c 128,-1,85
 226 424 226 424 211 428 c 0,66,67
EndSplineSet
EndChar

StartChar: dieresis
Encoding: 168 168 104
Width: 389
Flags: W
LayerCount: 2
Back
Fore
SplineSet
327 598 m 1,0,-1
 346 700 l 1,1,-1
 426 700 l 1,2,-1
 408 598 l 1,3,-1
 327 598 l 1,0,-1
185 598 m 1,4,-1
 203 700 l 1,5,-1
 282 700 l 1,6,-1
 265 598 l 1,7,-1
 185 598 l 1,4,-1
EndSplineSet
EndChar

StartChar: copyright
Encoding: 169 169 105
Width: 677
Flags: W
LayerCount: 2
Back
Fore
SplineSet
287 37 m 0,0,1
 235 37 235 37 192.5 55.5 c 128,-1,2
 150 74 150 74 120 108.5 c 128,-1,3
 90 143 90 143 74 192 c 128,-1,4
 58 241 58 241 58 301 c 0,5,6
 58 387 58 387 85.5 459 c 128,-1,7
 113 531 113 531 160.5 583 c 128,-1,8
 208 635 208 635 270.5 664 c 128,-1,9
 333 693 333 693 403 693 c 0,10,11
 455 693 455 693 497 674.5 c 128,-1,12
 539 656 539 656 569 621.5 c 128,-1,13
 599 587 599 587 615 538.5 c 128,-1,14
 631 490 631 490 631 430 c 0,15,16
 631 344 631 344 603.5 271.5 c 128,-1,17
 576 199 576 199 529.5 147 c 128,-1,18
 483 95 483 95 420 66 c 128,-1,19
 357 37 357 37 287 37 c 0,0,1
394 639 m 0,20,21
 328 639 328 639 277 611.5 c 128,-1,22
 226 584 226 584 191.5 537.5 c 128,-1,23
 157 491 157 491 139 429.5 c 128,-1,24
 121 368 121 368 121 301 c 0,25,26
 121 256 121 256 131.5 217 c 128,-1,27
 142 178 142 178 163.5 150 c 128,-1,28
 185 122 185 122 218 106 c 128,-1,29
 251 90 251 90 296 90 c 0,30,31
 362 90 362 90 412.5 118 c 128,-1,32
 463 146 463 146 497.5 192.5 c 128,-1,33
 532 239 532 239 550 300 c 128,-1,34
 568 361 568 361 568 428 c 0,35,36
 568 473 568 473 557.5 512 c 128,-1,37
 547 551 547 551 525.5 579 c 128,-1,38
 504 607 504 607 471.5 623 c 128,-1,39
 439 639 439 639 394 639 c 0,20,21
322 195 m 0,40,41
 267 195 267 195 235 231.5 c 128,-1,42
 203 268 203 268 203 330 c 0,43,44
 203 375 203 375 217 412 c 128,-1,45
 231 449 231 449 255.5 475.5 c 128,-1,46
 280 502 280 502 312.5 517 c 128,-1,47
 345 532 345 532 382 532 c 0,48,49
 405 532 405 532 427.5 526.5 c 128,-1,50
 450 521 450 521 467 512 c 1,51,-1
 446 443 l 1,52,53
 428 452 428 452 410 458 c 128,-1,54
 392 464 392 464 370 464 c 0,55,56
 349 464 349 464 332 454 c 128,-1,57
 315 444 315 444 303 426.5 c 128,-1,58
 291 409 291 409 285 386 c 128,-1,59
 279 363 279 363 279 338 c 0,60,61
 279 305 279 305 292.5 283.5 c 128,-1,62
 306 262 306 262 335 262 c 0,63,64
 356 262 356 262 376 268 c 128,-1,65
 396 274 396 274 419 284 c 1,66,-1
 415 216 l 1,67,68
 395 205 395 205 370 200 c 128,-1,69
 345 195 345 195 322 195 c 0,40,41
EndSplineSet
EndChar

StartChar: ordfeminine
Encoding: 170 170 106
Width: 339
Flags: W
LayerCount: 2
Back
Fore
SplineSet
316 434 m 1,0,-1
 273 434 l 2,1,2
 253 434 253 434 239 441 c 128,-1,3
 225 448 225 448 223 461 c 1,4,5
 210 448 210 448 184 441 c 128,-1,6
 158 434 158 434 138 434 c 0,7,8
 106 434 106 434 89 453.5 c 128,-1,9
 72 473 72 473 72 504 c 0,10,11
 72 540 72 540 92.5 563 c 128,-1,12
 113 586 113 586 141 599 c 128,-1,13
 169 612 169 612 196.5 617 c 128,-1,14
 224 622 224 622 238 623 c 1,15,16
 238 642 238 642 232 649.5 c 128,-1,17
 226 657 226 657 202 657 c 0,18,19
 182 657 182 657 163.5 652 c 128,-1,20
 145 647 145 647 123 639 c 1,21,-1
 129 706 l 1,22,23
 164 718 164 718 190.5 722.5 c 128,-1,24
 217 727 217 727 236 727 c 0,25,26
 277 727 277 727 302 708.5 c 128,-1,27
 327 690 327 690 327 649 c 0,28,29
 327 619 327 619 317 585.5 c 128,-1,30
 307 552 307 552 307 520 c 0,31,32
 307 510 307 510 309.5 506.5 c 128,-1,33
 312 503 312 503 320 503 c 2,34,-1
 333 503 l 1,35,-1
 316 434 l 1,0,-1
229 568 m 1,36,37
 224 568 224 568 213.5 565 c 128,-1,38
 203 562 203 562 192 556 c 128,-1,39
 181 550 181 550 172.5 540.5 c 128,-1,40
 164 531 164 531 164 517 c 0,41,42
 164 496 164 496 189 496 c 0,43,44
 196 496 196 496 203.5 498 c 128,-1,45
 211 500 211 500 218 505 c 1,46,-1
 229 568 l 1,36,37
EndSplineSet
EndChar

StartChar: guillemotleft
Encoding: 171 171 107
Width: 556
Flags: W
LayerCount: 2
Back
Fore
SplineSet
351 78 m 1,0,-1
 252 284 l 1,1,-1
 424 490 l 1,2,-1
 544 490 l 1,3,-1
 373 284 l 1,4,-1
 472 78 l 1,5,-1
 351 78 l 1,0,-1
117 78 m 1,6,-1
 18 284 l 1,7,-1
 190 490 l 1,8,-1
 310 490 l 1,9,-1
 139 284 l 1,10,-1
 237 78 l 1,11,-1
 117 78 l 1,6,-1
EndSplineSet
EndChar

StartChar: logicalnot
Encoding: 172 172 108
Width: 556
Flags: W
LayerCount: 2
Back
Fore
SplineSet
376 151 m 1,0,-1
 408 334 l 1,1,-1
 68 334 l 1,2,-1
 81 406 l 1,3,-1
 495 406 l 1,4,-1
 450 151 l 1,5,-1
 376 151 l 1,0,-1
EndSplineSet
EndChar

StartChar: uni00AD
Encoding: 173 173 109
Width: 401
Flags: W
LayerCount: 2
Back
Fore
SplineSet
46 230 m 1,0,-1
 63 324 l 1,1,-1
 342 324 l 1,2,-1
 325 230 l 1,3,-1
 46 230 l 1,0,-1
EndSplineSet
EndChar

StartChar: registered
Encoding: 174 174 110
Width: 677
Flags: W
LayerCount: 2
Back
Fore
SplineSet
287 37 m 0,0,1
 235 37 235 37 192.5 55.5 c 128,-1,2
 150 74 150 74 120 108.5 c 128,-1,3
 90 143 90 143 74 192 c 128,-1,4
 58 241 58 241 58 301 c 0,5,6
 58 387 58 387 85.5 459 c 128,-1,7
 113 531 113 531 160.5 583 c 128,-1,8
 208 635 208 635 270.5 664 c 128,-1,9
 333 693 333 693 403 693 c 0,10,11
 455 693 455 693 497 674.5 c 128,-1,12
 539 656 539 656 569 621.5 c 128,-1,13
 599 587 599 587 615 538.5 c 128,-1,14
 631 490 631 490 631 430 c 0,15,16
 631 344 631 344 603.5 271.5 c 128,-1,17
 576 199 576 199 529.5 147 c 128,-1,18
 483 95 483 95 420 66 c 128,-1,19
 357 37 357 37 287 37 c 0,0,1
393 640 m 0,20,21
 327 640 327 640 276.5 612 c 128,-1,22
 226 584 226 584 191.5 537.5 c 128,-1,23
 157 491 157 491 139 430 c 128,-1,24
 121 369 121 369 121 302 c 0,25,26
 121 257 121 257 131.5 218 c 128,-1,27
 142 179 142 179 163.5 150.5 c 128,-1,28
 185 122 185 122 218.5 105.5 c 128,-1,29
 252 89 252 89 297 89 c 0,30,31
 363 89 363 89 413.5 117 c 128,-1,32
 464 145 464 145 498.5 192 c 128,-1,33
 533 239 533 239 550.5 300.5 c 128,-1,34
 568 362 568 362 568 428 c 0,35,36
 568 474 568 474 557.5 512.5 c 128,-1,37
 547 551 547 551 525.5 579.5 c 128,-1,38
 504 608 504 608 471 624 c 128,-1,39
 438 640 438 640 393 640 c 0,20,21
369 208 m 1,40,-1
 333 323 l 1,41,-1
 299 323 l 1,42,-1
 279 208 l 1,43,-1
 206 208 l 1,44,-1
 264 533 l 1,45,-1
 376 533 l 2,46,47
 416 533 416 533 440.5 516.5 c 128,-1,48
 465 500 465 500 465 455 c 0,49,50
 465 414 465 414 446 387 c 128,-1,51
 427 360 427 360 403 343 c 1,52,-1
 445 208 l 1,53,-1
 369 208 l 1,40,-1
326 475 m 1,54,-1
 311 387 l 1,55,-1
 337 387 l 2,56,57
 390 387 390 387 390 445 c 0,58,59
 390 459 390 459 382.5 467 c 128,-1,60
 375 475 375 475 354 475 c 2,61,-1
 326 475 l 1,54,-1
EndSplineSet
EndChar

StartChar: degree
Encoding: 176 176 111
Width: 315
Flags: W
LayerCount: 2
Back
Fore
SplineSet
187 482 m 0,0,1
 139 482 139 482 114 514 c 128,-1,2
 89 546 89 546 89 592 c 0,3,4
 89 624 89 624 99.5 653.5 c 128,-1,5
 110 683 110 683 129.5 705.5 c 128,-1,6
 149 728 149 728 176 741.5 c 128,-1,7
 203 755 203 755 235 755 c 0,8,9
 284 755 284 755 308.5 723 c 128,-1,10
 333 691 333 691 333 644 c 0,11,12
 333 612 333 612 322.5 582.5 c 128,-1,13
 312 553 312 553 292.5 530.5 c 128,-1,14
 273 508 273 508 246.5 495 c 128,-1,15
 220 482 220 482 187 482 c 0,0,1
229 720 m 0,16,17
 211 720 211 720 195 709 c 128,-1,18
 179 698 179 698 168 680 c 128,-1,19
 157 662 157 662 150.5 639 c 128,-1,20
 144 616 144 616 144 593 c 0,21,22
 144 561 144 561 156 539 c 128,-1,23
 168 517 168 517 193 517 c 0,24,25
 212 517 212 517 228 528 c 128,-1,26
 244 539 244 539 255 557 c 128,-1,27
 266 575 266 575 272 598 c 128,-1,28
 278 621 278 621 278 644 c 0,29,30
 278 675 278 675 266 697.5 c 128,-1,31
 254 720 254 720 229 720 c 0,16,17
EndSplineSet
EndChar

StartChar: plusminus
Encoding: 177 177 112
Width: 467
Flags: W
LayerCount: 2
Back
Fore
SplineSet
275 321 m 1,0,-1
 250 183 l 1,1,-1
 173 183 l 1,2,-1
 198 321 l 1,3,-1
 70 321 l 1,4,-1
 83 397 l 1,5,-1
 211 397 l 1,6,-1
 235 532 l 1,7,-1
 312 532 l 1,8,-1
 289 397 l 1,9,-1
 416 397 l 1,10,-1
 403 321 l 1,11,-1
 275 321 l 1,0,-1
20 38 m 1,12,-1
 34 114 l 1,13,-1
 367 114 l 1,14,-1
 353 38 l 1,15,-1
 20 38 l 1,12,-1
EndSplineSet
EndChar

StartChar: twosuperior
Encoding: 178 178 113
Width: 293
Flags: W
LayerCount: 2
Back
Fore
SplineSet
28 320 m 1,0,1
 91 396 91 396 129 444.5 c 128,-1,2
 167 493 167 493 187.5 523.5 c 128,-1,3
 208 554 208 554 214 572 c 128,-1,4
 220 590 220 590 220 605 c 0,5,6
 220 642 220 642 189 642 c 0,7,8
 172 642 172 642 156.5 634.5 c 128,-1,9
 141 627 141 627 128.5 616.5 c 128,-1,10
 116 606 116 606 107.5 595.5 c 128,-1,11
 99 585 99 585 95 579 c 1,12,-1
 95 651 l 1,13,14
 109 669 109 669 140.5 687.5 c 128,-1,15
 172 706 172 706 215 706 c 0,16,17
 239 706 239 706 255 698.5 c 128,-1,18
 271 691 271 691 280.5 679 c 128,-1,19
 290 667 290 667 294 652.5 c 128,-1,20
 298 638 298 638 298 624 c 0,21,22
 298 604 298 604 291.5 582.5 c 128,-1,23
 285 561 285 561 270.5 534.5 c 128,-1,24
 256 508 256 508 233.5 475 c 128,-1,25
 211 442 211 442 180 400 c 1,26,-1
 272 400 l 1,27,-1
 257 320 l 1,28,-1
 28 320 l 1,0,1
EndSplineSet
EndChar

StartChar: threesuperior
Encoding: 179 179 114
Width: 293
Flags: W
LayerCount: 2
Back
Fore
SplineSet
120 312 m 0,0,1
 104 312 104 312 88.5 315.5 c 128,-1,2
 73 319 73 319 60.5 323.5 c 128,-1,3
 48 328 48 328 39.5 333 c 128,-1,4
 31 338 31 338 29 342 c 2,5,-1
 62 416 l 2,6,7
 62 411 62 411 68.5 407 c 128,-1,8
 75 403 75 403 85.5 399.5 c 128,-1,9
 96 396 96 396 108 394 c 128,-1,10
 120 392 120 392 130 392 c 0,11,12
 162 392 162 392 182 404.5 c 128,-1,13
 202 417 202 417 202 452 c 0,14,15
 202 470 202 470 194 482.5 c 128,-1,16
 186 495 186 495 163 495 c 2,17,-1
 107 495 l 1,18,-1
 124 556 l 1,19,-1
 153 556 l 2,20,21
 190 556 190 556 202 573 c 128,-1,22
 214 590 214 590 214 607 c 0,23,24
 214 620 214 620 206 629.5 c 128,-1,25
 198 639 198 639 175 639 c 0,26,27
 165 639 165 639 146 637 c 128,-1,28
 127 635 127 635 113 624 c 1,29,-1
 111 681 l 1,30,31
 123 690 123 690 148.5 698 c 128,-1,32
 174 706 174 706 197 706 c 0,33,34
 227 706 227 706 245 697.5 c 128,-1,35
 263 689 263 689 272 674 c 128,-1,36
 281 659 281 659 284 639 c 128,-1,37
 287 619 287 619 287 595 c 0,38,39
 287 573 287 573 278.5 556 c 128,-1,40
 270 539 270 539 258 530 c 1,41,42
 266 518 266 518 273 500.5 c 128,-1,43
 280 483 280 483 280 458 c 0,44,45
 280 422 280 422 266 394.5 c 128,-1,46
 252 367 252 367 229 349 c 128,-1,47
 206 331 206 331 177.5 321.5 c 128,-1,48
 149 312 149 312 120 312 c 0,0,1
EndSplineSet
EndChar

StartChar: acute
Encoding: 180 180 115
Width: 279
Flags: W
LayerCount: 2
Back
Fore
SplineSet
158 592 m 1,0,-1
 167 645 l 1,1,-1
 352 738 l 1,2,-1
 338 655 l 1,3,-1
 158 592 l 1,0,-1
EndSplineSet
EndChar

StartChar: mu
Encoding: 181 181 116
Width: 572
Flags: W
LayerCount: 2
Back
Fore
SplineSet
455 -10 m 1,0,-1
 420 -10 l 2,1,2
 350 -10 350 -10 335 56 c 1,3,4
 309 27 309 27 276 8.5 c 128,-1,5
 243 -10 243 -10 208 -10 c 0,6,7
 184 -10 184 -10 165 -4.5 c 128,-1,8
 146 1 146 1 128 20 c 1,9,-1
 82 -242 l 1,10,-1
 -20 -242 l 1,11,-1
 109 493 l 1,12,-1
 211 493 l 1,13,-1
 166 232 l 2,14,15
 163 213 163 213 161 196.5 c 128,-1,16
 159 180 159 180 159 166 c 0,17,18
 159 122 159 122 176 100 c 128,-1,19
 193 78 193 78 233 78 c 0,20,21
 263 78 263 78 286.5 90.5 c 128,-1,22
 310 103 310 103 333 130 c 1,23,-1
 397 493 l 1,24,-1
 499 493 l 1,25,-1
 442 171 l 2,26,27
 435 136 435 136 435 111 c 0,28,29
 435 91 435 91 441.5 81.5 c 128,-1,30
 448 72 448 72 465 72 c 2,31,-1
 481 72 l 1,32,-1
 455 -10 l 1,0,-1
EndSplineSet
EndChar

StartChar: paragraph
Encoding: 182 182 117
Width: 584
Flags: W
LayerCount: 2
Back
Fore
SplineSet
521 619 m 1,0,-1
 411 0 l 1,1,-1
 343 0 l 1,2,-1
 452 619 l 1,3,-1
 386 619 l 1,4,-1
 277 0 l 1,5,-1
 222 0 l 1,6,-1
 264 238 l 1,7,8
 211 242 211 242 173 260 c 128,-1,9
 135 278 135 278 110.5 305.5 c 128,-1,10
 86 333 86 333 74 367.5 c 128,-1,11
 62 402 62 402 62 438 c 0,12,13
 62 484 62 484 82 531 c 128,-1,14
 102 578 102 578 140 615.5 c 128,-1,15
 178 653 178 653 234.5 676.5 c 128,-1,16
 291 700 291 700 365 700 c 2,17,-1
 599 700 l 1,18,-1
 584 619 l 1,19,-1
 521 619 l 1,0,-1
EndSplineSet
EndChar

StartChar: periodcentered
Encoding: 183 183 118
Width: 230
Flags: W
LayerCount: 2
Back
Fore
SplineSet
43 213 m 1,0,-1
 66 343 l 1,1,-1
 178 343 l 1,2,-1
 155 213 l 1,3,-1
 43 213 l 1,0,-1
EndSplineSet
EndChar

StartChar: cedilla
Encoding: 184 184 119
Width: 278
Flags: W
LayerCount: 2
Back
Fore
SplineSet
150 -186 m 1,0,-1
 90 -193 l 1,1,-1
 176 -60 l 1,2,-1
 260 -53 l 1,3,-1
 150 -186 l 1,0,-1
EndSplineSet
EndChar

StartChar: onesuperior
Encoding: 185 185 120
Width: 214
Flags: W
LayerCount: 2
Back
Fore
SplineSet
76 320 m 1,0,-1
 123 585 l 2,1,2
 121 583 121 583 109.5 579.5 c 128,-1,3
 98 576 98 576 82 574 c 1,4,-1
 91 639 l 1,5,6
 97 640 97 640 107.5 645.5 c 128,-1,7
 118 651 118 651 128 659.5 c 128,-1,8
 138 668 138 668 147 678 c 128,-1,9
 156 688 156 688 159 698 c 1,10,-1
 223 698 l 1,11,-1
 157 320 l 1,12,-1
 76 320 l 1,0,-1
EndSplineSet
EndChar

StartChar: ordmasculine
Encoding: 186 186 121
Width: 357
Flags: W
LayerCount: 2
Back
Fore
SplineSet
199 434 m 0,0,1
 170 434 170 434 148 444 c 128,-1,2
 126 454 126 454 111 470.5 c 128,-1,3
 96 487 96 487 88.5 509.5 c 128,-1,4
 81 532 81 532 81 557 c 0,5,6
 81 590 81 590 93.5 620.5 c 128,-1,7
 106 651 106 651 128.5 674.5 c 128,-1,8
 151 698 151 698 182 712.5 c 128,-1,9
 213 727 213 727 251 727 c 0,10,11
 281 727 281 727 303 717 c 128,-1,12
 325 707 325 707 340 690.5 c 128,-1,13
 355 674 355 674 362.5 652 c 128,-1,14
 370 630 370 630 370 605 c 0,15,16
 370 572 370 572 357.5 541.5 c 128,-1,17
 345 511 345 511 322.5 487 c 128,-1,18
 300 463 300 463 268.5 448.5 c 128,-1,19
 237 434 237 434 199 434 c 0,0,1
240 662 m 0,20,21
 225 662 225 662 212 653.5 c 128,-1,22
 199 645 199 645 189.5 631 c 128,-1,23
 180 617 180 617 174.5 599 c 128,-1,24
 169 581 169 581 169 561 c 0,25,26
 169 535 169 535 179.5 517.5 c 128,-1,27
 190 500 190 500 211 500 c 0,28,29
 227 500 227 500 240 508.5 c 128,-1,30
 253 517 253 517 262.5 531 c 128,-1,31
 272 545 272 545 277.5 563 c 128,-1,32
 283 581 283 581 283 601 c 0,33,34
 283 627 283 627 272 644.5 c 128,-1,35
 261 662 261 662 240 662 c 0,20,21
EndSplineSet
EndChar

StartChar: guillemotright
Encoding: 187 187 122
Width: 557
Flags: W
LayerCount: 2
Back
Fore
SplineSet
358 78 m 1,0,-1
 237 78 l 1,1,-1
 409 284 l 1,2,-1
 310 490 l 1,3,-1
 430 490 l 1,4,-1
 529 284 l 1,5,-1
 358 78 l 1,0,-1
123 78 m 1,6,-1
 3 78 l 1,7,-1
 176 284 l 1,8,-1
 76 490 l 1,9,-1
 196 490 l 1,10,-1
 295 284 l 1,11,-1
 123 78 l 1,6,-1
EndSplineSet
EndChar

StartChar: questiondown
Encoding: 191 191 126
Width: 420
Flags: W
LayerCount: 2
Back
Fore
SplineSet
269 300 m 1,0,1
 267 275 267 275 266 265 c 128,-1,2
 265 255 265 255 264 252 c 0,3,4
 258 218 258 218 242.5 189.5 c 128,-1,5
 227 161 227 161 207.5 135 c 128,-1,6
 188 109 188 109 166.5 84.5 c 128,-1,7
 145 60 145 60 127.5 33.5 c 128,-1,8
 110 7 110 7 98.5 -21.5 c 128,-1,9
 87 -50 87 -50 87 -84 c 0,10,11
 87 -130 87 -130 110.5 -151.5 c 128,-1,12
 134 -173 134 -173 167 -173 c 0,13,14
 187 -173 187 -173 206 -166.5 c 128,-1,15
 225 -160 225 -160 241.5 -150 c 128,-1,16
 258 -140 258 -140 271 -128.5 c 128,-1,17
 284 -117 284 -117 293 -106 c 1,18,-1
 304 -182 l 1,19,20
 278 -213 278 -213 236 -231.5 c 128,-1,21
 194 -250 194 -250 148 -250 c 0,22,23
 106 -250 106 -250 76.5 -235 c 128,-1,24
 47 -220 47 -220 27.5 -196.5 c 128,-1,25
 8 -173 8 -173 -1 -144 c 128,-1,26
 -10 -115 -10 -115 -10 -87 c 0,27,28
 -10 -52 -10 -52 3.5 -20 c 128,-1,29
 17 12 17 12 38.5 42 c 128,-1,30
 60 72 60 72 85 100.5 c 128,-1,31
 110 129 110 129 133 158 c 128,-1,32
 156 187 156 187 173 216.5 c 128,-1,33
 190 246 190 246 196 278 c 2,34,-1
 200 300 l 1,35,-1
 269 300 l 1,0,1
321 500 m 1,36,-1
 304 401 l 1,37,-1
 201 401 l 1,38,-1
 218 500 l 1,39,-1
 321 500 l 1,36,-1
EndSplineSet
EndChar

StartChar: AE
Encoding: 198 198 133
Width: 808
Flags: W
LayerCount: 2
Back
Fore
SplineSet
426 0 m 1,0,-1
 312 0 l 1,1,-1
 342 176 l 1,2,-1
 163 176 l 1,3,-1
 56 0 l 1,4,-1
 -53 0 l 1,5,-1
 378 700 l 1,6,-1
 819 700 l 1,7,-1
 801 600 l 1,8,-1
 531 600 l 1,9,-1
 498 415 l 1,10,-1
 707 415 l 1,11,-1
 689 316 l 1,12,-1
 481 316 l 1,13,-1
 442 99 l 1,14,-1
 721 99 l 1,15,-1
 704 0 l 1,16,-1
 426 0 l 1,0,-1
417 598 m 1,17,-1
 230 279 l 1,18,-1
 361 279 l 1,19,-1
 417 598 l 1,17,-1
EndSplineSet
EndChar

StartChar: Eth
Encoding: 208 208 143
Width: 688
Flags: W
LayerCount: 2
Back
Fore
SplineSet
140 0 m 1,0,-1
 36 0 l 1,1,-1
 90 308 l 1,2,-1
 6 308 l 1,3,-1
 19 383 l 1,4,-1
 103 383 l 1,5,-1
 159 700 l 1,6,-1
 393 700 l 2,7,8
 451 700 451 700 498.5 681 c 128,-1,9
 546 662 546 662 580 626 c 128,-1,10
 614 590 614 590 632 538.5 c 128,-1,11
 650 487 650 487 650 421 c 0,12,13
 650 324 650 324 620 246 c 128,-1,14
 590 168 590 168 538.5 113.5 c 128,-1,15
 487 59 487 59 417.5 29.5 c 128,-1,16
 348 0 348 0 270 0 c 2,17,-1
 140 0 l 1,0,-1
247 601 m 1,18,-1
 208 383 l 1,19,-1
 321 383 l 1,20,-1
 308 308 l 1,21,-1
 195 308 l 1,22,-1
 158 99 l 1,23,-1
 287 99 l 2,24,25
 347 99 347 99 393 123.5 c 128,-1,26
 439 148 439 148 470.5 190 c 128,-1,27
 502 232 502 232 518 289 c 128,-1,28
 534 346 534 346 534 412 c 0,29,30
 534 498 534 498 495 549.5 c 128,-1,31
 456 601 456 601 376 601 c 2,32,-1
 247 601 l 1,18,-1
EndSplineSet
EndChar

StartChar: multiply
Encoding: 215 215 150
Width: 422
Flags: W
LayerCount: 2
Back
Fore
SplineSet
276 116 m 1,0,-1
 196 233 l 1,1,-1
 75 116 l 1,2,-1
 35 160 l 1,3,-1
 157 277 l 1,4,-1
 77 394 l 1,5,-1
 133 438 l 1,6,-1
 212 321 l 1,7,-1
 334 438 l 1,8,-1
 374 394 l 1,9,-1
 253 277 l 1,10,-1
 333 160 l 1,11,-1
 276 116 l 1,0,-1
EndSplineSet
EndChar

StartChar: Oslash
Encoding: 216 216 151
Width: 721
Flags: W
LayerCount: 2
Back
Fore
SplineSet
301 -13 m 0,0,1
 219 -13 219 -13 159 28 c 1,2,-1
 116 -30 l 1,3,-1
 5 -30 l 1,4,-1
 96 79 l 1,5,6
 72 117 72 117 59.5 169 c 128,-1,7
 47 221 47 221 47 278 c 0,8,9
 47 374 47 374 77.5 454 c 128,-1,10
 108 534 108 534 160 592 c 128,-1,11
 212 650 212 650 281.5 682 c 128,-1,12
 351 714 351 714 429 714 c 0,13,14
 509 714 509 714 567 675 c 1,15,-1
 598 716 l 1,16,-1
 708 716 l 1,17,-1
 631 623 l 1,18,19
 657 585 657 585 670.5 532.5 c 128,-1,20
 684 480 684 480 684 421 c 0,21,22
 684 325 684 325 653.5 245.5 c 128,-1,23
 623 166 623 166 571 108.5 c 128,-1,24
 519 51 519 51 449 19 c 128,-1,25
 379 -13 379 -13 301 -13 c 0,0,1
234 112 m 1,26,27
 254 98 254 98 274.5 92.5 c 128,-1,28
 295 87 295 87 319 87 c 0,29,30
 378 87 378 87 424 114 c 128,-1,31
 470 141 470 141 502 187 c 128,-1,32
 534 233 534 233 550.5 294 c 128,-1,33
 567 355 567 355 567 422 c 0,34,35
 567 448 567 448 563 480 c 128,-1,36
 559 512 559 512 551 532 c 1,37,-1
 234 112 l 1,26,27
411 613 m 0,38,39
 352 613 352 613 306.5 586 c 128,-1,40
 261 559 261 559 229.5 513.5 c 128,-1,41
 198 468 198 468 181.5 408.5 c 128,-1,42
 165 349 165 349 165 284 c 0,43,44
 165 258 165 258 168 228 c 128,-1,45
 171 198 171 198 177 172 c 1,46,-1
 493 589 l 1,47,48
 473 603 473 603 453.5 608 c 128,-1,49
 434 613 434 613 411 613 c 0,38,39
EndSplineSet
EndChar

StartChar: Thorn
Encoding: 222 222 157
Width: 533
Flags: W
LayerCount: 2
Back
Fore
SplineSet
156 121 m 1,0,-1
 135 0 l 1,1,-1
 27 0 l 1,2,-1
 150 700 l 1,3,-1
 258 700 l 1,4,-1
 237 581 l 1,5,-1
 315 581 l 2,6,7
 366 581 366 581 407 575 c 128,-1,8
 448 569 448 569 477 551.5 c 128,-1,9
 506 534 506 534 522 502.5 c 128,-1,10
 538 471 538 471 538 419 c 0,11,12
 538 332 538 332 511.5 274.5 c 128,-1,13
 485 217 485 217 445 183 c 128,-1,14
 405 149 405 149 359.5 135 c 128,-1,15
 314 121 314 121 276 121 c 2,16,-1
 156 121 l 1,0,-1
221 489 m 1,17,-1
 174 218 l 1,18,-1
 278 218 l 2,19,20
 321 218 321 218 349.5 231.5 c 128,-1,21
 378 245 378 245 395.5 269 c 128,-1,22
 413 293 413 293 420 326.5 c 128,-1,23
 427 360 427 360 427 399 c 0,24,25
 427 447 427 447 402 468 c 128,-1,26
 377 489 377 489 316 489 c 2,27,-1
 221 489 l 1,17,-1
EndSplineSet
EndChar

StartChar: germandbls
Encoding: 223 223 158
Width: 525
Flags: W
LayerCount: 2
Back
Fore
SplineSet
240 -10 m 0,0,1
 226 -10 226 -10 213 -9 c 128,-1,2
 200 -8 200 -8 189 -6 c 1,3,-1
 204 78 l 1,4,5
 245 78 245 78 275 79.5 c 128,-1,6
 305 81 305 81 325 89 c 128,-1,7
 345 97 345 97 354.5 115 c 128,-1,8
 364 133 364 133 364 166 c 0,9,10
 364 200 364 200 349 227 c 128,-1,11
 334 254 334 254 315.5 277 c 128,-1,12
 297 300 297 300 282 320 c 128,-1,13
 267 340 267 340 267 360 c 0,14,15
 267 382 267 382 286 404.5 c 128,-1,16
 305 427 305 427 328.5 454.5 c 128,-1,17
 352 482 352 482 371 516 c 128,-1,18
 390 550 390 550 390 595 c 0,19,20
 390 633 390 633 371.5 647.5 c 128,-1,21
 353 662 353 662 327 662 c 0,22,23
 288 662 288 662 265.5 638 c 128,-1,24
 243 614 243 614 232 552 c 2,25,-1
 111 -136 l 1,26,-1
 8 -136 l 1,27,-1
 105 412 l 1,28,-1
 37 412 l 1,29,-1
 61 493 l 1,30,-1
 119 493 l 1,31,-1
 133 569 l 2,32,33
 140 612 140 612 159 645.5 c 128,-1,34
 178 679 178 679 205.5 702.5 c 128,-1,35
 233 726 233 726 267 738 c 128,-1,36
 301 750 301 750 340 750 c 0,37,38
 365 750 365 750 392 742 c 128,-1,39
 419 734 419 734 441 716.5 c 128,-1,40
 463 699 463 699 477 672 c 128,-1,41
 491 645 491 645 491 607 c 0,42,43
 491 556 491 556 473.5 517.5 c 128,-1,44
 456 479 456 479 434.5 450.5 c 128,-1,45
 413 422 413 422 395.5 403 c 128,-1,46
 378 384 378 384 378 372 c 256,47,48
 378 360 378 360 392.5 343.5 c 128,-1,49
 407 327 407 327 424 304 c 128,-1,50
 441 281 441 281 455.5 249.5 c 128,-1,51
 470 218 470 218 470 176 c 0,52,53
 470 125 470 125 450.5 89.5 c 128,-1,54
 431 54 431 54 398.5 32 c 128,-1,55
 366 10 366 10 324.5 0 c 128,-1,56
 283 -10 283 -10 240 -10 c 0,0,1
EndSplineSet
EndChar

StartChar: ae
Encoding: 230 230 165
Width: 743
Flags: W
LayerCount: 2
Back
Fore
SplineSet
390 237 m 1,0,1
 389 229 389 229 388.5 221.5 c 128,-1,2
 388 214 388 214 388 207 c 0,3,4
 388 138 388 138 418.5 105 c 128,-1,5
 449 72 449 72 496 72 c 0,6,7
 528 72 528 72 565 83 c 128,-1,8
 602 94 602 94 636 111 c 1,9,-1
 630 29 l 1,10,11
 598 13 598 13 559.5 1.5 c 128,-1,12
 521 -10 521 -10 474 -10 c 0,13,14
 407 -10 407 -10 366 16 c 128,-1,15
 325 42 325 42 312 96 c 1,16,17
 275 43 275 43 226.5 14.5 c 128,-1,18
 178 -14 178 -14 115 -14 c 0,19,20
 53 -14 53 -14 22.5 15.5 c 128,-1,21
 -8 45 -8 45 -8 96 c 0,22,23
 -8 139 -8 139 6.5 171.5 c 128,-1,24
 21 204 21 204 45 227 c 128,-1,25
 69 250 69 250 100 265.5 c 128,-1,26
 131 281 131 281 164 290 c 128,-1,27
 197 299 197 299 229 303 c 128,-1,28
 261 307 261 307 287 309 c 1,29,30
 288 317 288 317 288.5 324.5 c 128,-1,31
 289 332 289 332 289 339 c 0,32,33
 289 378 289 378 272.5 395.5 c 128,-1,34
 256 413 256 413 216 413 c 0,35,36
 186 413 186 413 157 405.5 c 128,-1,37
 128 398 128 398 91 381 c 1,38,-1
 96 462 l 1,39,40
 184 503 184 503 260 503 c 0,41,42
 282 503 282 503 303 498.5 c 128,-1,43
 324 494 324 494 340 482 c 128,-1,44
 356 470 356 470 366 448.5 c 128,-1,45
 376 427 376 427 378 393 c 1,46,47
 401 448 401 448 451 475.5 c 128,-1,48
 501 503 501 503 557 503 c 0,49,50
 624 503 624 503 663 460.5 c 128,-1,51
 702 418 702 418 702 341 c 0,52,53
 702 312 702 312 696.5 289 c 128,-1,54
 691 266 691 266 680 237 c 1,55,-1
 390 237 l 1,0,1
538 415 m 0,56,57
 495 415 495 415 460.5 388 c 128,-1,58
 426 361 426 361 406 307 c 1,59,-1
 605 307 l 1,60,61
 608 326 608 326 608 343 c 0,62,63
 608 377 608 377 592 396 c 128,-1,64
 576 415 576 415 538 415 c 0,56,57
282 240 m 1,65,66
 255 240 255 240 223 233.5 c 128,-1,67
 191 227 191 227 164 212.5 c 128,-1,68
 137 198 137 198 119 174.5 c 128,-1,69
 101 151 101 151 101 117 c 0,70,71
 101 92 101 92 115 80.5 c 128,-1,72
 129 69 129 69 151 69 c 256,73,74
 173 69 173 69 194 78.5 c 128,-1,75
 215 88 215 88 232.5 108.5 c 128,-1,76
 250 129 250 129 263 161.5 c 128,-1,77
 276 194 276 194 282 240 c 1,65,66
EndSplineSet
Substitution2: "'smcp' Lowercase to Small Capitals in Latin lookup 1 subtable" AE.sc
Substitution2: "'aalt' Access All Alternates in Latin lookup 0 subtable" AE.sc
EndChar

StartChar: eth
Encoding: 240 240 175
Width: 488
Flags: W
LayerCount: 2
Back
Fore
SplineSet
173 -12 m 0,0,1
 135 -12 135 -12 104 1 c 128,-1,2
 73 14 73 14 51 38 c 128,-1,3
 29 62 29 62 17 95 c 128,-1,4
 5 128 5 128 5 167 c 0,5,6
 5 209 5 209 21 254.5 c 128,-1,7
 37 300 37 300 67 338.5 c 128,-1,8
 97 377 97 377 140.5 401.5 c 128,-1,9
 184 426 184 426 239 426 c 0,10,11
 259 426 259 426 275 421.5 c 128,-1,12
 291 417 291 417 303 410 c 128,-1,13
 315 403 315 403 324 394 c 128,-1,14
 333 385 333 385 340 377 c 1,15,16
 341 382 341 382 341 388.5 c 128,-1,17
 341 395 341 395 341 402 c 0,18,19
 341 421 341 421 338.5 443 c 128,-1,20
 336 465 336 465 331.5 486 c 128,-1,21
 327 507 327 507 320.5 524.5 c 128,-1,22
 314 542 314 542 305 552 c 1,23,24
 236 501 236 501 170 492 c 1,25,-1
 148 553 l 1,26,27
 172 556 172 556 202 567 c 128,-1,28
 232 578 232 578 267 603 c 1,29,30
 247 628 247 628 221.5 639.5 c 128,-1,31
 196 651 196 651 169 655 c 1,32,-1
 212 701 l 1,33,34
 243 701 243 701 274 688 c 128,-1,35
 305 675 305 675 334 647 c 1,36,37
 354 664 354 664 369 679 c 128,-1,38
 384 694 384 694 396 710 c 1,39,-1
 448 697 l 1,40,41
 430 674 430 674 412 653.5 c 128,-1,42
 394 633 394 633 371 610 c 1,43,44
 387 587 387 587 399.5 557 c 128,-1,45
 412 527 412 527 420.5 492 c 128,-1,46
 429 457 429 457 433.5 419 c 128,-1,47
 438 381 438 381 438 343 c 0,48,49
 438 237 438 237 412 168 c 128,-1,50
 386 99 386 99 346.5 59 c 128,-1,51
 307 19 307 19 260.5 3.5 c 128,-1,52
 214 -12 214 -12 173 -12 c 0,0,1
235 338 m 0,53,54
 206 338 206 338 182.5 324.5 c 128,-1,55
 159 311 159 311 142.5 289.5 c 128,-1,56
 126 268 126 268 117 240 c 128,-1,57
 108 212 108 212 108 183 c 0,58,59
 108 139 108 139 128 108 c 128,-1,60
 148 77 148 77 191 77 c 0,61,62
 214 77 214 77 237 88.5 c 128,-1,63
 260 100 260 100 278 121 c 128,-1,64
 296 142 296 142 307 171.5 c 128,-1,65
 318 201 318 201 318 238 c 0,66,67
 318 283 318 283 297.5 310.5 c 128,-1,68
 277 338 277 338 235 338 c 0,53,54
EndSplineSet
EndChar

StartChar: divide
Encoding: 247 247 182
Width: 550
Flags: W
LayerCount: 2
Back
Fore
SplineSet
237 428 m 1,0,-1
 256 534 l 1,1,-1
 358 534 l 1,2,-1
 340 428 l 1,3,-1
 237 428 l 1,0,-1
52 240 m 1,4,-1
 66 321 l 1,5,-1
 480 321 l 1,6,-1
 466 240 l 1,7,-1
 52 240 l 1,4,-1
165 20 m 1,8,-1
 184 126 l 1,9,-1
 286 126 l 1,10,-1
 268 20 l 1,11,-1
 165 20 l 1,8,-1
EndSplineSet
EndChar

StartChar: oslash
Encoding: 248 248 183
Width: 532
Flags: W
LayerCount: 2
Back
Fore
SplineSet
209 -11 m 0,0,1
 174 -11 174 -11 143 -1 c 1,2,-1
 122 -37 l 1,3,-1
 35 -37 l 1,4,-1
 79 32 l 1,5,6
 50 62 50 62 35.5 106.5 c 128,-1,7
 21 151 21 151 21 199 c 0,8,9
 21 259 21 259 41 314 c 128,-1,10
 61 369 61 369 98 411.5 c 128,-1,11
 135 454 135 454 186 479.5 c 128,-1,12
 237 505 237 505 299 505 c 0,13,14
 333 505 333 505 362 494 c 1,15,-1
 384 532 l 1,16,-1
 473 532 l 1,17,-1
 428 463 l 1,18,19
 457 431 457 431 472 386.5 c 128,-1,20
 487 342 487 342 487 294 c 0,21,22
 487 234 487 234 467 179 c 128,-1,23
 447 124 447 124 410 82 c 128,-1,24
 373 40 373 40 322 14.5 c 128,-1,25
 271 -11 271 -11 209 -11 c 0,0,1
194 75 m 1,26,27
 205 72 205 72 211 71 c 128,-1,28
 217 70 217 70 223 70 c 0,29,30
 258 70 258 70 287 88.5 c 128,-1,31
 316 107 316 107 337 139 c 128,-1,32
 358 171 358 171 369.5 214 c 128,-1,33
 381 257 381 257 381 307 c 0,34,35
 381 325 381 325 379 347.5 c 128,-1,36
 377 370 377 370 371 379 c 1,37,-1
 194 75 l 1,26,27
285 424 m 0,38,39
 250 424 250 424 221 406 c 128,-1,40
 192 388 192 388 171 356.5 c 128,-1,41
 150 325 150 325 138.5 283.5 c 128,-1,42
 127 242 127 242 127 196 c 0,43,44
 127 180 127 180 129 158 c 128,-1,45
 131 136 131 136 136 115 c 1,46,-1
 311 418 l 1,47,48
 301 422 301 422 295.5 423 c 128,-1,49
 290 424 290 424 285 424 c 0,38,39
EndSplineSet
EndChar

StartChar: thorn
Encoding: 254 254 189
Width: 543
Flags: W
LayerCount: 2
Back
Fore
SplineSet
224 -10 m 0,0,1
 186 -10 186 -10 161 4 c 128,-1,2
 136 18 136 18 119 45 c 1,3,-1
 69 -241 l 1,4,-1
 -34 -241 l 1,5,-1
 141 750 l 1,6,-1
 244 750 l 1,7,-1
 191 451 l 1,8,9
 220 477 220 477 249.5 490 c 128,-1,10
 279 503 279 503 316 503 c 0,11,12
 361 503 361 503 394.5 486.5 c 128,-1,13
 428 470 428 470 450.5 442 c 128,-1,14
 473 414 473 414 484.5 376.5 c 128,-1,15
 496 339 496 339 496 296 c 0,16,17
 496 237 496 237 477 182 c 128,-1,18
 458 127 458 127 422.5 84 c 128,-1,19
 387 41 387 41 337 15.5 c 128,-1,20
 287 -10 287 -10 224 -10 c 0,0,1
292 415 m 0,21,22
 253 415 253 415 224.5 396.5 c 128,-1,23
 196 378 196 378 178 347 c 128,-1,24
 160 316 160 316 151.5 277 c 128,-1,25
 143 238 143 238 143 197 c 0,26,27
 143 144 143 144 163.5 108 c 128,-1,28
 184 72 184 72 231 72 c 0,29,30
 267 72 267 72 296.5 89.5 c 128,-1,31
 326 107 326 107 347 136.5 c 128,-1,32
 368 166 368 166 379 205 c 128,-1,33
 390 244 390 244 390 288 c 0,34,35
 390 345 390 345 365.5 380 c 128,-1,36
 341 415 341 415 292 415 c 0,21,22
EndSplineSet
EndChar

StartChar: dotlessi
Encoding: 305 305 193
Width: 223
Flags: W
LayerCount: 2
Back
Fore
SplineSet
9 0 m 1,0,-1
 96 493 l 1,1,-1
 199 493 l 1,2,-1
 112 0 l 1,3,-1
 9 0 l 1,0,-1
EndSplineSet
EndChar

StartChar: OE
Encoding: 338 338 194
Width: 993
Flags: W
LayerCount: 2
Back
Fore
SplineSet
609 0 m 1,0,-1
 501 0 l 1,1,-1
 513 73 l 1,2,3
 458 26 458 26 405.5 6 c 128,-1,4
 353 -14 353 -14 297 -14 c 0,5,6
 240 -14 240 -14 193.5 6.5 c 128,-1,7
 147 27 147 27 114 65.5 c 128,-1,8
 81 104 81 104 63 158 c 128,-1,9
 45 212 45 212 45 278 c 0,10,11
 45 374 45 374 75.5 454.5 c 128,-1,12
 106 535 106 535 158 592.5 c 128,-1,13
 210 650 210 650 279 682 c 128,-1,14
 348 714 348 714 426 714 c 0,15,16
 482 714 482 714 527.5 694 c 128,-1,17
 573 674 573 674 611 627 c 1,18,-1
 624 699 l 1,19,-1
 1001 699 l 1,20,-1
 984 601 l 1,21,-1
 713 601 l 1,22,-1
 681 415 l 1,23,-1
 888 415 l 1,24,-1
 871 316 l 1,25,-1
 663 316 l 1,26,-1
 625 99 l 1,27,-1
 903 99 l 1,28,-1
 886 0 l 1,29,-1
 609 0 l 1,0,-1
408 615 m 0,30,31
 349 615 349 615 303 588 c 128,-1,32
 257 561 257 561 225.5 515 c 128,-1,33
 194 469 194 469 177.5 409.5 c 128,-1,34
 161 350 161 350 161 285 c 0,35,36
 161 242 161 242 170.5 205.5 c 128,-1,37
 180 169 180 169 199 142 c 128,-1,38
 218 115 218 115 247 100 c 128,-1,39
 276 85 276 85 315 85 c 0,40,41
 374 85 374 85 420 112 c 128,-1,42
 466 139 466 139 497.5 185 c 128,-1,43
 529 231 529 231 545.5 290.5 c 128,-1,44
 562 350 562 350 562 415 c 0,45,46
 562 458 562 458 552.5 494.5 c 128,-1,47
 543 531 543 531 524 558 c 128,-1,48
 505 585 505 585 476 600 c 128,-1,49
 447 615 447 615 408 615 c 0,30,31
EndSplineSet
EndChar

StartChar: oe
Encoding: 339 339 195
Width: 837
Flags: W
LayerCount: 2
Back
Fore
SplineSet
477 237 m 1,0,1
 475 226 475 226 475 217 c 128,-1,2
 475 208 475 208 475 200 c 0,3,4
 475 161 475 161 485 136 c 128,-1,5
 495 111 495 111 510.5 97 c 128,-1,6
 526 83 526 83 545.5 77.5 c 128,-1,7
 565 72 565 72 584 72 c 0,8,9
 618 72 618 72 658.5 83 c 128,-1,10
 699 94 699 94 730 111 c 1,11,-1
 721 24 l 1,12,13
 693 10 693 10 654.5 0 c 128,-1,14
 616 -10 616 -10 569 -10 c 0,15,16
 498 -10 498 -10 456.5 15 c 128,-1,17
 415 40 415 40 396 88 c 1,18,19
 361 40 361 40 311.5 15 c 128,-1,20
 262 -10 262 -10 205 -10 c 0,21,22
 159 -10 159 -10 124.5 6.5 c 128,-1,23
 90 23 90 23 66.5 51.5 c 128,-1,24
 43 80 43 80 31.5 118.5 c 128,-1,25
 20 157 20 157 20 201 c 0,26,27
 20 261 20 261 40 316 c 128,-1,28
 60 371 60 371 96.5 412.5 c 128,-1,29
 133 454 133 454 184 478.5 c 128,-1,30
 235 503 235 503 297 503 c 0,31,32
 350 503 350 503 391 479.5 c 128,-1,33
 432 456 432 456 451 409 c 1,34,35
 486 456 486 456 532.5 479.5 c 128,-1,36
 579 503 579 503 630 503 c 0,37,38
 704 503 704 503 749 458 c 128,-1,39
 794 413 794 413 794 333 c 0,40,41
 794 313 794 313 792 299 c 128,-1,42
 790 285 790 285 787 274 c 128,-1,43
 784 263 784 263 780 254.5 c 128,-1,44
 776 246 776 246 773 237 c 1,45,-1
 477 237 l 1,0,1
617 415 m 0,46,47
 529 415 529 415 492 307 c 1,48,-1
 687 307 l 1,49,50
 689 315 689 315 689 322 c 128,-1,51
 689 329 689 329 689 337 c 0,52,53
 689 372 689 372 672 393.5 c 128,-1,54
 655 415 655 415 617 415 c 0,46,47
281 415 m 0,55,56
 245 415 245 415 215.5 399 c 128,-1,57
 186 383 186 383 166 354.5 c 128,-1,58
 146 326 146 326 135 287 c 128,-1,59
 124 248 124 248 124 203 c 0,60,61
 124 145 124 145 149 111.5 c 128,-1,62
 174 78 174 78 222 78 c 0,63,64
 258 78 258 78 286.5 95.5 c 128,-1,65
 315 113 315 113 335 142 c 128,-1,66
 355 171 355 171 365.5 209 c 128,-1,67
 376 247 376 247 376 289 c 0,68,69
 376 345 376 345 352.5 380 c 128,-1,70
 329 415 329 415 281 415 c 0,55,56
EndSplineSet
Substitution2: "'smcp' Lowercase to Small Capitals in Latin lookup 1 subtable" OE.sc
Substitution2: "'aalt' Access All Alternates in Latin lookup 0 subtable" OE.sc
EndChar

StartChar: florin
Encoding: 402 402 201
Width: 334
Flags: W
LayerCount: 2
Back
Fore
SplineSet
393 634 m 1,0,1
 383 639 383 639 373.5 640.5 c 128,-1,2
 364 642 364 642 355 642 c 0,3,4
 333 642 333 642 316 634 c 128,-1,5
 299 626 299 626 285.5 608 c 128,-1,6
 272 590 272 590 260 561.5 c 128,-1,7
 248 533 248 533 236 493 c 1,8,-1
 357 493 l 1,9,-1
 339 428 l 1,10,-1
 214 428 l 1,11,-1
 50 -88 l 2,12,13
 36 -133 36 -133 17.5 -163 c 128,-1,14
 -1 -193 -1 -193 -19.5 -210 c 128,-1,15
 -38 -227 -38 -227 -55 -234 c 128,-1,16
 -72 -241 -72 -241 -83 -241 c 2,17,-1
 -106 -241 l 1,18,-1
 -109 -165 l 1,19,20
 -82 -161 -82 -161 -63.5 -141.5 c 128,-1,21
 -45 -122 -45 -122 -30 -71 c 2,22,-1
 124 428 l 1,23,-1
 50 428 l 1,24,-1
 69 493 l 1,25,-1
 146 493 l 1,26,-1
 161 547 l 2,27,28
 172 588 172 588 192.5 619 c 128,-1,29
 213 650 213 650 239 671 c 128,-1,30
 265 692 265 692 295.5 703 c 128,-1,31
 326 714 326 714 357 714 c 0,32,33
 372 714 372 714 386 711 c 128,-1,34
 400 708 400 708 414 703 c 1,35,-1
 393 634 l 1,0,1
EndSplineSet
EndChar

StartChar: dotlessj
Encoding: 567 567 202
Width: 222
Flags: W
LayerCount: 2
Back
Fore
SplineSet
-84 -242 m 1,0,-1
 -79 -162 l 1,1,2
 -61 -161 -61 -161 -49 -157 c 128,-1,3
 -37 -153 -37 -153 -29.5 -143.5 c 128,-1,4
 -22 -134 -22 -134 -16.5 -116.5 c 128,-1,5
 -11 -99 -11 -99 -6 -69 c 2,6,-1
 93 493 l 1,7,-1
 196 493 l 1,8,-1
 90 -108 l 2,9,10
 78 -174 78 -174 42.5 -204 c 128,-1,11
 7 -234 7 -234 -47 -239 c 2,12,-1
 -84 -242 l 1,0,-1
EndSplineSet
EndChar

StartChar: circumflex
Encoding: 710 710 203
Width: 411
Flags: W
LayerCount: 2
Back
Fore
SplineSet
321 675 m 1,0,-1
 175 597 l 1,1,-1
 183 646 l 1,2,-1
 333 747 l 1,3,-1
 448 646 l 1,4,-1
 440 597 l 1,5,-1
 321 675 l 1,0,-1
EndSplineSet
EndChar

StartChar: caron
Encoding: 711 711 204
Width: 411
Flags: W
LayerCount: 2
Back
Fore
SplineSet
307 595 m 1,0,-1
 192 691 l 1,1,-1
 201 743 l 1,2,-1
 320 669 l 1,3,-1
 466 743 l 1,4,-1
 457 691 l 1,5,-1
 307 595 l 1,0,-1
EndSplineSet
EndChar

StartChar: ring
Encoding: 730 730 205
Width: 269
Flags: W
LayerCount: 2
Back
Fore
SplineSet
234 576 m 0,0,1
 195 576 195 576 174.5 598.5 c 128,-1,2
 154 621 154 621 154 651 c 0,3,4
 154 671 154 671 162 689.5 c 128,-1,5
 170 708 170 708 185 722.5 c 128,-1,6
 200 737 200 737 220.5 746 c 128,-1,7
 241 755 241 755 265 755 c 0,8,9
 305 755 305 755 324.5 732.5 c 128,-1,10
 344 710 344 710 344 679 c 0,11,12
 344 659 344 659 336 640.5 c 128,-1,13
 328 622 328 622 314 608 c 128,-1,14
 300 594 300 594 279.5 585 c 128,-1,15
 259 576 259 576 234 576 c 0,0,1
259 718 m 0,16,17
 238 718 238 718 221.5 700 c 128,-1,18
 205 682 205 682 205 654 c 0,19,20
 205 634 205 634 214.5 623 c 128,-1,21
 224 612 224 612 240 612 c 0,22,23
 261 612 261 612 277.5 629 c 128,-1,24
 294 646 294 646 294 675 c 0,25,26
 294 694 294 694 284.5 706 c 128,-1,27
 275 718 275 718 259 718 c 0,16,17
EndSplineSet
EndChar

StartChar: tilde
Encoding: 732 732 206
Width: 487
Flags: W
LayerCount: 2
Back
Fore
SplineSet
410 599 m 0,0,1
 393 599 393 599 378.5 606.5 c 128,-1,2
 364 614 364 614 351.5 623 c 128,-1,3
 339 632 339 632 326.5 639.5 c 128,-1,4
 314 647 314 647 302 647 c 0,5,6
 280 647 280 647 266 633 c 128,-1,7
 252 619 252 619 244 599 c 1,8,-1
 184 611 l 1,9,10
 192 636 192 636 206 654 c 128,-1,11
 220 672 220 672 237.5 683.5 c 128,-1,12
 255 695 255 695 273 700.5 c 128,-1,13
 291 706 291 706 308 706 c 0,14,15
 326 706 326 706 339.5 698.5 c 128,-1,16
 353 691 353 691 365 682.5 c 128,-1,17
 377 674 377 674 388 666.5 c 128,-1,18
 399 659 399 659 412 659 c 0,19,20
 433 659 433 659 449.5 673.5 c 128,-1,21
 466 688 466 688 475 709 c 1,22,-1
 530 696 l 1,23,24
 516 654 516 654 484 626.5 c 128,-1,25
 452 599 452 599 410 599 c 0,0,1
EndSplineSet
EndChar

StartChar: endash
Encoding: 8211 8211 207
Width: 473
Flags: W
LayerCount: 2
Back
Fore
SplineSet
47 235 m 1,0,-1
 62 324 l 1,1,-1
 411 324 l 1,2,-1
 396 235 l 1,3,-1
 47 235 l 1,0,-1
EndSplineSet
EndChar

StartChar: emdash
Encoding: 8212 8212 208
Width: 558
Flags: W
LayerCount: 2
Back
Fore
SplineSet
47 235 m 1,0,-1
 62 324 l 1,1,-1
 494 324 l 1,2,-1
 479 235 l 1,3,-1
 47 235 l 1,0,-1
EndSplineSet
EndChar

StartChar: quoteleft
Encoding: 8216 8216 209
Width: 195
Flags: W
LayerCount: 2
Back
Fore
SplineSet
207 750 m 1,0,-1
 227 737 l 1,1,-1
 181 650 l 1,2,-1
 210 641 l 1,3,-1
 192 540 l 1,4,-1
 87 540 l 1,5,-1
 105 641 l 1,6,-1
 207 750 l 1,0,-1
EndSplineSet
EndChar

StartChar: quoteright
Encoding: 8217 8217 210
Width: 178
Flags: W
LayerCount: 2
Back
Fore
SplineSet
107 540 m 1,0,-1
 87 553 l 1,1,-1
 132 640 l 1,2,-1
 105 649 l 1,3,-1
 122 750 l 1,4,-1
 227 750 l 1,5,-1
 209 649 l 1,6,-1
 107 540 l 1,0,-1
EndSplineSet
EndChar

StartChar: quotesinglbase
Encoding: 8218 8218 211
Width: 221
Flags: W
LayerCount: 2
Back
Fore
SplineSet
9 -109 m 1,0,-1
 -11 -96 l 1,1,-1
 34 -9 l 1,2,-1
 7 0 l 1,3,-1
 24 101 l 1,4,-1
 129 101 l 1,5,-1
 111 0 l 1,6,-1
 9 -109 l 1,0,-1
EndSplineSet
EndChar

StartChar: quotedblleft
Encoding: 8220 8220 212
Width: 388
Flags: W
LayerCount: 2
Back
Fore
SplineSet
207 750 m 1,0,-1
 227 737 l 1,1,-1
 181 650 l 1,2,-1
 210 641 l 1,3,-1
 192 540 l 1,4,-1
 87 540 l 1,5,-1
 105 641 l 1,6,-1
 207 750 l 1,0,-1
396 750 m 1,7,-1
 416 737 l 1,8,-1
 370 650 l 1,9,-1
 399 641 l 1,10,-1
 381 540 l 1,11,-1
 276 540 l 1,12,-1
 294 641 l 1,13,-1
 396 750 l 1,7,-1
EndSplineSet
EndChar

StartChar: quotedblright
Encoding: 8221 8221 213
Width: 371
Flags: W
LayerCount: 2
Back
Fore
SplineSet
296 540 m 1,0,-1
 276 553 l 1,1,-1
 321 640 l 1,2,-1
 294 649 l 1,3,-1
 311 750 l 1,4,-1
 416 750 l 1,5,-1
 398 649 l 1,6,-1
 296 540 l 1,0,-1
107 540 m 1,7,-1
 87 553 l 1,8,-1
 132 640 l 1,9,-1
 105 649 l 1,10,-1
 122 750 l 1,11,-1
 227 750 l 1,12,-1
 209 649 l 1,13,-1
 107 540 l 1,7,-1
EndSplineSet
EndChar

StartChar: quotedblbase
Encoding: 8222 8222 214
Width: 434
Flags: W
LayerCount: 2
Back
Fore
SplineSet
9 -109 m 1,0,-1
 -11 -96 l 1,1,-1
 34 -9 l 1,2,-1
 7 0 l 1,3,-1
 24 101 l 1,4,-1
 129 101 l 1,5,-1
 111 0 l 1,6,-1
 9 -109 l 1,0,-1
216 -109 m 1,7,-1
 196 -96 l 1,8,-1
 241 -9 l 1,9,-1
 214 0 l 1,10,-1
 231 101 l 1,11,-1
 336 101 l 1,12,-1
 318 0 l 1,13,-1
 216 -109 l 1,7,-1
EndSplineSet
EndChar

StartChar: dagger
Encoding: 8224 8224 215
Width: 403
Flags: W
LayerCount: 2
Back
Fore
SplineSet
253 393 m 1,0,-1
 253 254 l 1,1,-1
 181 0 l 1,2,-1
 108 0 l 1,3,-1
 126 254 l 1,4,-1
 180 393 l 1,5,-1
 50 365 l 1,6,-1
 67 466 l 1,7,-1
 189 436 l 1,8,-1
 189 607 l 1,9,-1
 314 607 l 1,10,-1
 256 436 l 1,11,-1
 386 466 l 1,12,-1
 369 365 l 1,13,-1
 253 393 l 1,0,-1
EndSplineSet
EndChar

StartChar: daggerdbl
Encoding: 8225 8225 216
Width: 434
Flags: W
LayerCount: 2
Back
Fore
SplineSet
214 110 m 1,0,-1
 214 -59 l 1,1,-1
 89 -59 l 1,2,-1
 146 110 l 1,3,-1
 17 81 l 1,4,-1
 34 181 l 1,5,-1
 155 153 l 1,6,-1
 146 274 l 1,7,-1
 198 396 l 1,8,-1
 67 367 l 1,9,-1
 85 468 l 1,10,-1
 207 439 l 1,11,-1
 207 607 l 1,12,-1
 331 607 l 1,13,-1
 274 439 l 1,14,-1
 403 468 l 1,15,-1
 386 367 l 1,16,-1
 265 396 l 1,17,-1
 273 274 l 1,18,-1
 222 153 l 1,19,-1
 353 181 l 1,20,-1
 336 81 l 1,21,-1
 214 110 l 1,0,-1
EndSplineSet
EndChar

StartChar: bullet
Encoding: 8226 8226 217
Width: 291
Flags: W
LayerCount: 2
Back
Fore
SplineSet
121 169 m 0,0,1
 85 169 85 169 62.5 196 c 128,-1,2
 40 223 40 223 40 261 c 0,3,4
 40 286 40 286 50 309 c 128,-1,5
 60 332 60 332 77 349.5 c 128,-1,6
 94 367 94 367 115 377 c 128,-1,7
 136 387 136 387 159 387 c 0,8,9
 195 387 195 387 217.5 360 c 128,-1,10
 240 333 240 333 240 295 c 0,11,12
 240 269 240 269 230 246.5 c 128,-1,13
 220 224 220 224 203 206.5 c 128,-1,14
 186 189 186 189 164.5 179 c 128,-1,15
 143 169 143 169 121 169 c 0,0,1
EndSplineSet
EndChar

StartChar: ellipsis
Encoding: 8230 8230 218
Width: 652
Flags: W
LayerCount: 2
Back
Fore
SplineSet
6 0 m 1,0,-1
 24 101 l 1,1,-1
 127 101 l 1,2,-1
 109 0 l 1,3,-1
 6 0 l 1,0,-1
218 0 m 1,4,-1
 237 101 l 1,5,-1
 339 101 l 1,6,-1
 321 0 l 1,7,-1
 218 0 l 1,4,-1
431 0 m 1,8,-1
 449 101 l 1,9,-1
 552 101 l 1,10,-1
 534 0 l 1,11,-1
 431 0 l 1,8,-1
EndSplineSet
EndChar

StartChar: perthousand
Encoding: 8240 8240 219
Width: 1117
Flags: W
LayerCount: 2
Back
Fore
SplineSet
175 -12 m 1,0,-1
 89 -12 l 1,1,-1
 594 700 l 1,2,-1
 679 700 l 1,3,-1
 175 -12 l 1,0,-1
179 334 m 0,4,5
 128 334 128 334 100 370 c 128,-1,6
 72 406 72 406 72 471 c 0,7,8
 72 525 72 525 87 568 c 128,-1,9
 102 611 102 611 126.5 641.5 c 128,-1,10
 151 672 151 672 183 688.5 c 128,-1,11
 215 705 215 705 249 705 c 0,12,13
 297 705 297 705 326 668.5 c 128,-1,14
 355 632 355 632 355 566 c 0,15,16
 355 514 355 514 341.5 471.5 c 128,-1,17
 328 429 328 429 304 398.5 c 128,-1,18
 280 368 280 368 248 351 c 128,-1,19
 216 334 216 334 179 334 c 0,4,5
237 646 m 0,20,21
 220 646 220 646 202.5 634.5 c 128,-1,22
 185 623 185 623 171 601 c 128,-1,23
 157 579 157 579 147.5 548.5 c 128,-1,24
 138 518 138 518 138 480 c 0,25,26
 138 438 138 438 152.5 415.5 c 128,-1,27
 167 393 167 393 190 393 c 0,28,29
 210 393 210 393 228 405 c 128,-1,30
 246 417 246 417 259.5 439 c 128,-1,31
 273 461 273 461 281 491 c 128,-1,32
 289 521 289 521 289 557 c 0,33,34
 289 599 289 599 274.5 622.5 c 128,-1,35
 260 646 260 646 237 646 c 0,20,21
541 -12 m 0,36,37
 491 -12 491 -12 463 24 c 128,-1,38
 435 60 435 60 435 125 c 0,39,40
 435 179 435 179 450 222 c 128,-1,41
 465 265 465 265 489.5 295.5 c 128,-1,42
 514 326 514 326 545.5 342.5 c 128,-1,43
 577 359 577 359 611 359 c 0,44,45
 660 359 660 359 689 322.5 c 128,-1,46
 718 286 718 286 718 220 c 0,47,48
 718 168 718 168 704.5 125.5 c 128,-1,49
 691 83 691 83 667 52.5 c 128,-1,50
 643 22 643 22 610.5 5 c 128,-1,51
 578 -12 578 -12 541 -12 c 0,36,37
600 300 m 0,52,53
 583 300 583 300 565.5 288.5 c 128,-1,54
 548 277 548 277 533.5 255 c 128,-1,55
 519 233 519 233 510 202.5 c 128,-1,56
 501 172 501 172 501 134 c 0,57,58
 501 92 501 92 515.5 69.5 c 128,-1,59
 530 47 530 47 553 47 c 0,60,61
 573 47 573 47 591 59 c 128,-1,62
 609 71 609 71 622.5 93 c 128,-1,63
 636 115 636 115 644 145 c 128,-1,64
 652 175 652 175 652 211 c 0,65,66
 652 253 652 253 637 276.5 c 128,-1,67
 622 300 622 300 600 300 c 0,52,53
865 -12 m 0,68,69
 815 -12 815 -12 786.5 24 c 128,-1,70
 758 60 758 60 758 125 c 0,71,72
 758 179 758 179 773 222 c 128,-1,73
 788 265 788 265 812.5 295.5 c 128,-1,74
 837 326 837 326 869 342.5 c 128,-1,75
 901 359 901 359 935 359 c 0,76,77
 984 359 984 359 1013 322.5 c 128,-1,78
 1042 286 1042 286 1042 220 c 0,79,80
 1042 168 1042 168 1028.5 125.5 c 128,-1,81
 1015 83 1015 83 991 52.5 c 128,-1,82
 967 22 967 22 934.5 5 c 128,-1,83
 902 -12 902 -12 865 -12 c 0,68,69
924 300 m 0,84,85
 907 300 907 300 889 288.5 c 128,-1,86
 871 277 871 277 857 255 c 128,-1,87
 843 233 843 233 834 202.5 c 128,-1,88
 825 172 825 172 825 134 c 0,89,90
 825 92 825 92 839.5 69.5 c 128,-1,91
 854 47 854 47 877 47 c 0,92,93
 897 47 897 47 915 59 c 128,-1,94
 933 71 933 71 946.5 93 c 128,-1,95
 960 115 960 115 968 145 c 128,-1,96
 976 175 976 175 976 211 c 0,97,98
 976 253 976 253 961 276.5 c 128,-1,99
 946 300 946 300 924 300 c 0,84,85
EndSplineSet
EndChar

StartChar: guilsinglleft
Encoding: 8249 8249 220
Width: 321
Flags: W
LayerCount: 2
Back
Fore
SplineSet
118 78 m 1,0,-1
 15 284 l 1,1,-1
 190 490 l 1,2,-1
 312 490 l 1,3,-1
 137 284 l 1,4,-1
 240 78 l 1,5,-1
 118 78 l 1,0,-1
EndSplineSet
EndChar

StartChar: guilsinglright
Encoding: 8250 8250 221
Width: 322
Flags: W
LayerCount: 2
Back
Fore
SplineSet
124 78 m 1,0,-1
 2 78 l 1,1,-1
 177 284 l 1,2,-1
 75 490 l 1,3,-1
 197 490 l 1,4,-1
 299 284 l 1,5,-1
 124 78 l 1,0,-1
EndSplineSet
EndChar

StartChar: zerosuperior
Encoding: 8304 8304 222
Width: 383
Flags: W
LayerCount: 2
Back
Fore
SplineSet
187 312 m 0,0,1
 129 312 129 312 97.5 353.5 c 128,-1,2
 66 395 66 395 66 462 c 0,3,4
 66 514 66 514 82 558.5 c 128,-1,5
 98 603 98 603 125.5 636 c 128,-1,6
 153 669 153 669 188.5 687.5 c 128,-1,7
 224 706 224 706 263 706 c 0,8,9
 319 706 319 706 351.5 663 c 128,-1,10
 384 620 384 620 384 552 c 0,11,12
 384 502 384 502 369 458 c 128,-1,13
 354 414 354 414 328 381.5 c 128,-1,14
 302 349 302 349 266 330.5 c 128,-1,15
 230 312 230 312 187 312 c 0,0,1
250 635 m 0,16,17
 233 635 233 635 215 624.5 c 128,-1,18
 197 614 197 614 181.5 593 c 128,-1,19
 166 572 166 572 156 540.5 c 128,-1,20
 146 509 146 509 146 467 c 0,21,22
 146 423 146 423 162 404 c 128,-1,23
 178 385 178 385 201 385 c 0,24,25
 221 385 221 385 239.5 394.5 c 128,-1,26
 258 404 258 404 272.5 424 c 128,-1,27
 287 444 287 444 295.5 474.5 c 128,-1,28
 304 505 304 505 304 546 c 0,29,30
 304 592 304 592 287.5 613.5 c 128,-1,31
 271 635 271 635 250 635 c 0,16,17
EndSplineSet
EndChar

StartChar: foursuperior
Encoding: 8308 8308 223
Width: 322
Flags: W
LayerCount: 2
Back
Fore
SplineSet
267 423 m 1,0,-1
 249 320 l 1,1,-1
 168 320 l 1,2,-1
 187 423 l 1,3,-1
 29 423 l 1,4,-1
 246 698 l 1,5,-1
 316 698 l 1,6,-1
 278 485 l 1,7,-1
 322 485 l 1,8,-1
 312 423 l 1,9,-1
 267 423 l 1,0,-1
215 583 m 1,10,-1
 144 485 l 1,11,-1
 198 485 l 1,12,-1
 215 583 l 1,10,-1
EndSplineSet
EndChar

StartChar: fivesuperior
Encoding: 8309 8309 224
Width: 293
Flags: W
LayerCount: 2
Back
Fore
SplineSet
132 313 m 0,0,1
 111 313 111 313 93.5 317.5 c 128,-1,2
 76 322 76 322 63.5 328 c 128,-1,3
 51 334 51 334 43.5 340 c 128,-1,4
 36 346 36 346 36 349 c 2,5,-1
 68 422 l 1,6,7
 75 409 75 409 94 399.5 c 128,-1,8
 113 390 113 390 143 390 c 0,9,10
 154 390 154 390 166 391.5 c 128,-1,11
 178 393 178 393 187.5 399.5 c 128,-1,12
 197 406 197 406 203.5 419 c 128,-1,13
 210 432 210 432 210 455 c 0,14,15
 210 468 210 468 198 479.5 c 128,-1,16
 186 491 186 491 146 491 c 2,17,-1
 80 491 l 1,18,-1
 140 698 l 1,19,-1
 309 698 l 1,20,-1
 286 618 l 1,21,-1
 185 618 l 1,22,-1
 168 557 l 1,23,24
 226 556 226 556 255 534.5 c 128,-1,25
 284 513 284 513 284 466 c 0,26,27
 284 426 284 426 270.5 397 c 128,-1,28
 257 368 257 368 235 349.5 c 128,-1,29
 213 331 213 331 186 322 c 128,-1,30
 159 313 159 313 132 313 c 0,0,1
EndSplineSet
EndChar

StartChar: sixsuperior
Encoding: 8310 8310 225
Width: 304
Flags: W
LayerCount: 2
Back
Fore
SplineSet
151 312 m 0,0,1
 111 312 111 312 85 337.5 c 128,-1,2
 59 363 59 363 59 422 c 0,3,4
 59 483 59 483 83.5 533.5 c 128,-1,5
 108 584 108 584 141.5 620.5 c 128,-1,6
 175 657 175 657 209 677.5 c 128,-1,7
 243 698 243 698 262 698 c 1,8,-1
 310 667 l 1,9,10
 296 667 296 667 272.5 652 c 128,-1,11
 249 637 249 637 225 615.5 c 128,-1,12
 201 594 201 594 182 571 c 128,-1,13
 163 548 163 548 160 532 c 1,14,15
 164 537 164 537 172 540 c 128,-1,16
 180 543 180 543 188 544.5 c 128,-1,17
 196 546 196 546 203 546.5 c 128,-1,18
 210 547 210 547 213 547 c 0,19,20
 253 547 253 547 278 525 c 128,-1,21
 303 503 303 503 303 459 c 0,22,23
 303 431 303 431 291.5 404.5 c 128,-1,24
 280 378 280 378 259.5 357.5 c 128,-1,25
 239 337 239 337 211.5 324.5 c 128,-1,26
 184 312 184 312 151 312 c 0,0,1
196 483 m 0,27,28
 167 483 167 483 151 469 c 128,-1,29
 135 455 135 455 135 424 c 0,30,31
 135 405 135 405 147.5 395 c 128,-1,32
 160 385 160 385 171 385 c 0,33,34
 192 385 192 385 211 404 c 128,-1,35
 230 423 230 423 230 447 c 0,36,37
 230 461 230 461 220.5 472 c 128,-1,38
 211 483 211 483 196 483 c 0,27,28
EndSplineSet
EndChar

StartChar: sevensuperior
Encoding: 8311 8311 226
Width: 280
Flags: W
LayerCount: 2
Back
Fore
SplineSet
129 320 m 1,0,-1
 43 320 l 1,1,-1
 208 618 l 1,2,-1
 85 618 l 1,3,-1
 99 698 l 1,4,-1
 343 698 l 1,5,-1
 129 320 l 1,0,-1
EndSplineSet
EndChar

StartChar: eightsuperior
Encoding: 8312 8312 227
Width: 326
Flags: W
LayerCount: 2
Back
Fore
SplineSet
157 312 m 0,0,1
 103 312 103 312 77.5 338.5 c 128,-1,2
 52 365 52 365 52 402 c 0,3,4
 52 432 52 432 68.5 463.5 c 128,-1,5
 85 495 85 495 116 524 c 1,6,7
 109 532 109 532 106.5 547.5 c 128,-1,8
 104 563 104 563 104 578 c 0,9,10
 104 603 104 603 110.5 626.5 c 128,-1,11
 117 650 117 650 132 667.5 c 128,-1,12
 147 685 147 685 172 695.5 c 128,-1,13
 197 706 197 706 234 706 c 0,14,15
 285 706 285 706 300.5 681 c 128,-1,16
 316 656 316 656 316 603 c 0,17,18
 316 581 316 581 305 561.5 c 128,-1,19
 294 542 294 542 280 528 c 1,20,21
 291 517 291 517 302 494.5 c 128,-1,22
 313 472 313 472 313 446 c 0,23,24
 313 425 313 425 303.5 401 c 128,-1,25
 294 377 294 377 274.5 357.5 c 128,-1,26
 255 338 255 338 225.5 325 c 128,-1,27
 196 312 196 312 157 312 c 0,0,1
222 647 m 0,28,29
 196 647 196 647 184 630 c 128,-1,30
 172 613 172 613 172 584 c 0,31,32
 172 574 172 574 178 565 c 128,-1,33
 184 556 184 556 202 551 c 1,34,35
 229 558 229 558 240.5 573.5 c 128,-1,36
 252 589 252 589 252 616 c 0,37,38
 252 628 252 628 245.5 637.5 c 128,-1,39
 239 647 239 647 222 647 c 0,28,29
198 497 m 0,40,41
 189 495 189 495 176.5 489.5 c 128,-1,42
 164 484 164 484 153 473.5 c 128,-1,43
 142 463 142 463 134.5 449 c 128,-1,44
 127 435 127 435 127 417 c 0,45,46
 127 397 127 397 138.5 385 c 128,-1,47
 150 373 150 373 170 373 c 0,48,49
 204 373 204 373 219 391.5 c 128,-1,50
 234 410 234 410 234 442 c 0,51,52
 234 466 234 466 223 480 c 128,-1,53
 212 494 212 494 198 497 c 0,40,41
EndSplineSet
EndChar

StartChar: ninesuperior
Encoding: 8313 8313 228
Width: 305
Flags: W
LayerCount: 2
Back
Fore
SplineSet
224 706 m 0,0,1
 267 706 267 706 292 679.5 c 128,-1,2
 317 653 317 653 317 596 c 0,3,4
 317 543 317 543 297 493.5 c 128,-1,5
 277 444 277 444 246 405.5 c 128,-1,6
 215 367 215 367 178.5 343.5 c 128,-1,7
 142 320 142 320 109 320 c 1,8,-1
 68 351 l 1,9,10
 81 351 81 351 105.5 363 c 128,-1,11
 130 375 130 375 155 394.5 c 128,-1,12
 180 414 180 414 200 438.5 c 128,-1,13
 220 463 220 463 225 488 c 1,14,15
 212 477 212 477 196 474 c 128,-1,16
 180 471 180 471 166 471 c 0,17,18
 149 471 149 471 132.5 477 c 128,-1,19
 116 483 116 483 102.5 494 c 128,-1,20
 89 505 89 505 80.5 522 c 128,-1,21
 72 539 72 539 72 561 c 0,22,23
 72 588 72 588 83.5 614 c 128,-1,24
 95 640 95 640 115.5 660.5 c 128,-1,25
 136 681 136 681 163.5 693.5 c 128,-1,26
 191 706 191 706 224 706 c 0,0,1
184 535 m 0,27,28
 210 535 210 535 227.5 549 c 128,-1,29
 245 563 245 563 245 596 c 0,30,31
 245 621 245 621 232 627.5 c 128,-1,32
 219 634 219 634 210 634 c 0,33,34
 198 634 198 634 187.5 628 c 128,-1,35
 177 622 177 622 169.5 613 c 128,-1,36
 162 604 162 604 157.5 592.5 c 128,-1,37
 153 581 153 581 153 571 c 0,38,39
 153 555 153 555 161.5 545 c 128,-1,40
 170 535 170 535 184 535 c 0,27,28
EndSplineSet
EndChar

StartChar: Euro
Encoding: 8364 8364 239
Width: 655
Flags: W
LayerCount: 2
Back
Fore
SplineSet
377 17 m 0,0,1
 286 17 286 17 225 68 c 128,-1,2
 164 119 164 119 147 213 c 1,3,-1
 18 213 l 1,4,-1
 56 288 l 1,5,-1
 142 288 l 1,6,7
 144 306 144 306 146 324 c 128,-1,8
 148 342 148 342 152 365 c 1,9,-1
 69 365 l 1,10,-1
 109 440 l 1,11,-1
 175 440 l 1,12,13
 197 497 197 497 231 542 c 128,-1,14
 265 587 265 587 306.5 618.5 c 128,-1,15
 348 650 348 650 396 666.5 c 128,-1,16
 444 683 444 683 495 683 c 0,17,18
 537 683 537 683 577.5 674.5 c 128,-1,19
 618 666 618 666 650 648 c 1,20,-1
 620 545 l 1,21,22
 587 562 587 562 553.5 572.5 c 128,-1,23
 520 583 520 583 477 583 c 0,24,25
 411 583 411 583 365 545.5 c 128,-1,26
 319 508 319 508 290 440 c 1,27,-1
 518 440 l 1,28,-1
 478 365 l 1,29,-1
 266 365 l 1,30,31
 264 357 264 357 262.5 346 c 128,-1,32
 261 335 261 335 259.5 324 c 128,-1,33
 258 313 258 313 257 303 c 128,-1,34
 256 293 256 293 256 288 c 1,35,-1
 473 288 l 1,36,-1
 435 213 l 1,37,-1
 266 213 l 1,38,39
 294 117 294 117 395 117 c 0,40,41
 438 117 438 117 475 127.5 c 128,-1,42
 512 138 512 138 551 155 c 1,43,-1
 545 52 l 1,44,45
 507 34 507 34 463.5 25.5 c 128,-1,46
 420 17 420 17 377 17 c 0,0,1
EndSplineSet
EndChar

StartChar: trademark
Encoding: 8482 8482 240
Width: 687
Flags: W
LayerCount: 2
Back
Fore
SplineSet
467 437 m 1,0,-1
 421 586 l 1,1,-1
 351 337 l 1,2,-1
 286 337 l 1,3,-1
 393 700 l 1,4,-1
 433 700 l 1,5,-1
 488 532 l 1,6,-1
 603 700 l 1,7,-1
 643 700 l 1,8,-1
 623 337 l 1,9,-1
 556 337 l 1,10,-1
 575 586 l 1,11,-1
 476 437 l 1,12,-1
 467 437 l 1,0,-1
331 640 m 1,13,-1
 245 640 l 1,14,-1
 191 337 l 1,15,-1
 127 337 l 1,16,-1
 180 640 l 1,17,-1
 92 640 l 1,18,-1
 103 700 l 1,19,-1
 350 700 l 1,20,-1
 331 640 l 1,13,-1
EndSplineSet
EndChar

StartChar: M.sc
Encoding: 65537 -1 241
Width: 689
Flags: W
LayerCount: 2
Back
Fore
SplineSet
473 0 m 1,0,-1
 494 382 l 1,1,-1
 308 120 l 1,2,-1
 214 381 l 1,3,-1
 101 0 l 1,4,-1
 -6 0 l 1,5,-1
 170 567 l 1,6,-1
 254 567 l 1,7,-1
 342 308 l 1,8,-1
 520 567 l 1,9,-1
 604 567 l 1,10,-1
 580 0 l 1,11,-1
 473 0 l 1,0,-1
EndSplineSet
EndChar

StartChar: L.sc
Encoding: 65538 -1 242
Width: 415
Flags: W
LayerCount: 2
Back
Fore
SplineSet
21 0 m 1,0,-1
 121 567 l 1,1,-1
 224 567 l 1,2,-1
 141 99 l 1,3,-1
 365 99 l 1,4,-1
 347 0 l 1,5,-1
 21 0 l 1,0,-1
EndSplineSet
EndChar

StartChar: S.sc
Encoding: 65539 -1 243
Width: 488
Flags: W
LayerCount: 2
Back
Fore
SplineSet
179 -11 m 0,0,1
 116 -11 116 -11 70.5 1.5 c 128,-1,2
 25 14 25 14 4 30 c 1,3,-1
 37 147 l 1,4,5
 55 124 55 124 96 105.5 c 128,-1,6
 137 87 137 87 200 87 c 0,7,8
 250 87 250 87 278 103 c 128,-1,9
 306 119 306 119 306 161 c 0,10,11
 306 179 306 179 297 192.5 c 128,-1,12
 288 206 288 206 272.5 216.5 c 128,-1,13
 257 227 257 227 237.5 235 c 128,-1,14
 218 243 218 243 197 251 c 0,15,16
 173 260 173 260 148.5 271 c 128,-1,17
 124 282 124 282 104.5 297 c 128,-1,18
 85 312 85 312 73 333.5 c 128,-1,19
 61 355 61 355 61 386 c 0,20,21
 61 416 61 416 73.5 449.5 c 128,-1,22
 86 483 86 483 114 512 c 128,-1,23
 142 541 142 541 186 560 c 128,-1,24
 230 579 230 579 292 579 c 0,25,26
 320 579 320 579 346.5 575 c 128,-1,27
 373 571 373 571 395 564.5 c 128,-1,28
 417 558 417 558 433.5 550 c 128,-1,29
 450 542 450 542 459 535 c 1,30,-1
 431 430 l 1,31,32
 390 455 390 455 353.5 468 c 128,-1,33
 317 481 317 481 278 481 c 0,34,35
 261 481 261 481 242 478 c 128,-1,36
 223 475 223 475 207 467 c 128,-1,37
 191 459 191 459 180 446 c 128,-1,38
 169 433 169 433 169 412 c 0,39,40
 169 397 169 397 177 386 c 128,-1,41
 185 375 185 375 198 366.5 c 128,-1,42
 211 358 211 358 228.5 351 c 128,-1,43
 246 344 246 344 265 338 c 0,44,45
 292 329 292 329 320 317.5 c 128,-1,46
 348 306 348 306 371.5 288.5 c 128,-1,47
 395 271 395 271 409.5 245 c 128,-1,48
 424 219 424 219 424 181 c 0,49,50
 424 152 424 152 414 118.5 c 128,-1,51
 404 85 404 85 377 56.5 c 128,-1,52
 350 28 350 28 302 8.5 c 128,-1,53
 254 -11 254 -11 179 -11 c 0,0,1
EndSplineSet
EndChar

StartChar: J.sc
Encoding: 65540 -1 244
Width: 249
Flags: W
LayerCount: 2
Back
Fore
SplineSet
-59 -140 m 1,0,-1
 -54 -63 l 1,1,-1
 -31 -63 l 2,2,3
 -9 -63 -9 -63 2 -47 c 128,-1,4
 13 -31 13 -31 19 3 c 2,5,-1
 119 567 l 1,6,-1
 222 567 l 1,7,-1
 118 -20 l 2,8,9
 107 -81 107 -81 67.5 -110.5 c 128,-1,10
 28 -140 28 -140 -30 -140 c 2,11,-1
 -59 -140 l 1,0,-1
EndSplineSet
EndChar

StartChar: O.sc
Encoding: 65541 -1 245
Width: 636
Flags: W
LayerCount: 2
Back
Fore
SplineSet
259 -11 m 0,0,1
 208 -11 208 -11 166 6 c 128,-1,2
 124 23 124 23 95 54.5 c 128,-1,3
 66 86 66 86 50 130.5 c 128,-1,4
 34 175 34 175 34 229 c 0,5,6
 34 306 34 306 60 370.5 c 128,-1,7
 86 435 86 435 131 481.5 c 128,-1,8
 176 528 176 528 235.5 553.5 c 128,-1,9
 295 579 295 579 362 579 c 0,10,11
 413 579 413 579 455 562 c 128,-1,12
 497 545 497 545 526 513.5 c 128,-1,13
 555 482 555 482 571 437.5 c 128,-1,14
 587 393 587 393 587 338 c 0,15,16
 587 261 587 261 561 197 c 128,-1,17
 535 133 535 133 490 86.5 c 128,-1,18
 445 40 445 40 385.5 14.5 c 128,-1,19
 326 -11 326 -11 259 -11 c 0,0,1
345 480 m 0,20,21
 298 480 298 480 261 460.5 c 128,-1,22
 224 441 224 441 198.5 408 c 128,-1,23
 173 375 173 375 160 331.5 c 128,-1,24
 147 288 147 288 147 239 c 0,25,26
 147 173 147 173 178.5 130 c 128,-1,27
 210 87 210 87 276 87 c 0,28,29
 324 87 324 87 360.5 106.5 c 128,-1,30
 397 126 397 126 422 159 c 128,-1,31
 447 192 447 192 460 236 c 128,-1,32
 473 280 473 280 473 329 c 0,33,34
 473 395 473 395 442 437.5 c 128,-1,35
 411 480 411 480 345 480 c 0,20,21
EndSplineSet
EndChar

StartChar: N.sc
Encoding: 65542 -1 246
Width: 589
Flags: W
LayerCount: 2
Back
Fore
SplineSet
370 0 m 1,0,-1
 193 392 l 1,1,-1
 123 0 l 1,2,-1
 21 0 l 1,3,-1
 121 567 l 1,4,-1
 221 567 l 1,5,-1
 388 199 l 1,6,-1
 453 567 l 1,7,-1
 556 567 l 1,8,-1
 455 0 l 1,9,-1
 370 0 l 1,0,-1
EndSplineSet
EndChar

StartChar: H.sc
Encoding: 65543 -1 247
Width: 615
Flags: W
LayerCount: 2
Back
Fore
SplineSet
378 0 m 1,0,-1
 421 246 l 1,1,-1
 167 246 l 1,2,-1
 123 0 l 1,3,-1
 21 0 l 1,4,-1
 121 567 l 1,5,-1
 224 567 l 1,6,-1
 185 346 l 1,7,-1
 438 346 l 1,8,-1
 478 567 l 1,9,-1
 581 567 l 1,10,-1
 480 0 l 1,11,-1
 378 0 l 1,0,-1
EndSplineSet
EndChar

StartChar: R.sc
Encoding: 65544 -1 248
Width: 526
Flags: W
LayerCount: 2
Back
Fore
SplineSet
337 0 m 1,0,-1
 261 211 l 1,1,-1
 161 211 l 1,2,-1
 124 0 l 1,3,-1
 21 0 l 1,4,-1
 121 567 l 1,5,-1
 324 567 l 2,6,7
 359 567 359 567 389 560.5 c 128,-1,8
 419 554 419 554 440.5 538.5 c 128,-1,9
 462 523 462 523 474.5 498 c 128,-1,10
 487 473 487 473 487 436 c 0,11,12
 487 397 487 397 477 366.5 c 128,-1,13
 467 336 467 336 450 312.5 c 128,-1,14
 433 289 433 289 410 271 c 128,-1,15
 387 253 387 253 362 238 c 1,16,-1
 444 0 l 1,17,-1
 337 0 l 1,0,-1
208 482 m 1,18,-1
 178 308 l 1,19,-1
 246 308 l 2,20,21
 288 308 288 308 313.5 316.5 c 128,-1,22
 339 325 339 325 353 339.5 c 128,-1,23
 367 354 367 354 372 374 c 128,-1,24
 377 394 377 394 377 418 c 0,25,26
 377 448 377 448 357 465 c 128,-1,27
 337 482 337 482 283 482 c 2,28,-1
 208 482 l 1,18,-1
EndSplineSet
EndChar

StartChar: I.sc
Encoding: 65545 -1 249
Width: 249
Flags: W
LayerCount: 2
Back
Fore
SplineSet
21 0 m 1,0,-1
 121 567 l 1,1,-1
 223 567 l 1,2,-1
 123 0 l 1,3,-1
 21 0 l 1,0,-1
EndSplineSet
EndChar

StartChar: OE.sc
Encoding: 65546 -1 250
Width: 872
Flags: W
LayerCount: 2
Back
Fore
SplineSet
532 0 m 1,0,-1
 425 0 l 1,1,-1
 433 45 l 1,2,3
 396 18 396 18 351.5 3.5 c 128,-1,4
 307 -11 307 -11 259 -11 c 0,5,6
 208 -11 208 -11 166.5 6 c 128,-1,7
 125 23 125 23 95.5 54.5 c 128,-1,8
 66 86 66 86 50 130.5 c 128,-1,9
 34 175 34 175 34 229 c 0,10,11
 34 306 34 306 60 370.5 c 128,-1,12
 86 435 86 435 131 481.5 c 128,-1,13
 176 528 176 528 236 553.5 c 128,-1,14
 296 579 296 579 363 579 c 0,15,16
 411 579 411 579 450.5 564 c 128,-1,17
 490 549 490 549 518 522 c 1,18,-1
 526 567 l 1,19,-1
 862 567 l 1,20,-1
 845 468 l 1,21,-1
 614 468 l 1,22,-1
 592 345 l 1,23,-1
 770 345 l 1,24,-1
 752 246 l 1,25,-1
 575 246 l 1,26,-1
 549 99 l 1,27,-1
 787 99 l 1,28,-1
 770 0 l 1,29,-1
 532 0 l 1,0,-1
346 480 m 0,30,31
 298 480 298 480 261.5 461 c 128,-1,32
 225 442 225 442 199.5 409 c 128,-1,33
 174 376 174 376 161 332 c 128,-1,34
 148 288 148 288 148 239 c 0,35,36
 148 172 148 172 179.5 129.5 c 128,-1,37
 211 87 211 87 277 87 c 0,38,39
 324 87 324 87 361 106.5 c 128,-1,40
 398 126 398 126 423.5 159 c 128,-1,41
 449 192 449 192 462 235.5 c 128,-1,42
 475 279 475 279 475 328 c 0,43,44
 475 395 475 395 443 437.5 c 128,-1,45
 411 480 411 480 346 480 c 0,30,31
EndSplineSet
EndChar

StartChar: Q.sc
Encoding: 65547 -1 251
Width: 636
Flags: W
LayerCount: 2
Back
Fore
SplineSet
470 -7 m 1,0,-1
 424 38 l 1,1,2
 389 14 389 14 346.5 1.5 c 128,-1,3
 304 -11 304 -11 259 -11 c 0,4,5
 208 -11 208 -11 166 6 c 128,-1,6
 124 23 124 23 95 54.5 c 128,-1,7
 66 86 66 86 50 130.5 c 128,-1,8
 34 175 34 175 34 229 c 0,9,10
 34 306 34 306 60 370.5 c 128,-1,11
 86 435 86 435 131 481.5 c 128,-1,12
 176 528 176 528 235.5 553.5 c 128,-1,13
 295 579 295 579 362 579 c 0,14,15
 413 579 413 579 455 562 c 128,-1,16
 497 545 497 545 526 513.5 c 128,-1,17
 555 482 555 482 571 437.5 c 128,-1,18
 587 393 587 393 587 338 c 0,19,20
 587 270 587 270 563.5 212.5 c 128,-1,21
 540 155 540 155 501 105 c 1,22,-1
 543 63 l 1,23,-1
 470 -7 l 1,0,-1
345 480 m 0,24,25
 298 480 298 480 261 460.5 c 128,-1,26
 224 441 224 441 198.5 408 c 128,-1,27
 173 375 173 375 160 331 c 128,-1,28
 147 287 147 287 147 238 c 0,29,30
 147 172 147 172 178.5 129.5 c 128,-1,31
 210 87 210 87 276 87 c 0,32,33
 318 87 318 87 353 107 c 1,34,-1
 299 164 l 1,35,-1
 371 236 l 1,36,-1
 428 175 l 1,37,38
 435 187 435 187 443 201.5 c 128,-1,39
 451 216 451 216 457.5 234 c 128,-1,40
 464 252 464 252 468 275.5 c 128,-1,41
 472 299 472 299 472 330 c 0,42,43
 472 396 472 396 441.5 438 c 128,-1,44
 411 480 411 480 345 480 c 0,24,25
EndSplineSet
EndChar

StartChar: K.sc
Encoding: 65548 -1 252
Width: 521
Flags: W
LayerCount: 2
Back
Fore
SplineSet
333 0 m 1,0,-1
 195 300 l 1,1,-1
 432 567 l 1,2,-1
 548 567 l 1,3,-1
 311 300 l 1,4,-1
 448 0 l 1,5,-1
 333 0 l 1,0,-1
21 0 m 1,6,-1
 121 567 l 1,7,-1
 223 567 l 1,8,-1
 123 0 l 1,9,-1
 21 0 l 1,6,-1
EndSplineSet
EndChar

StartChar: F.sc
Encoding: 65549 -1 253
Width: 443
Flags: W
LayerCount: 2
Back
Fore
SplineSet
207 468 m 1,0,-1
 185 345 l 1,1,-1
 366 345 l 1,2,-1
 349 246 l 1,3,-1
 167 246 l 1,4,-1
 123 0 l 1,5,-1
 21 0 l 1,6,-1
 121 567 l 1,7,-1
 459 567 l 1,8,-1
 442 468 l 1,9,-1
 207 468 l 1,0,-1
EndSplineSet
EndChar

StartChar: G.sc
Encoding: 65550 -1 254
Width: 555
Flags: W
LayerCount: 2
Back
Fore
SplineSet
256 -11 m 0,0,1
 206 -11 206 -11 165 6 c 128,-1,2
 124 23 124 23 95 54.5 c 128,-1,3
 66 86 66 86 50 130.5 c 128,-1,4
 34 175 34 175 34 230 c 0,5,6
 34 306 34 306 60 370.5 c 128,-1,7
 86 435 86 435 130.5 481 c 128,-1,8
 175 527 175 527 235.5 553 c 128,-1,9
 296 579 296 579 365 579 c 0,10,11
 385 579 385 579 407 576.5 c 128,-1,12
 429 574 429 574 450.5 570 c 128,-1,13
 472 566 472 566 491 559.5 c 128,-1,14
 510 553 510 553 524 546 c 1,15,-1
 495 448 l 1,16,17
 466 462 466 462 426.5 471 c 128,-1,18
 387 480 387 480 350 480 c 0,19,20
 299 480 299 480 261 460.5 c 128,-1,21
 223 441 223 441 197.5 408 c 128,-1,22
 172 375 172 375 159.5 331.5 c 128,-1,23
 147 288 147 288 147 241 c 0,24,25
 147 173 147 173 181 130 c 128,-1,26
 215 87 215 87 284 87 c 0,27,28
 320 87 320 87 360 97 c 1,29,-1
 379 199 l 1,30,-1
 321 199 l 1,31,-1
 336 284 l 1,32,-1
 496 284 l 1,33,-1
 481 198 l 1,34,-1
 451 31 l 1,35,36
 435 22 435 22 411 14.5 c 128,-1,37
 387 7 387 7 360.5 1.5 c 128,-1,38
 334 -4 334 -4 306.5 -7.5 c 128,-1,39
 279 -11 279 -11 256 -11 c 0,0,1
EndSplineSet
EndChar

StartChar: E.sc
Encoding: 65551 -1 255
Width: 475
Flags: W
LayerCount: 2
Back
Fore
SplineSet
125 0 m 1,0,-1
 21 0 l 1,1,-1
 121 567 l 1,2,-1
 474 567 l 1,3,-1
 457 468 l 1,4,-1
 209 468 l 1,5,-1
 188 345 l 1,6,-1
 379 345 l 1,7,-1
 362 246 l 1,8,-1
 170 246 l 1,9,-1
 144 99 l 1,10,-1
 399 99 l 1,11,-1
 382 0 l 1,12,-1
 125 0 l 1,0,-1
EndSplineSet
EndChar

StartChar: D.sc
Encoding: 65552 -1 256
Width: 602
Flags: W
LayerCount: 2
Back
Fore
SplineSet
122 0 m 1,0,-1
 21 0 l 1,1,-1
 121 567 l 1,2,-1
 327 567 l 2,3,4
 378 567 378 567 419.5 551.5 c 128,-1,5
 461 536 461 536 491 506 c 128,-1,6
 521 476 521 476 537 433.5 c 128,-1,7
 553 391 553 391 553 337 c 0,8,9
 553 260 553 260 527.5 197.5 c 128,-1,10
 502 135 502 135 457.5 91 c 128,-1,11
 413 47 413 47 353.5 23.5 c 128,-1,12
 294 0 294 0 227 0 c 2,13,-1
 122 0 l 1,0,-1
207 469 m 1,14,-1
 141 99 l 1,15,-1
 245 99 l 2,16,17
 293 99 293 99 329.5 116 c 128,-1,18
 366 133 366 133 390.5 163.5 c 128,-1,19
 415 194 415 194 427.5 236 c 128,-1,20
 440 278 440 278 440 327 c 0,21,22
 440 393 440 393 407.5 431 c 128,-1,23
 375 469 375 469 309 469 c 2,24,-1
 207 469 l 1,14,-1
EndSplineSet
EndChar

StartChar: C.sc
Encoding: 65553 -1 257
Width: 511
Flags: W
LayerCount: 2
Back
Fore
SplineSet
258 -11 m 0,0,1
 207 -11 207 -11 165.5 6 c 128,-1,2
 124 23 124 23 95 54.5 c 128,-1,3
 66 86 66 86 50 130 c 128,-1,4
 34 174 34 174 34 229 c 0,5,6
 34 306 34 306 60 370 c 128,-1,7
 86 434 86 434 131 480.5 c 128,-1,8
 176 527 176 527 235.5 553 c 128,-1,9
 295 579 295 579 362 579 c 0,10,11
 406 579 406 579 445.5 570 c 128,-1,12
 485 561 485 561 512 545 c 1,13,-1
 484 448 l 1,14,15
 452 462 452 462 420 471 c 128,-1,16
 388 480 388 480 345 480 c 0,17,18
 297 480 297 480 260.5 460.5 c 128,-1,19
 224 441 224 441 198.5 408 c 128,-1,20
 173 375 173 375 160 331 c 128,-1,21
 147 287 147 287 147 238 c 0,22,23
 147 172 147 172 178 129.5 c 128,-1,24
 209 87 209 87 275 87 c 0,25,26
 319 87 319 87 354 96 c 128,-1,27
 389 105 389 105 426 119 c 1,28,-1
 420 22 l 1,29,30
 388 7 388 7 344.5 -2 c 128,-1,31
 301 -11 301 -11 258 -11 c 0,0,1
EndSplineSet
EndChar

StartChar: V.sc
Encoding: 65554 -1 258
Width: 539
Flags: W
LayerCount: 2
Back
Fore
SplineSet
274 0 m 1,0,-1
 148 0 l 1,1,-1
 51 567 l 1,2,-1
 158 567 l 1,3,-1
 234 135 l 1,4,-1
 459 567 l 1,5,-1
 565 567 l 1,6,-1
 274 0 l 1,0,-1
EndSplineSet
EndChar

StartChar: W.sc
Encoding: 65555 -1 259
Width: 794
Flags: W
LayerCount: 2
Back
Fore
SplineSet
549 0 m 1,0,-1
 460 0 l 1,1,-1
 407 382 l 1,2,-1
 218 0 l 1,3,-1
 123 0 l 1,4,-1
 68 567 l 1,5,-1
 175 567 l 1,6,-1
 212 161 l 1,7,-1
 404 567 l 1,8,-1
 473 567 l 1,9,-1
 530 171 l 1,10,-1
 703 567 l 1,11,-1
 810 567 l 1,12,-1
 549 0 l 1,0,-1
EndSplineSet
EndChar

StartChar: B.sc
Encoding: 65556 -1 260
Width: 527
Flags: W
LayerCount: 2
Back
Fore
SplineSet
124 0 m 1,0,-1
 21 0 l 1,1,-1
 121 567 l 1,2,-1
 271 567 l 2,3,4
 313 567 313 567 347.5 563 c 128,-1,5
 382 559 382 559 407 546.5 c 128,-1,6
 432 534 432 534 445.5 511.5 c 128,-1,7
 459 489 459 489 459 452 c 0,8,9
 459 395 459 395 438 360 c 128,-1,10
 417 325 417 325 388 303 c 1,11,12
 425 287 425 287 444.5 261 c 128,-1,13
 464 235 464 235 464 194 c 0,14,15
 464 137 464 137 442.5 99.5 c 128,-1,16
 421 62 421 62 388 40 c 128,-1,17
 355 18 355 18 314 9 c 128,-1,18
 273 0 273 0 234 0 c 2,19,-1
 124 0 l 1,0,-1
208 480 m 1,20,-1
 183 339 l 1,21,-1
 281 339 l 2,22,23
 293 339 293 339 307 342.5 c 128,-1,24
 321 346 321 346 333 355.5 c 128,-1,25
 345 365 345 365 353 382 c 128,-1,26
 361 399 361 399 361 426 c 0,27,28
 361 458 361 458 344 469 c 128,-1,29
 327 480 327 480 298 480 c 2,30,-1
 208 480 l 1,20,-1
169 258 m 1,31,-1
 139 88 l 1,32,-1
 240 88 l 2,33,34
 295 88 295 88 326 110.5 c 128,-1,35
 357 133 357 133 357 190 c 0,36,37
 357 229 357 229 333.5 243.5 c 128,-1,38
 310 258 310 258 272 258 c 2,39,-1
 169 258 l 1,31,-1
EndSplineSet
EndChar

StartChar: AE.sc
Encoding: 65557 -1 261
Width: 707
Flags: W
LayerCount: 2
Back
Fore
SplineSet
369 0 m 1,0,-1
 265 0 l 1,1,-1
 289 137 l 1,2,-1
 139 137 l 1,3,-1
 52 0 l 1,4,-1
 -56 0 l 1,5,-1
 312 567 l 1,6,-1
 700 567 l 1,7,-1
 682 468 l 1,8,-1
 451 468 l 1,9,-1
 430 345 l 1,10,-1
 607 345 l 1,11,-1
 590 246 l 1,12,-1
 413 246 l 1,13,-1
 387 99 l 1,14,-1
 624 99 l 1,15,-1
 607 0 l 1,16,-1
 369 0 l 1,0,-1
347 466 m 1,17,-1
 204 237 l 1,18,-1
 307 237 l 1,19,-1
 347 466 l 1,17,-1
EndSplineSet
EndChar

StartChar: X.sc
Encoding: 65558 -1 262
Width: 527
Flags: W
LayerCount: 2
Back
Fore
SplineSet
337 0 m 1,0,-1
 243 209 l 1,1,-1
 79 0 l 1,2,-1
 -41 0 l 1,3,-1
 204 283 l 1,4,-1
 69 567 l 1,5,-1
 188 567 l 1,6,-1
 278 367 l 1,7,-1
 426 567 l 1,8,-1
 545 567 l 1,9,-1
 318 294 l 1,10,-1
 457 0 l 1,11,-1
 337 0 l 1,0,-1
EndSplineSet
EndChar

StartChar: A.sc
Encoding: 65559 -1 263
Width: 512
Flags: W
LayerCount: 2
Back
Fore
SplineSet
339 0 m 1,0,-1
 317 138 l 1,1,-1
 137 138 l 1,2,-1
 67 0 l 1,3,-1
 -40 0 l 1,4,-1
 255 567 l 1,5,-1
 352 567 l 1,6,-1
 446 0 l 1,7,-1
 339 0 l 1,0,-1
274 406 m 1,8,-1
 190 237 l 1,9,-1
 299 237 l 1,10,-1
 274 406 l 1,8,-1
EndSplineSet
EndChar

StartChar: Y.sc
Encoding: 65560 -1 264
Width: 502
Flags: W
LayerCount: 2
Back
Fore
SplineSet
288 252 m 1,0,-1
 243 0 l 1,1,-1
 141 0 l 1,2,-1
 186 252 l 1,3,-1
 51 567 l 1,4,-1
 160 567 l 1,5,-1
 253 343 l 1,6,-1
 425 567 l 1,7,-1
 534 567 l 1,8,-1
 288 252 l 1,0,-1
EndSplineSet
EndChar

StartChar: Z.sc
Encoding: 65561 -1 265
Width: 459
Flags: W
LayerCount: 2
Back
Fore
SplineSet
152 99 m 1,0,-1
 365 99 l 1,1,-1
 348 0 l 1,2,-1
 -35 0 l 1,3,-1
 296 468 l 1,4,-1
 83 468 l 1,5,-1
 101 567 l 1,6,-1
 483 567 l 1,7,-1
 152 99 l 1,0,-1
EndSplineSet
EndChar

StartChar: U.sc
Encoding: 65562 -1 266
Width: 597
Flags: W
LayerCount: 2
Back
Fore
SplineSet
240 -11 m 0,0,1
 143 -11 143 -11 97 37.5 c 128,-1,2
 51 86 51 86 51 171 c 0,3,4
 51 208 51 208 58 243 c 2,5,-1
 116 567 l 1,6,-1
 217 567 l 1,7,-1
 167 278 l 2,8,9
 159 232 159 232 159 198 c 0,10,11
 159 148 159 148 180 117.5 c 128,-1,12
 201 87 201 87 258 87 c 0,13,14
 297 87 297 87 323.5 102 c 128,-1,15
 350 117 350 117 368.5 143 c 128,-1,16
 387 169 387 169 398 203.5 c 128,-1,17
 409 238 409 238 416 278 c 2,18,-1
 467 567 l 1,19,-1
 570 567 l 1,20,-1
 512 243 l 2,21,22
 501 185 501 185 479.5 138 c 128,-1,23
 458 91 458 91 424 58 c 128,-1,24
 390 25 390 25 344 7 c 128,-1,25
 298 -11 298 -11 240 -11 c 0,0,1
EndSplineSet
EndChar

StartChar: P.sc
Encoding: 65563 -1 267
Width: 502
Flags: W
LayerCount: 2
Back
Fore
SplineSet
156 187 m 1,0,-1
 124 0 l 1,1,-1
 21 0 l 1,2,-1
 121 567 l 1,3,-1
 274 567 l 2,4,5
 325 567 325 567 364.5 562 c 128,-1,6
 404 557 404 557 431.5 542.5 c 128,-1,7
 459 528 459 528 473 502 c 128,-1,8
 487 476 487 476 487 433 c 0,9,10
 487 358 487 358 463 310.5 c 128,-1,11
 439 263 439 263 403 235.5 c 128,-1,12
 367 208 367 208 326 197.5 c 128,-1,13
 285 187 285 187 252 187 c 2,14,-1
 156 187 l 1,0,-1
209 481 m 1,15,-1
 173 283 l 1,16,-1
 256 283 l 2,17,18
 293 283 293 283 317 291 c 128,-1,19
 341 299 341 299 355 315.5 c 128,-1,20
 369 332 369 332 375 356.5 c 128,-1,21
 381 381 381 381 381 414 c 0,22,23
 381 449 381 449 361 465 c 128,-1,24
 341 481 341 481 290 481 c 2,25,-1
 209 481 l 1,15,-1
EndSplineSet
EndChar

StartChar: T.sc
Encoding: 65564 -1 268
Width: 470
Flags: W
LayerCount: 2
Back
Fore
SplineSet
314 468 m 1,0,-1
 231 0 l 1,1,-1
 128 0 l 1,2,-1
 210 468 l 1,3,-1
 56 468 l 1,4,-1
 74 567 l 1,5,-1
 486 567 l 1,6,-1
 469 468 l 1,7,-1
 314 468 l 1,0,-1
EndSplineSet
EndChar
